AmstelvarA2-Roman_wdth125.ufo
<glyph name="exclam" format="2">
  <advance width="783"/>
  <unicode hex="0021"/>
  <outline>
    <contour>
      <point x="246" y="122" type="qcurve" smooth="yes"/>
      <point x="246" y="181"/>
      <point x="328" y="267"/>
      <point x="391" y="267" type="qcurve" smooth="yes"/>
      <point x="455" y="267"/>
      <point x="536" y="181"/>
      <point x="536" y="122" type="qcurve" smooth="yes"/>
      <point x="536" y="65"/>
      <point x="455" y="-22"/>
      <point x="391" y="-22" type="qcurve" smooth="yes"/>
      <point x="328" y="-22"/>
      <point x="246" y="65"/>
    </contour>
    <contour>
      <point x="296" y="1390" type="line" smooth="yes"/>
      <point x="292" y="1458"/>
      <point x="333" y="1546"/>
      <point x="389" y="1547" type="qcurve" smooth="yes"/>
      <point x="445" y="1548"/>
      <point x="490" y="1460"/>
      <point x="487" y="1391" type="qcurve" smooth="yes"/>
      <point x="476" y="1108" type="line"/>
      <point x="451" y="800" type="line"/>
      <point x="437" y="436" type="line"/>
      <point x="343" y="436" type="line"/>
      <point x="330" y="800" type="line"/>
      <point x="307" y="1108" type="line"/>
    </contour>
  </outline>
</glyph>
<glyph name="quotedbl" format="2">
  <advance width="1185"/>
  <unicode hex="0022"/>
  <outline>
    <contour>
      <point x="298" y="964" type="line"/>
      <point x="221" y="1422" type="line"/>
      <point x="221" y="1470"/>
      <point x="283" y="1558"/>
      <point x="346" y="1558" type="qcurve" smooth="yes"/>
      <point x="410" y="1558"/>
      <point x="472" y="1470"/>
      <point x="472" y="1422" type="qcurve"/>
      <point x="392" y="964" type="line"/>
    </contour>
    <contour>
      <point x="791" y="964" type="line"/>
      <point x="714" y="1422" type="line"/>
      <point x="714" y="1470"/>
      <point x="775" y="1558"/>
      <point x="839" y="1558" type="qcurve" smooth="yes"/>
      <point x="902" y="1558"/>
      <point x="964" y="1470"/>
      <point x="964" y="1422" type="qcurve"/>
      <point x="885" y="964" type="line"/>
    </contour>
  </outline>
</glyph>
<glyph name="numbersign" format="2">
  <advance width="1694"/>
  <unicode hex="0023"/>
  <outline>
    <contour>
      <point x="172" y="483" type="line"/>
      <point x="172" y="638" type="line"/>
      <point x="1427" y="638" type="line"/>
      <point x="1427" y="483" type="line"/>
    </contour>
    <contour>
      <point x="267" y="843" type="line"/>
      <point x="267" y="998" type="line"/>
      <point x="1522" y="998" type="line"/>
      <point x="1522" y="843" type="line"/>
    </contour>
    <contour>
      <point x="228" y="8" type="line"/>
      <point x="785" y="1524" type="line"/>
      <point x="883" y="1497" type="line"/>
      <point x="327" y="-19" type="line"/>
    </contour>
    <contour>
      <point x="835" y="8" type="line"/>
      <point x="1392" y="1524" type="line"/>
      <point x="1491" y="1497" type="line"/>
      <point x="934" y="-19" type="line"/>
    </contour>
  </outline>
</glyph>
<glyph name="dollar" format="2">
  <advance width="1613"/>
  <unicode hex="0024"/>
  <outline>
    <contour>
      <point x="144" y="258" type="qcurve"/>
      <point x="244" y="345" type="line"/>
      <point x="345" y="243"/>
      <point x="618" y="121"/>
      <point x="820" y="121" type="qcurve" smooth="yes"/>
      <point x="1050" y="121"/>
      <point x="1305" y="270"/>
      <point x="1305" y="395" type="qcurve" smooth="yes"/>
      <point x="1305" y="534"/>
      <point x="1023" y="671"/>
      <point x="776" y="722" type="qcurve" smooth="yes"/>
      <point x="460" y="786"/>
      <point x="236" y="974"/>
      <point x="236" y="1125" type="qcurve" smooth="yes"/>
      <point x="236" y="1284"/>
      <point x="511" y="1501"/>
      <point x="794" y="1501" type="qcurve" smooth="yes"/>
      <point x="963" y="1501"/>
      <point x="1258" y="1438"/>
      <point x="1375" y="1378" type="qcurve"/>
      <point x="1314" y="1267" type="line"/>
      <point x="1231" y="1309"/>
      <point x="965" y="1371"/>
      <point x="789" y="1371" type="qcurve" smooth="yes"/>
      <point x="582" y="1371"/>
      <point x="397" y="1255"/>
      <point x="397" y="1158" type="qcurve" smooth="yes"/>
      <point x="397" y="1066"/>
      <point x="534" y="949"/>
      <point x="866" y="878" type="qcurve" smooth="yes"/>
      <point x="1140" y="818"/>
      <point x="1469" y="626"/>
      <point x="1469" y="431" type="qcurve" smooth="yes"/>
      <point x="1469" y="248"/>
      <point x="1125" y="0"/>
      <point x="797" y="0" type="qcurve" smooth="yes"/>
      <point x="571" y="0"/>
      <point x="250" y="139"/>
    </contour>
    <contour>
      <point x="749" y="-190" type="line"/>
      <point x="749" y="37" type="line"/>
      <point x="769" y="51" type="line"/>
      <point x="769" y="820" type="line"/>
      <point x="893" y="778" type="line"/>
      <point x="893" y="52" type="line"/>
      <point x="915" y="52" type="line"/>
      <point x="915" y="-140" type="line"/>
    </contour>
    <contour>
      <point x="748" y="1610" type="line"/>
      <point x="914" y="1649" type="line"/>
      <point x="914" y="1418" type="line"/>
      <point x="893" y="1418" type="line"/>
      <point x="893" y="778" type="line"/>
      <point x="769" y="820" type="line"/>
      <point x="769" y="1418" type="line"/>
      <point x="748" y="1418" type="line"/>
    </contour>
  </outline>
</glyph>
<glyph name="ampersand" format="2">
  <advance width="2570"/>
  <unicode hex="0026"/>
  <outline>
    <contour>
      <point x="908" y="-28" type="qcurve" smooth="yes"/>
      <point x="484" y="-28"/>
      <point x="154" y="218"/>
      <point x="156" y="370" type="qcurve" smooth="yes"/>
      <point x="158" y="518"/>
      <point x="442" y="758"/>
      <point x="888" y="872" type="qcurve"/>
      <point x="1167" y="927"/>
      <point x="1340" y="1079"/>
      <point x="1340" y="1182" type="qcurve" smooth="yes"/>
      <point x="1340" y="1280"/>
      <point x="1174" y="1408"/>
      <point x="1012" y="1408" type="qcurve" smooth="yes"/>
      <point x="865" y="1408"/>
      <point x="682" y="1287"/>
      <point x="682" y="1189" type="qcurve" smooth="yes"/>
      <point x="682" y="1106"/>
      <point x="813" y="972"/>
      <point x="1007" y="885" type="qcurve"/>
      <point x="1742" y="272" type="line" smooth="yes"/>
      <point x="1859" y="178"/>
      <point x="2008" y="96"/>
      <point x="2132" y="96" type="qcurve" smooth="yes"/>
      <point x="2221" y="96"/>
      <point x="2345" y="133"/>
      <point x="2398" y="168" type="qcurve"/>
      <point x="2463" y="99" type="line"/>
      <point x="2403" y="35"/>
      <point x="2228" y="-36"/>
      <point x="2098" y="-37" type="qcurve" smooth="yes"/>
      <point x="1942" y="-38"/>
      <point x="1729" y="51"/>
      <point x="1594" y="168" type="qcurve" smooth="yes"/>
      <point x="827" y="818" type="line"/>
      <point x="716" y="858"/>
      <point x="490" y="1046"/>
      <point x="498" y="1185" type="qcurve" smooth="yes"/>
      <point x="506" y="1316"/>
      <point x="754" y="1516"/>
      <point x="1003" y="1516" type="qcurve" smooth="yes"/>
      <point x="1247" y="1516"/>
      <point x="1513" y="1345"/>
      <point x="1513" y="1198" type="qcurve" smooth="yes"/>
      <point x="1513" y="1064"/>
      <point x="1290" y="862"/>
      <point x="1021" y="795" type="qcurve"/>
      <point x="629" y="701"/>
      <point x="362" y="523"/>
      <point x="361" y="403" type="qcurve" smooth="yes"/>
      <point x="359" y="274"/>
      <point x="641" y="126"/>
      <point x="926" y="126" type="qcurve" smooth="yes"/>
      <point x="1391" y="126"/>
      <point x="2147" y="575"/>
      <point x="2378" y="873" type="qcurve"/>
      <point x="2491" y="858" type="line"/>
      <point x="2295" y="534"/>
      <point x="1388" y="-28"/>
    </contour>
    <contour>
      <point x="1711" y="846" type="line"/>
      <point x="1747" y="902"/>
      <point x="1882" y="978"/>
      <point x="1948" y="978" type="qcurve" smooth="yes"/>
      <point x="2012" y="978"/>
      <point x="2199" y="920"/>
      <point x="2252" y="920" type="qcurve" smooth="yes"/>
      <point x="2292" y="920"/>
      <point x="2346" y="925"/>
      <point x="2389" y="945" type="qcurve"/>
      <point x="2498" y="861" type="line"/>
      <point x="2393" y="755"/>
      <point x="2298" y="744"/>
      <point x="2263" y="744" type="qcurve" smooth="yes"/>
      <point x="2212" y="744"/>
      <point x="2040" y="819"/>
      <point x="1984" y="819" type="qcurve" smooth="yes"/>
      <point x="1926" y="819"/>
      <point x="1832" y="798"/>
      <point x="1799" y="777" type="qcurve"/>
    </contour>
  </outline>
</glyph>
<glyph name="quotesingle" format="2">
  <advance width="763"/>
  <unicode hex="0027"/>
  <outline>
    <contour>
      <point x="343" y="964" type="line"/>
      <point x="256" y="1422" type="line"/>
      <point x="256" y="1470"/>
      <point x="318" y="1558"/>
      <point x="381" y="1558" type="qcurve" smooth="yes"/>
      <point x="445" y="1558"/>
      <point x="507" y="1470"/>
      <point x="507" y="1422" type="qcurve"/>
      <point x="417" y="964" type="line"/>
    </contour>
  </outline>
</glyph>
<glyph name="asterisk" format="2">
  <advance width="1056"/>
  <unicode hex="002A"/>
  <outline>
    <contour>
      <point x="529" y="664" type="qcurve" smooth="yes"/>
      <point x="469" y="664"/>
      <point x="419" y="746"/>
      <point x="434" y="797" type="qcurve" smooth="yes"/>
      <point x="512" y="1076" type="line"/>
      <point x="509" y="1079" type="line"/>
      <point x="304" y="872" type="line" smooth="yes"/>
      <point x="274" y="841"/>
      <point x="173" y="833"/>
      <point x="142" y="888" type="qcurve" smooth="yes"/>
      <point x="109" y="942"/>
      <point x="168" y="1025"/>
      <point x="210" y="1035" type="qcurve" smooth="yes"/>
      <point x="490" y="1107" type="line"/>
      <point x="489" y="1113" type="line"/>
      <point x="210" y="1187" type="line" smooth="yes"/>
      <point x="168" y="1197"/>
      <point x="109" y="1280"/>
      <point x="142" y="1335" type="qcurve" smooth="yes"/>
      <point x="173" y="1389"/>
      <point x="274" y="1381"/>
      <point x="304" y="1350" type="qcurve" smooth="yes"/>
      <point x="507" y="1143" type="line"/>
      <point x="511" y="1146" type="line"/>
      <point x="434" y="1426" type="line" smooth="yes"/>
      <point x="419" y="1479"/>
      <point x="471" y="1558"/>
      <point x="529" y="1558" type="qcurve" smooth="yes"/>
      <point x="588" y="1558"/>
      <point x="638" y="1476"/>
      <point x="623" y="1426" type="qcurve" smooth="yes"/>
      <point x="546" y="1146" type="line"/>
      <point x="550" y="1143" type="line"/>
      <point x="754" y="1350" type="line" smooth="yes"/>
      <point x="783" y="1381"/>
      <point x="884" y="1389"/>
      <point x="916" y="1334" type="qcurve" smooth="yes"/>
      <point x="948" y="1280"/>
      <point x="891" y="1197"/>
      <point x="847" y="1187" type="qcurve" smooth="yes"/>
      <point x="568" y="1115" type="line"/>
      <point x="569" y="1109" type="line"/>
      <point x="847" y="1034" type="line" smooth="yes"/>
      <point x="890" y="1025"/>
      <point x="948" y="942"/>
      <point x="916" y="887" type="qcurve" smooth="yes"/>
      <point x="884" y="833"/>
      <point x="783" y="841"/>
      <point x="754" y="872" type="qcurve" smooth="yes"/>
      <point x="551" y="1079" type="line"/>
      <point x="548" y="1076" type="line"/>
      <point x="623" y="797" type="line" smooth="yes"/>
      <point x="637" y="746"/>
      <point x="592" y="664"/>
    </contour>
  </outline>
</glyph>
<glyph name="plus" format="2">
  <advance width="1661"/>
  <unicode hex="002B"/>
  <outline>
    <contour>
      <point x="168" y="555" type="line"/>
      <point x="168" y="709" type="line"/>
      <point x="1493" y="709" type="line"/>
      <point x="1493" y="555" type="line"/>
    </contour>
    <contour>
      <point x="749" y="-30" type="line"/>
      <point x="749" y="1294" type="line"/>
      <point x="911" y="1294" type="line"/>
      <point x="911" y="-30" type="line"/>
    </contour>
  </outline>
</glyph>
<glyph name="comma" format="2">
  <advance width="762"/>
  <unicode hex="002C"/>
  <outline>
    <contour>
      <point x="222" y="-220" type="line"/>
      <point x="260" y="-191"/>
      <point x="365" y="-80"/>
      <point x="380" y="-13" type="qcurve"/>
      <point x="309" y="-9"/>
      <point x="236" y="63"/>
      <point x="236" y="122" type="qcurve" smooth="yes"/>
      <point x="236" y="181"/>
      <point x="318" y="267"/>
      <point x="381" y="267" type="qcurve" smooth="yes"/>
      <point x="441" y="267"/>
      <point x="526" y="191"/>
      <point x="526" y="113" type="qcurve" smooth="yes"/>
      <point x="526" y="-10"/>
      <point x="370" y="-218"/>
      <point x="272" y="-277" type="qcurve"/>
    </contour>
  </outline>
</glyph>
<glyph name="hyphen" format="2">
  <advance width="1408"/>
  <unicode hex="002D"/>
  <outline>
    <contour>
      <point x="168" y="556" type="line"/>
      <point x="168" y="708" type="line"/>
      <point x="705" y="704" type="line"/>
      <point x="1240" y="708" type="line"/>
      <point x="1240" y="556" type="line"/>
      <point x="705" y="560" type="line"/>
    </contour>
  </outline>
</glyph>
<glyph name="period" format="2">
  <advance width="692"/>
  <unicode hex="002E"/>
  <outline>
    <contour>
      <point x="201" y="122" type="qcurve" smooth="yes"/>
      <point x="201" y="181"/>
      <point x="283" y="267"/>
      <point x="346" y="267" type="qcurve" smooth="yes"/>
      <point x="410" y="267"/>
      <point x="491" y="181"/>
      <point x="491" y="122" type="qcurve" smooth="yes"/>
      <point x="491" y="65"/>
      <point x="410" y="-22"/>
      <point x="346" y="-22" type="qcurve"/>
      <point x="283" y="-22"/>
      <point x="201" y="65"/>
    </contour>
  </outline>
</glyph>
<glyph name="slash" format="2">
  <advance width="1241"/>
  <unicode hex="002F"/>
  <outline>
    <contour>
      <point x="26" y="-88" type="line"/>
      <point x="1061" y="1555" type="line"/>
      <point x="1192" y="1482" type="line"/>
      <point x="156" y="-161" type="line"/>
    </contour>
  </outline>
</glyph>
<glyph name="zero" format="2">
  <advance width="1713"/>
  <unicode hex="0030"/>
  <outline>
    <contour>
      <point x="162" y="746" type="qcurve" smooth="yes"/>
      <point x="162" y="1091"/>
      <point x="556" y="1520"/>
      <point x="858" y="1520" type="qcurve" smooth="yes"/>
      <point x="1168" y="1520"/>
      <point x="1551" y="1097"/>
      <point x="1551" y="754" type="qcurve" smooth="yes"/>
      <point x="1551" y="432"/>
      <point x="1173" y="-22"/>
      <point x="863" y="-22" type="qcurve" smooth="yes"/>
      <point x="549" y="-22"/>
      <point x="162" y="399"/>
    </contour>
    <contour>
      <point x="351" y="772" type="qcurve" smooth="yes"/>
      <point x="352" y="481"/>
      <point x="629" y="91"/>
      <point x="856" y="91" type="qcurve" smooth="yes"/>
      <point x="1100" y="91"/>
      <point x="1361" y="447"/>
      <point x="1363" y="746" type="qcurve" smooth="yes"/>
      <point x="1365" y="1027"/>
      <point x="1089" y="1390"/>
      <point x="859" y="1390" type="qcurve" smooth="yes"/>
      <point x="611" y="1390"/>
      <point x="350" y="1060"/>
    </contour>
  </outline>
</glyph>
<glyph name="one" format="2">
  <advance width="1020"/>
  <unicode hex="0031"/>
  <outline>
    <contour>
      <point x="52" y="0" type="line"/>
      <point x="52" y="94" type="line"/>
      <point x="430" y="129" type="line"/>
      <point x="430" y="754" type="line"/>
      <point x="428" y="1352" type="line"/>
      <point x="50" y="1386" type="line"/>
      <point x="50" y="1490" type="line"/>
      <point x="584" y="1513" type="line"/>
      <point x="616" y="1478" type="line"/>
      <point x="610" y="754" type="line"/>
      <point x="610" y="129" type="line"/>
      <point x="988" y="94" type="line"/>
      <point x="988" y="0" type="line"/>
    </contour>
  </outline>
</glyph>
<glyph name="two" format="2">
  <advance width="1540"/>
  <unicode hex="0032"/>
  <outline>
    <contour>
      <point x="120" y="0" type="line"/>
      <point x="120" y="124" type="line"/>
      <point x="159" y="248"/>
      <point x="432" y="498"/>
      <point x="696" y="638" type="qcurve" smooth="yes"/>
      <point x="970" y="784"/>
      <point x="1184" y="992"/>
      <point x="1184" y="1133" type="qcurve" smooth="yes"/>
      <point x="1184" y="1253"/>
      <point x="976" y="1389"/>
      <point x="796" y="1389" type="qcurve" smooth="yes"/>
      <point x="627" y="1389"/>
      <point x="307" y="1312"/>
      <point x="186" y="1206" type="qcurve"/>
      <point x="110" y="1294" type="line"/>
      <point x="177" y="1380"/>
      <point x="508" y="1520"/>
      <point x="775" y="1520" type="qcurve" smooth="yes"/>
      <point x="1034" y="1520"/>
      <point x="1380" y="1321"/>
      <point x="1380" y="1135" type="qcurve" smooth="yes"/>
      <point x="1380" y="920"/>
      <point x="955" y="630"/>
      <point x="791" y="550" type="qcurve" smooth="yes"/>
      <point x="595" y="453"/>
      <point x="293" y="265"/>
      <point x="265" y="180" type="qcurve"/>
      <point x="275" y="169" type="line"/>
      <point x="1442" y="169" type="line"/>
      <point x="1442" y="0" type="line"/>
    </contour>
  </outline>
</glyph>
<glyph name="three" format="2">
  <advance width="1568"/>
  <unicode hex="0033"/>
  <outline>
    <contour>
      <point x="92" y="143" type="qcurve"/>
      <point x="163" y="248" type="line"/>
      <point x="289" y="163"/>
      <point x="541" y="103"/>
      <point x="718" y="103" type="qcurve" smooth="yes"/>
      <point x="917" y="103"/>
      <point x="1175" y="250"/>
      <point x="1175" y="403" type="qcurve" smooth="yes"/>
      <point x="1175" y="571"/>
      <point x="802" y="728"/>
      <point x="510" y="728" type="qcurve" smooth="yes"/>
      <point x="422" y="728" type="line"/>
      <point x="384" y="829" type="line"/>
      <point x="546" y="834" type="line" smooth="yes"/>
      <point x="823" y="842"/>
      <point x="1125" y="1006"/>
      <point x="1125" y="1161" type="qcurve" smooth="yes"/>
      <point x="1125" y="1278"/>
      <point x="928" y="1403"/>
      <point x="774" y="1403" type="qcurve" smooth="yes"/>
      <point x="612" y="1403"/>
      <point x="361" y="1330"/>
      <point x="215" y="1233" type="qcurve"/>
      <point x="155" y="1340" type="line"/>
      <point x="271" y="1426"/>
      <point x="573" y="1520"/>
      <point x="761" y="1520" type="qcurve" smooth="yes"/>
      <point x="1022" y="1520"/>
      <point x="1315" y="1332"/>
      <point x="1315" y="1182" type="qcurve" smooth="yes"/>
      <point x="1315" y="1027"/>
      <point x="1090" y="835"/>
      <point x="844" y="800" type="qcurve"/>
      <point x="844" y="793" type="line"/>
      <point x="1099" y="770"/>
      <point x="1369" y="574"/>
      <point x="1369" y="398" type="qcurve" smooth="yes"/>
      <point x="1369" y="189"/>
      <point x="985" y="-22"/>
      <point x="679" y="-22" type="qcurve" smooth="yes"/>
      <point x="502" y="-22"/>
      <point x="189" y="67"/>
    </contour>
  </outline>
</glyph>
<glyph name="four" format="2">
  <advance width="1832"/>
  <unicode hex="0034"/>
  <outline>
    <contour>
      <point x="136" y="554" type="line"/>
      <point x="1208" y="1547" type="line"/>
      <point x="1306" y="1510" type="line"/>
      <point x="1340" y="1494" type="line"/>
      <point x="1334" y="491" type="line"/>
      <point x="1334" y="129" type="line"/>
      <point x="1699" y="94" type="line"/>
      <point x="1699" y="0" type="line"/>
      <point x="786" y="0" type="line"/>
      <point x="786" y="94" type="line"/>
      <point x="1155" y="129" type="line"/>
      <point x="1164" y="489" type="line"/>
      <point x="1164" y="1348" type="line"/>
      <point x="315" y="574" type="line"/>
      <point x="321" y="564" type="line"/>
      <point x="1704" y="538" type="line"/>
      <point x="1704" y="442" type="line"/>
      <point x="156" y="438" type="line"/>
    </contour>
  </outline>
</glyph>
<glyph name="five" format="2">
  <advance width="1515"/>
  <unicode hex="0035"/>
  <outline>
    <contour>
      <point x="90" y="143" type="qcurve"/>
      <point x="184" y="250" type="line"/>
      <point x="267" y="201"/>
      <point x="507" y="111"/>
      <point x="701" y="111" type="qcurve" smooth="yes"/>
      <point x="898" y="111"/>
      <point x="1173" y="272"/>
      <point x="1173" y="444" type="qcurve" smooth="yes"/>
      <point x="1173" y="613"/>
      <point x="760" y="796"/>
      <point x="357" y="796" type="qcurve" smooth="yes"/>
      <point x="245" y="796" type="line"/>
      <point x="202" y="850" type="line"/>
      <point x="270" y="1467" type="line"/>
      <point x="297" y="1500" type="line"/>
      <point x="1259" y="1500" type="line"/>
      <point x="1248" y="1321" type="line"/>
      <point x="372" y="1321" type="line"/>
      <point x="362" y="1310" type="line"/>
      <point x="310" y="905" type="line"/>
      <point x="558" y="947" type="line"/>
      <point x="909" y="947"/>
      <point x="1367" y="721"/>
      <point x="1367" y="502" type="qcurve" smooth="yes"/>
      <point x="1367" y="261"/>
      <point x="967" y="-22"/>
      <point x="697" y="-22" type="qcurve" smooth="yes"/>
      <point x="478" y="-22"/>
      <point x="175" y="63"/>
    </contour>
  </outline>
</glyph>
<glyph name="six" format="2">
  <advance width="1681"/>
  <unicode hex="0036"/>
  <outline>
    <contour>
      <point x="162" y="619" type="qcurve" smooth="yes"/>
      <point x="162" y="947"/>
      <point x="764" y="1459"/>
      <point x="1295" y="1579" type="qcurve"/>
      <point x="1331" y="1481" type="line"/>
      <point x="888" y="1374"/>
      <point x="349" y="928"/>
      <point x="349" y="616" type="qcurve" smooth="yes"/>
      <point x="349" y="376"/>
      <point x="670" y="89"/>
      <point x="912" y="89" type="qcurve" smooth="yes"/>
      <point x="1119" y="89"/>
      <point x="1343" y="290"/>
      <point x="1343" y="457" type="qcurve" smooth="yes"/>
      <point x="1343" y="625"/>
      <point x="1086" y="793"/>
      <point x="907" y="793" type="qcurve" smooth="yes"/>
      <point x="816" y="793"/>
      <point x="657" y="765"/>
      <point x="591" y="735" type="qcurve"/>
      <point x="548" y="806" type="line"/>
      <point x="622" y="867"/>
      <point x="852" y="926"/>
      <point x="953" y="926" type="qcurve" smooth="yes"/>
      <point x="1198" y="926"/>
      <point x="1542" y="686"/>
      <point x="1542" y="473" type="qcurve" smooth="yes"/>
      <point x="1542" y="258"/>
      <point x="1170" y="-22"/>
      <point x="903" y="-22" type="qcurve" smooth="yes"/>
      <point x="561" y="-22"/>
      <point x="162" y="337"/>
    </contour>
  </outline>
</glyph>
<glyph name="seven" format="2">
  <advance width="1547"/>
  <unicode hex="0037"/>
  <outline>
    <contour>
      <point x="113" y="1113" type="line"/>
      <point x="134" y="1500" type="line"/>
      <point x="1408" y="1500" type="line"/>
      <point x="1408" y="1407" type="line"/>
      <point x="928" y="625" type="line"/>
      <point x="610" y="-13" type="line"/>
      <point x="403" y="-13" type="line"/>
      <point x="403" y="60" type="line"/>
      <point x="809" y="670" type="line"/>
      <point x="1242" y="1306" type="line"/>
      <point x="1212" y="1329" type="line"/>
      <point x="270" y="1329" type="line"/>
      <point x="237" y="1113" type="line"/>
    </contour>
  </outline>
</glyph>
<glyph name="eight" format="2">
  <advance width="1672"/>
  <unicode hex="0038"/>
  <outline>
    <contour>
      <point x="130" y="392" type="qcurve" smooth="yes"/>
      <point x="130" y="584"/>
      <point x="487" y="807"/>
      <point x="685" y="876" type="qcurve"/>
      <point x="833" y="816" type="line"/>
      <point x="584" y="743"/>
      <point x="268" y="568"/>
      <point x="268" y="413" type="qcurve" smooth="yes"/>
      <point x="268" y="270"/>
      <point x="583" y="87"/>
      <point x="854" y="87" type="qcurve" smooth="yes"/>
      <point x="1080" y="87"/>
      <point x="1386" y="249"/>
      <point x="1386" y="389" type="qcurve" smooth="yes"/>
      <point x="1386" y="508"/>
      <point x="1197" y="702"/>
      <point x="912" y="786" type="qcurve" smooth="yes"/>
      <point x="600" y="880"/>
      <point x="258" y="1014"/>
      <point x="258" y="1165" type="qcurve" smooth="yes"/>
      <point x="258" y="1329"/>
      <point x="596" y="1530"/>
      <point x="851" y="1530" type="qcurve" smooth="yes"/>
      <point x="1103" y="1530"/>
      <point x="1411" y="1350"/>
      <point x="1411" y="1217" type="qcurve" smooth="yes"/>
      <point x="1411" y="1086"/>
      <point x="1162" y="893"/>
      <point x="952" y="832" type="qcurve"/>
      <point x="840" y="891" type="line"/>
      <point x="1049" y="938"/>
      <point x="1265" y="1078"/>
      <point x="1265" y="1188" type="qcurve" smooth="yes"/>
      <point x="1265" y="1292"/>
      <point x="1045" y="1420"/>
      <point x="849" y="1420" type="qcurve" smooth="yes"/>
      <point x="656" y="1420"/>
      <point x="428" y="1282"/>
      <point x="428" y="1188" type="qcurve" smooth="yes"/>
      <point x="428" y="1095"/>
      <point x="645" y="971"/>
      <point x="980" y="881" type="qcurve" smooth="yes"/>
      <point x="1310" y="793"/>
      <point x="1552" y="586"/>
      <point x="1552" y="415" type="qcurve" smooth="yes"/>
      <point x="1552" y="233"/>
      <point x="1157" y="-22"/>
      <point x="849" y="-22" type="qcurve" smooth="yes"/>
      <point x="510" y="-22"/>
      <point x="130" y="228"/>
    </contour>
  </outline>
</glyph>
<glyph name="nine" format="2">
  <advance width="1680"/>
  <unicode hex="0039"/>
  <outline>
    <contour>
      <point x="139" y="1002" type="qcurve" smooth="yes"/>
      <point x="139" y="1234"/>
      <point x="510" y="1519"/>
      <point x="796" y="1519" type="qcurve" smooth="yes"/>
      <point x="1124" y="1519"/>
      <point x="1518" y="1155"/>
      <point x="1518" y="873" type="qcurve" smooth="yes"/>
      <point x="1518" y="545"/>
      <point x="923" y="22"/>
      <point x="391" y="-87" type="qcurve"/>
      <point x="355" y="11" type="line"/>
      <point x="802" y="136"/>
      <point x="1326" y="534"/>
      <point x="1326" y="876" type="qcurve" smooth="yes"/>
      <point x="1326" y="1134"/>
      <point x="1009" y="1408"/>
      <point x="795" y="1408" type="qcurve" smooth="yes"/>
      <point x="577" y="1408"/>
      <point x="333" y="1216"/>
      <point x="333" y="1037" type="qcurve" smooth="yes"/>
      <point x="333" y="867"/>
      <point x="600" y="699"/>
      <point x="829" y="699" type="qcurve" smooth="yes"/>
      <point x="911" y="699"/>
      <point x="1037" y="720"/>
      <point x="1110" y="751" type="qcurve"/>
      <point x="1148" y="666" type="line"/>
      <point x="1073" y="616"/>
      <point x="876" y="566"/>
      <point x="753" y="566" type="qcurve" smooth="yes"/>
      <point x="474" y="566"/>
      <point x="139" y="806"/>
    </contour>
  </outline>
</glyph>
<glyph name="colon" format="2">
  <advance width="842"/>
  <unicode hex="003A"/>
  <outline>
    <contour>
      <point x="276" y="122" type="qcurve" smooth="yes"/>
      <point x="276" y="181"/>
      <point x="358" y="267"/>
      <point x="421" y="267" type="qcurve" smooth="yes"/>
      <point x="485" y="267"/>
      <point x="566" y="181"/>
      <point x="566" y="122" type="qcurve" smooth="yes"/>
      <point x="566" y="65"/>
      <point x="485" y="-22"/>
      <point x="421" y="-22" type="qcurve" smooth="yes"/>
      <point x="358" y="-22"/>
      <point x="276" y="65"/>
    </contour>
    <contour>
      <point x="276" y="893" type="qcurve" smooth="yes"/>
      <point x="276" y="951"/>
      <point x="358" y="1038"/>
      <point x="421" y="1038" type="qcurve" smooth="yes"/>
      <point x="485" y="1038"/>
      <point x="566" y="951"/>
      <point x="566" y="893" type="qcurve" smooth="yes"/>
      <point x="566" y="836"/>
      <point x="485" y="749"/>
      <point x="421" y="749" type="qcurve" smooth="yes"/>
      <point x="358" y="749"/>
      <point x="276" y="836"/>
    </contour>
  </outline>
</glyph>
<glyph name="less" format="2">
  <advance width="1552"/>
  <unicode hex="003C"/>
  <outline>
    <contour>
      <point x="257" y="634" type="qcurve"/>
      <point x="260" y="638"/>
      <point x="1047" y="1045"/>
      <point x="1124" y="1081" type="qcurve" smooth="yes"/>
      <point x="1198" y="1116"/>
      <point x="1270" y="1014"/>
      <point x="1200" y="974" type="qcurve" smooth="yes"/>
      <point x="1039" y="882"/>
      <point x="588" y="637"/>
      <point x="584" y="637" type="qcurve"/>
      <point x="588" y="637"/>
      <point x="1032" y="406"/>
      <point x="1194" y="316" type="qcurve" smooth="yes"/>
      <point x="1263" y="277"/>
      <point x="1202" y="170"/>
      <point x="1126" y="203" type="qcurve" smooth="yes"/>
      <point x="1046" y="237"/>
      <point x="259" y="630"/>
    </contour>
  </outline>
</glyph>
<glyph name="equal" format="2">
  <advance width="1658"/>
  <unicode hex="003D"/>
  <outline>
    <contour>
      <point x="170" y="333" type="line"/>
      <point x="170" y="507" type="line"/>
      <point x="825" y="503" type="line"/>
      <point x="1488" y="507" type="line"/>
      <point x="1488" y="333" type="line"/>
      <point x="825" y="337" type="line"/>
    </contour>
    <contour>
      <point x="170" y="735" type="line"/>
      <point x="170" y="909" type="line"/>
      <point x="825" y="905" type="line"/>
      <point x="1488" y="909" type="line"/>
      <point x="1488" y="735" type="line"/>
      <point x="825" y="739" type="line"/>
    </contour>
  </outline>
</glyph>
<glyph name="greater" format="2">
  <advance width="1380"/>
  <unicode hex="003E"/>
  <outline>
    <contour>
      <point x="290" y="281" type="qcurve" smooth="yes"/>
      <point x="444" y="383"/>
      <point x="844" y="623"/>
      <point x="848" y="623" type="qcurve"/>
      <point x="844" y="623"/>
      <point x="448" y="850"/>
      <point x="295" y="950" type="qcurve" smooth="yes"/>
      <point x="229" y="994"/>
      <point x="297" y="1095"/>
      <point x="370" y="1057" type="qcurve" smooth="yes"/>
      <point x="446" y="1018"/>
      <point x="1156" y="630"/>
      <point x="1158" y="626" type="qcurve"/>
      <point x="1155" y="622"/>
      <point x="446" y="219"/>
      <point x="372" y="179" type="qcurve" smooth="yes"/>
      <point x="301" y="140"/>
      <point x="224" y="238"/>
    </contour>
  </outline>
</glyph>
<glyph name="question" format="2">
  <advance width="1458"/>
  <unicode hex="003F"/>
  <outline>
    <contour>
      <point x="422" y="122" type="qcurve" smooth="yes"/>
      <point x="422" y="181"/>
      <point x="504" y="267"/>
      <point x="567" y="267" type="qcurve" smooth="yes"/>
      <point x="631" y="267"/>
      <point x="712" y="181"/>
      <point x="712" y="122" type="qcurve" smooth="yes"/>
      <point x="712" y="65"/>
      <point x="631" y="-22"/>
      <point x="567" y="-22" type="qcurve" smooth="yes"/>
      <point x="504" y="-22"/>
      <point x="422" y="65"/>
    </contour>
    <contour>
      <point x="121" y="1233" type="qcurve" smooth="yes"/>
      <point x="121" y="1376"/>
      <point x="414" y="1540"/>
      <point x="673" y="1540" type="qcurve" smooth="yes"/>
      <point x="923" y="1540"/>
      <point x="1235" y="1348"/>
      <point x="1235" y="1163" type="qcurve" smooth="yes"/>
      <point x="1235" y="970"/>
      <point x="1002" y="808"/>
      <point x="832" y="732" type="qcurve" smooth="yes"/>
      <point x="733" y="686"/>
      <point x="603" y="604"/>
      <point x="604" y="523" type="qcurve" smooth="yes"/>
      <point x="604" y="436" type="line"/>
      <point x="504" y="436" type="line"/>
      <point x="489" y="520" type="line" smooth="yes"/>
      <point x="476" y="595"/>
      <point x="566" y="755"/>
      <point x="717" y="826" type="qcurve" smooth="yes"/>
      <point x="850" y="888"/>
      <point x="1044" y="1000"/>
      <point x="1044" y="1141" type="qcurve" smooth="yes"/>
      <point x="1044" y="1276"/>
      <point x="818" y="1429"/>
      <point x="635" y="1429" type="qcurve" smooth="yes"/>
      <point x="461" y="1429"/>
      <point x="267" y="1342"/>
      <point x="267" y="1289" type="qcurve" smooth="yes"/>
      <point x="267" y="1260"/>
      <point x="388" y="1204"/>
      <point x="390" y="1154" type="qcurve" smooth="yes"/>
      <point x="393" y="1114"/>
      <point x="332" y="1050"/>
      <point x="271" y="1050" type="qcurve" smooth="yes"/>
      <point x="205" y="1050"/>
      <point x="121" y="1143"/>
    </contour>
  </outline>
</glyph>
<glyph name="at" format="2">
  <advance width="2640"/>
  <unicode hex="0040"/>
  <outline>
    <contour>
      <point x="168" y="725" type="qcurve" smooth="yes"/>
      <point x="168" y="1058"/>
      <point x="789" y="1520"/>
      <point x="1313" y="1520" type="qcurve" smooth="yes"/>
      <point x="1805" y="1520"/>
      <point x="2437" y="1157"/>
      <point x="2437" y="863" type="qcurve" smooth="yes"/>
      <point x="2437" y="630"/>
      <point x="2278" y="349"/>
      <point x="1981" y="349" type="qcurve" smooth="yes"/>
      <point x="1890" y="349"/>
      <point x="1777" y="411"/>
      <point x="1756" y="461" type="qcurve"/>
      <point x="1673" y="400"/>
      <point x="1352" y="317"/>
      <point x="1184" y="317" type="qcurve" smooth="yes"/>
      <point x="983" y="317"/>
      <point x="737" y="453"/>
      <point x="737" y="544" type="qcurve" smooth="yes"/>
      <point x="737" y="662"/>
      <point x="1200" y="867"/>
      <point x="1795" y="871" type="qcurve"/>
      <point x="1808" y="790" type="line"/>
      <point x="1390" y="780"/>
      <point x="902" y="667"/>
      <point x="902" y="561" type="qcurve" smooth="yes"/>
      <point x="902" y="504"/>
      <point x="1097" y="437"/>
      <point x="1218" y="437" type="qcurve" smooth="yes"/>
      <point x="1361" y="437"/>
      <point x="1660" y="515"/>
      <point x="1723" y="557" type="qcurve"/>
      <point x="1728" y="863" type="line" smooth="yes"/>
      <point x="1731" y="1010"/>
      <point x="1503" y="1112"/>
      <point x="1303" y="1112" type="qcurve" smooth="yes"/>
      <point x="1134" y="1112"/>
      <point x="984" y="1068"/>
      <point x="967" y="1046" type="qcurve"/>
      <point x="986" y="1027"/>
      <point x="1009" y="987"/>
      <point x="1011" y="970" type="qcurve" smooth="yes"/>
      <point x="1018" y="934"/>
      <point x="976" y="884"/>
      <point x="937" y="884" type="qcurve" smooth="yes"/>
      <point x="896" y="884"/>
      <point x="847" y="954"/>
      <point x="847" y="1012" type="qcurve" smooth="yes"/>
      <point x="847" y="1111"/>
      <point x="1119" y="1213"/>
      <point x="1349" y="1213" type="qcurve" smooth="yes"/>
      <point x="1647" y="1213"/>
      <point x="1878" y="1042"/>
      <point x="1878" y="854" type="qcurve" smooth="yes"/>
      <point x="1884" y="521" type="line" smooth="yes"/>
      <point x="1884" y="489"/>
      <point x="1936" y="460"/>
      <point x="1990" y="460" type="qcurve"/>
      <point x="2193" y="460"/>
      <point x="2296" y="667"/>
      <point x="2296" y="858" type="qcurve" smooth="yes"/>
      <point x="2296" y="1092"/>
      <point x="1784" y="1384"/>
      <point x="1312" y="1384" type="qcurve" smooth="yes"/>
      <point x="835" y="1384"/>
      <point x="316" y="1023"/>
      <point x="316" y="737" type="qcurve" smooth="yes"/>
      <point x="316" y="471"/>
      <point x="870" y="99"/>
      <point x="1311" y="99" type="qcurve" smooth="yes"/>
      <point x="1525" y="99"/>
      <point x="1799" y="163"/>
      <point x="1869" y="195" type="qcurve"/>
      <point x="1932" y="108" type="line"/>
      <point x="1848" y="57"/>
      <point x="1530" y="-30"/>
      <point x="1306" y="-30" type="qcurve" smooth="yes"/>
      <point x="818" y="-30"/>
      <point x="168" y="399"/>
    </contour>
  </outline>
</glyph>
<glyph name="A" format="2">
  <advance width="2084"/>
  <unicode hex="0041"/>
  <anchor x="1038" y="0" name="bottom"/>
  <anchor x="1869" y="0" name="ogonek"/>
  <anchor x="794" y="1500" name="tonos"/>
  <anchor x="1056" y="1500" name="top"/>
  <outline>
    <contour>
      <point x="23" y="0" type="line"/>
      <point x="23" y="100" type="line"/>
      <point x="251" y="135" type="line"/>
      <point x="481" y="558" type="line"/>
      <point x="991" y="1508" type="line"/>
      <point x="1117" y="1508" type="line"/>
      <point x="1612" y="570" type="line"/>
      <point x="1843" y="135" type="line"/>
      <point x="2061" y="100" type="line"/>
      <point x="2061" y="0" type="line"/>
      <point x="1423" y="0" type="line"/>
      <point x="1423" y="100" type="line"/>
      <point x="1642" y="131" type="line"/>
      <point x="1444" y="506" type="line"/>
      <point x="1092" y="1159" type="line"/>
      <point x="1032" y="1275" type="line"/>
      <point x="1015" y="1275" type="line"/>
      <point x="953" y="1159" type="line"/>
      <point x="600" y="500" type="line"/>
      <point x="402" y="130" type="line"/>
      <point x="619" y="100" type="line"/>
      <point x="619" y="0" type="line"/>
    </contour>
    <contour>
      <point x="1043" y="552" type="line"/>
      <point x="1475" y="568" type="line"/>
      <point x="1550" y="448" type="line"/>
      <point x="1043" y="448" type="line"/>
    </contour>
    <contour>
      <point x="536" y="448" type="line"/>
      <point x="613" y="567" type="line"/>
      <point x="1043" y="552" type="line"/>
      <point x="1043" y="448" type="line"/>
    </contour>
  </outline>
</glyph>
<glyph name="B" format="2">
  <advance width="1700"/>
  <unicode hex="0042"/>
  <anchor x="839" y="0" name="bottom"/>
  <anchor x="839" y="1500" name="top"/>
  <outline>
    <contour>
      <point x="130" y="0" type="line"/>
      <point x="130" y="100" type="line"/>
      <point x="378" y="136" type="line"/>
      <point x="382" y="784" type="line"/>
      <point x="378" y="1352" type="line"/>
      <point x="130" y="1386" type="line"/>
      <point x="130" y="1500" type="line"/>
      <point x="882" y="1500" type="line" smooth="yes"/>
      <point x="1154" y="1500"/>
      <point x="1412" y="1315"/>
      <point x="1412" y="1172" type="qcurve" smooth="yes"/>
      <point x="1412" y="1037"/>
      <point x="1270" y="854"/>
      <point x="1144" y="831" type="qcurve"/>
      <point x="1144" y="821" type="line"/>
      <point x="1311" y="796"/>
      <point x="1546" y="601"/>
      <point x="1546" y="433" type="qcurve" smooth="yes"/>
      <point x="1546" y="246"/>
      <point x="1206" y="0"/>
      <point x="905" y="0" type="qcurve" smooth="yes"/>
    </contour>
    <contour>
      <point x="562" y="135" type="line"/>
      <point x="595" y="115" type="line"/>
      <point x="821" y="115" type="line" smooth="yes"/>
      <point x="1095" y="115"/>
      <point x="1356" y="271"/>
      <point x="1356" y="440" type="qcurve" smooth="yes"/>
      <point x="1356" y="584"/>
      <point x="1129" y="738"/>
      <point x="919" y="738" type="qcurve" smooth="yes"/>
      <point x="571" y="738" type="line"/>
      <point x="562" y="724" type="line"/>
    </contour>
    <contour>
      <point x="561" y="866" type="line"/>
      <point x="570" y="852" type="line"/>
      <point x="806" y="852" type="line" smooth="yes"/>
      <point x="1014" y="852"/>
      <point x="1228" y="991"/>
      <point x="1228" y="1129" type="qcurve" smooth="yes"/>
      <point x="1228" y="1255"/>
      <point x="1020" y="1370"/>
      <point x="820" y="1370" type="qcurve" smooth="yes"/>
      <point x="593" y="1370" type="line"/>
      <point x="564" y="1352" type="line"/>
    </contour>
  </outline>
</glyph>
<glyph name="C" format="2">
  <advance width="2030"/>
  <unicode hex="0043"/>
  <anchor x="1075" y="0" name="bottom"/>
  <anchor x="1076" y="1500" name="top"/>
  <outline>
    <contour>
      <point x="168" y="728" type="qcurve" smooth="yes"/>
      <point x="168" y="1062"/>
      <point x="670" y="1520"/>
      <point x="1098" y="1520" type="qcurve" smooth="yes"/>
      <point x="1269" y="1520"/>
      <point x="1524" y="1458"/>
      <point x="1593" y="1422" type="qcurve"/>
      <point x="1637" y="1500" type="line"/>
      <point x="1742" y="1500" type="line"/>
      <point x="1742" y="1031" type="line"/>
      <point x="1612" y="1031" type="line"/>
      <point x="1563" y="1199" type="line" smooth="yes"/>
      <point x="1534" y="1296"/>
      <point x="1310" y="1392"/>
      <point x="1140" y="1392" type="qcurve" smooth="yes"/>
      <point x="787" y="1392"/>
      <point x="357" y="1060"/>
      <point x="361" y="740" type="qcurve" smooth="yes"/>
      <point x="363" y="442"/>
      <point x="776" y="114"/>
      <point x="1121" y="114" type="qcurve" smooth="yes"/>
      <point x="1375" y="114"/>
      <point x="1689" y="235"/>
      <point x="1776" y="328" type="qcurve"/>
      <point x="1902" y="245" type="line"/>
      <point x="1764" y="110"/>
      <point x="1356" y="-30"/>
      <point x="1126" y="-30" type="qcurve" smooth="yes"/>
      <point x="680" y="-30"/>
      <point x="168" y="371"/>
    </contour>
  </outline>
</glyph>
<glyph name="E" format="2">
  <advance width="1786"/>
  <unicode hex="0045"/>
  <anchor x="842" y="0" name="bottom"/>
  <anchor x="1410" y="0" name="ogonek"/>
  <anchor x="921" y="1500" name="top"/>
  <anchor x="89" y="1500" name="tonos"/>
  <outline>
    <contour>
      <point x="130" y="0" type="line"/>
      <point x="130" y="100" type="line"/>
      <point x="378" y="137" type="line"/>
      <point x="380" y="783" type="line"/>
      <point x="378" y="1352" type="line"/>
      <point x="130" y="1386" type="line"/>
      <point x="130" y="1500" type="line"/>
      <point x="1552" y="1500" type="line"/>
      <point x="1552" y="1270" type="line"/>
      <point x="1408" y="1270" type="line"/>
      <point x="1391" y="1382" type="line"/>
      <point x="590" y="1382" type="line"/>
      <point x="561" y="1362" type="line"/>
      <point x="559" y="783" type="line"/>
      <point x="561" y="132" type="line"/>
      <point x="591" y="108" type="line"/>
      <point x="1454" y="108" type="line"/>
      <point x="1491" y="239" type="line"/>
      <point x="1641" y="239" type="line"/>
      <point x="1616" y="0" type="line"/>
    </contour>
    <contour>
      <point x="473" y="738" type="line"/>
      <point x="473" y="834" type="line"/>
      <point x="1245" y="844" type="line"/>
      <point x="1262" y="922" type="line"/>
      <point x="1406" y="922" type="line"/>
      <point x="1406" y="650" type="line"/>
      <point x="1262" y="650" type="line"/>
      <point x="1245" y="728" type="line"/>
    </contour>
  </outline>
</glyph>
<glyph name="G" format="2">
  <advance width="2226"/>
  <unicode hex="0047"/>
  <anchor x="1112" y="0" name="bottom"/>
  <anchor x="1076" y="1500" name="top"/>
  <outline>
    <contour>
      <point x="168" y="744" type="qcurve" smooth="yes"/>
      <point x="168" y="1069"/>
      <point x="758" y="1520"/>
      <point x="1193" y="1520" type="qcurve" smooth="yes"/>
      <point x="1399" y="1520"/>
      <point x="1678" y="1458"/>
      <point x="1743" y="1427" type="qcurve"/>
      <point x="1779" y="1500" type="line"/>
      <point x="1897" y="1500" type="line"/>
      <point x="1897" y="1041" type="line"/>
      <point x="1767" y="1041" type="line"/>
      <point x="1711" y="1189" type="line" smooth="yes"/>
      <point x="1673" y="1289"/>
      <point x="1418" y="1384"/>
      <point x="1218" y="1384" type="qcurve" smooth="yes"/>
      <point x="821" y="1384"/>
      <point x="359" y="1058"/>
      <point x="363" y="768" type="qcurve" smooth="yes"/>
      <point x="365" y="475"/>
      <point x="849" y="95"/>
      <point x="1271" y="95" type="qcurve" smooth="yes"/>
      <point x="1444" y="95"/>
      <point x="1729" y="164"/>
      <point x="1836" y="226" type="qcurve"/>
      <point x="1836" y="523" type="line"/>
      <point x="1597" y="558" type="line"/>
      <point x="1597" y="658" type="line"/>
      <point x="2182" y="658" type="line"/>
      <point x="2182" y="558" type="line"/>
      <point x="2011" y="523" type="line"/>
      <point x="2011" y="219" type="line"/>
      <point x="1903" y="129"/>
      <point x="1510" y="-30"/>
      <point x="1248" y="-30" type="qcurve" smooth="yes"/>
      <point x="772" y="-30"/>
      <point x="168" y="394"/>
    </contour>
  </outline>
</glyph>
<glyph name="L" format="2">
  <advance width="1765"/>
  <unicode hex="004C"/>
  <anchor x="969" y="0" name="bottom"/>
  <anchor x="1192" y="750" name="centerright"/>
  <anchor x="897" y="1500" name="top"/>
  <anchor x="1048" y="1001" name="topright"/>
  <anchor x="468" y="750" name="center"/>
  <outline>
    <contour>
      <point x="130" y="0" type="line"/>
      <point x="130" y="100" type="line"/>
      <point x="378" y="132" type="line"/>
      <point x="380" y="754" type="line"/>
      <point x="378" y="1352" type="line"/>
      <point x="130" y="1386" type="line"/>
      <point x="130" y="1500" type="line"/>
      <point x="833" y="1500" type="line"/>
      <point x="833" y="1386" type="line"/>
      <point x="562" y="1352" type="line"/>
      <point x="560" y="754" type="line"/>
      <point x="562" y="135" type="line"/>
      <point x="602" y="108" type="line"/>
      <point x="1460" y="108" type="line"/>
      <point x="1546" y="418" type="line"/>
      <point x="1682" y="418" type="line"/>
      <point x="1631" y="0" type="line"/>
    </contour>
  </outline>
</glyph>
<glyph name="M" format="2">
  <advance width="2893"/>
  <unicode hex="004D"/>
  <anchor x="1425" y="0" name="bottom"/>
  <anchor x="1458" y="1500" name="top"/>
  <outline>
    <contour>
      <point x="130" y="0" type="line"/>
      <point x="130" y="100" type="line"/>
      <point x="378" y="135" type="line"/>
      <point x="380" y="754" type="line"/>
      <point x="378" y="1352" type="line"/>
      <point x="130" y="1386" type="line"/>
      <point x="130" y="1500" type="line"/>
      <point x="605" y="1500" type="line"/>
      <point x="1041" y="808" type="line"/>
      <point x="1395" y="211" type="line"/>
      <point x="1458" y="97" type="line"/>
      <point x="1468" y="97" type="line"/>
      <point x="1533" y="211" type="line"/>
      <point x="1869" y="803" type="line"/>
      <point x="2282" y="1500" type="line"/>
      <point x="2763" y="1500" type="line"/>
      <point x="2763" y="1386" type="line"/>
      <point x="2515" y="1352" type="line"/>
      <point x="2511" y="754" type="line"/>
      <point x="2515" y="135" type="line"/>
      <point x="2763" y="100" type="line"/>
      <point x="2763" y="0" type="line"/>
      <point x="2053" y="0" type="line"/>
      <point x="2053" y="100" type="line"/>
      <point x="2331" y="135" type="line"/>
      <point x="2333" y="754" type="line"/>
      <point x="2331" y="1210" type="line"/>
      <point x="2335" y="1329" type="line"/>
      <point x="2325" y="1331" type="line"/>
      <point x="2266" y="1224" type="line"/>
      <point x="1977" y="748" type="line"/>
      <point x="1503" y="-8" type="line"/>
      <point x="1318" y="-8" type="line"/>
      <point x="857" y="741" type="line"/>
      <point x="565" y="1227" type="line"/>
      <point x="504" y="1334" type="line"/>
      <point x="494" y="1330" type="line"/>
      <point x="499" y="1213" type="line"/>
      <point x="499" y="754" type="line"/>
      <point x="501" y="135" type="line"/>
      <point x="759" y="100" type="line"/>
      <point x="759" y="0" type="line"/>
    </contour>
  </outline>
</glyph>
<glyph name="N" format="2">
  <advance width="2161"/>
  <unicode hex="004E"/>
  <anchor x="1049" y="0" name="bottom"/>
  <anchor x="1050" y="1500" name="top"/>
  <outline>
    <contour>
      <point x="130" y="0" type="line"/>
      <point x="130" y="100" type="line"/>
      <point x="378" y="135" type="line"/>
      <point x="380" y="754" type="line"/>
      <point x="378" y="1352" type="line"/>
      <point x="130" y="1386" type="line"/>
      <point x="130" y="1500" type="line"/>
      <point x="601" y="1500" type="line"/>
      <point x="1169" y="871" type="line"/>
      <point x="1598" y="345" type="line"/>
      <point x="1679" y="239" type="line"/>
      <point x="1688" y="242" type="line"/>
      <point x="1684" y="363" type="line"/>
      <point x="1685" y="754" type="line"/>
      <point x="1683" y="1352" type="line"/>
      <point x="1415" y="1386" type="line"/>
      <point x="1415" y="1500" type="line"/>
      <point x="2051" y="1500" type="line"/>
      <point x="2051" y="1386" type="line"/>
      <point x="1803" y="1352" type="line"/>
      <point x="1801" y="754" type="line"/>
      <point x="1797" y="0" type="line"/>
      <point x="1670" y="0" type="line"/>
      <point x="1051" y="734" type="line"/>
      <point x="585" y="1284" type="line"/>
      <point x="500" y="1392" type="line"/>
      <point x="491" y="1389" type="line"/>
      <point x="498" y="1269" type="line"/>
      <point x="496" y="754" type="line"/>
      <point x="498" y="135" type="line"/>
      <point x="756" y="100" type="line"/>
      <point x="756" y="0" type="line"/>
    </contour>
  </outline>
</glyph>
<glyph name="O" format="2">
  <advance width="2273"/>
  <unicode hex="004F"/>
  <anchor x="1136" y="0" name="bottom"/>
  <anchor x="1136" y="750" name="center"/>
  <anchor x="1423" y="0" name="ogonek"/>
  <anchor x="1136" y="1500" name="top"/>
  <anchor x="1369" y="1500" name="topright"/>
  <anchor x="264" y="1500" name="tonos"/>
  <outline>
    <contour>
      <point x="168" y="737" type="qcurve" smooth="yes"/>
      <point x="168" y="1068"/>
      <point x="702" y="1520"/>
      <point x="1136" y="1520" type="qcurve" smooth="yes"/>
      <point x="1571" y="1520"/>
      <point x="2105" y="1097"/>
      <point x="2105" y="752" type="qcurve" smooth="yes"/>
      <point x="2105" y="423"/>
      <point x="1575" y="-31"/>
      <point x="1140" y="-31" type="qcurve" smooth="yes"/>
      <point x="714" y="-31"/>
      <point x="168" y="396"/>
    </contour>
    <contour>
      <point x="363" y="771" type="qcurve" smooth="yes"/>
      <point x="363" y="478"/>
      <point x="795" y="101"/>
      <point x="1138" y="101" type="qcurve" smooth="yes"/>
      <point x="1516" y="101"/>
      <point x="1910" y="436"/>
      <point x="1910" y="745" type="qcurve" smooth="yes"/>
      <point x="1910" y="1020"/>
      <point x="1487" y="1380"/>
      <point x="1138" y="1380" type="qcurve" smooth="yes"/>
      <point x="761" y="1380"/>
      <point x="363" y="1053"/>
    </contour>
  </outline>
</glyph>
<glyph name="P" format="2">
  <advance width="1714"/>
  <unicode hex="0050"/>
  <anchor x="733" y="0" name="bottom"/>
  <anchor x="876" y="1500" name="top"/>
  <outline>
    <contour>
      <point x="130" y="0" type="line"/>
      <point x="130" y="100" type="line"/>
      <point x="378" y="137" type="line"/>
      <point x="380" y="754" type="line"/>
      <point x="378" y="1352" type="line"/>
      <point x="130" y="1386" type="line"/>
      <point x="130" y="1500" type="line"/>
      <point x="944" y="1500" type="line" smooth="yes"/>
      <point x="1254" y="1500"/>
      <point x="1576" y="1284"/>
      <point x="1576" y="1072" type="qcurve" smooth="yes"/>
      <point x="1576" y="866"/>
      <point x="1231" y="599"/>
      <point x="921" y="599" type="qcurve" smooth="yes"/>
      <point x="758" y="599"/>
      <point x="509" y="620"/>
      <point x="439" y="628" type="qcurve"/>
      <point x="454" y="734" type="line"/>
      <point x="541" y="721"/>
      <point x="709" y="712"/>
      <point x="861" y="712" type="qcurve" smooth="yes"/>
      <point x="1113" y="712"/>
      <point x="1377" y="903"/>
      <point x="1377" y="1072" type="qcurve" smooth="yes"/>
      <point x="1377" y="1227"/>
      <point x="1125" y="1382"/>
      <point x="889" y="1382" type="qcurve" smooth="yes"/>
      <point x="595" y="1382" type="line"/>
      <point x="563" y="1360" type="line"/>
      <point x="558" y="764" type="line"/>
      <point x="560" y="132" type="line"/>
      <point x="938" y="100" type="line"/>
      <point x="938" y="0" type="line"/>
    </contour>
  </outline>
</glyph>
<glyph name="Q" format="2">
  <advance width="2273"/>
  <unicode hex="0051"/>
  <anchor x="1136" y="0" name="bottom"/>
  <anchor x="1166" y="1493" name="top"/>
  <outline>
    <contour>
      <point x="168" y="746" type="qcurve" smooth="yes"/>
      <point x="168" y="1068"/>
      <point x="699" y="1520"/>
      <point x="1136" y="1520" type="qcurve" smooth="yes"/>
      <point x="1599" y="1520"/>
      <point x="2105" y="1097"/>
      <point x="2105" y="754" type="qcurve" smooth="yes"/>
      <point x="2105" y="404"/>
      <point x="1578" y="-20"/>
      <point x="1136" y="-20" type="qcurve" smooth="yes"/>
      <point x="682" y="-20"/>
      <point x="168" y="419"/>
    </contour>
    <contour>
      <point x="363" y="772" type="qcurve" smooth="yes"/>
      <point x="365" y="486"/>
      <point x="789" y="96"/>
      <point x="1134" y="96" type="qcurve" smooth="yes"/>
      <point x="1506" y="96"/>
      <point x="1908" y="453"/>
      <point x="1910" y="747" type="qcurve" smooth="yes"/>
      <point x="1912" y="1023"/>
      <point x="1487" y="1380"/>
      <point x="1138" y="1380" type="qcurve" smooth="yes"/>
      <point x="763" y="1380"/>
      <point x="361" y="1056"/>
    </contour>
    <contour>
      <point x="719" y="-37" type="qcurve" identifier="jWZBD98qkQ"/>
      <point x="1792" y="-273" type="line" identifier="7ZXZEQkAbx"/>
      <point x="1852" y="-273"/>
      <point x="1944" y="-185"/>
      <point x="1977" y="-131" type="qcurve"/>
      <point x="2067" y="-183" type="line"/>
      <point x="2016" y="-288"/>
      <point x="1872" y="-430"/>
      <point x="1740" y="-430" type="qcurve" identifier="bSft9tBggp"/>
      <point x="685" y="-195" type="line" identifier="aDYWDNvZlZ"/>
      <point x="624" y="-195"/>
      <point x="508" y="-237"/>
      <point x="451" y="-289" type="qcurve"/>
      <point x="383" y="-224" type="line"/>
      <point x="444" y="-131"/>
      <point x="622" y="-37"/>
    </contour>
    <contour>
      <point x="752" y="-96" type="line"/>
      <point x="1000" y="326" type="line"/>
      <point x="1120" y="281" type="line"/>
      <point x="868" y="-133" type="line"/>
    </contour>
  </outline>
</glyph>
<glyph name="R" format="2">
  <advance width="1780"/>
  <unicode hex="0052"/>
  <anchor x="895" y="0" name="bottom"/>
  <anchor x="866" y="1500" name="top"/>
  <outline>
    <contour>
      <point x="130" y="0" type="line"/>
      <point x="130" y="100" type="line"/>
      <point x="378" y="136" type="line"/>
      <point x="380" y="794" type="line"/>
      <point x="378" y="1352" type="line"/>
      <point x="132" y="1386" type="line"/>
      <point x="132" y="1500" type="line"/>
      <point x="937" y="1500" type="line" smooth="yes"/>
      <point x="1205" y="1500"/>
      <point x="1462" y="1315"/>
      <point x="1462" y="1149" type="qcurve" smooth="yes"/>
      <point x="1462" y="966"/>
      <point x="1147" y="736"/>
      <point x="935" y="736" type="qcurve" smooth="yes"/>
      <point x="842" y="736"/>
      <point x="550" y="746"/>
      <point x="472" y="750" type="qcurve"/>
      <point x="472" y="845" type="line"/>
      <point x="821" y="845" type="line" smooth="yes"/>
      <point x="1051" y="845"/>
      <point x="1261" y="1005"/>
      <point x="1261" y="1137" type="qcurve" smooth="yes"/>
      <point x="1261" y="1253"/>
      <point x="1079" y="1382"/>
      <point x="876" y="1382" type="qcurve" smooth="yes"/>
      <point x="593" y="1382" type="line"/>
      <point x="564" y="1364" type="line"/>
      <point x="560" y="794" type="line"/>
      <point x="562" y="136" type="line"/>
      <point x="818" y="100" type="line"/>
      <point x="818" y="0" type="line"/>
    </contour>
    <contour>
      <point x="820" y="750" type="line"/>
      <point x="977" y="837" type="line"/>
      <point x="1370" y="315" type="line" smooth="yes"/>
      <point x="1489" y="154"/>
      <point x="1690" y="101"/>
      <point x="1788" y="100" type="qcurve"/>
      <point x="1788" y="0" type="line"/>
      <point x="1430" y="0" type="line"/>
      <point x="1389" y="20" type="line"/>
    </contour>
  </outline>
</glyph>
<glyph name="S" format="2">
  <advance width="1609"/>
  <unicode hex="0053"/>
  <anchor x="839" y="0" name="bottom"/>
  <anchor x="783" y="1500" name="top"/>
  <outline>
    <contour>
      <point x="145" y="0" type="line"/>
      <point x="145" y="484" type="line"/>
      <point x="277" y="484" type="line"/>
      <point x="306" y="379" type="line" smooth="yes"/>
      <point x="348" y="234"/>
      <point x="659" y="102"/>
      <point x="868" y="102" type="qcurve" smooth="yes"/>
      <point x="1096" y="102"/>
      <point x="1316" y="253"/>
      <point x="1316" y="369" type="qcurve" smooth="yes"/>
      <point x="1316" y="512"/>
      <point x="1026" y="654"/>
      <point x="737" y="728" type="qcurve" smooth="yes"/>
      <point x="498" y="788"/>
      <point x="242" y="975"/>
      <point x="242" y="1132" type="qcurve" smooth="yes"/>
      <point x="242" y="1296"/>
      <point x="531" y="1520"/>
      <point x="765" y="1520" type="qcurve" smooth="yes"/>
      <point x="897" y="1520"/>
      <point x="1131" y="1461"/>
      <point x="1205" y="1421" type="qcurve"/>
      <point x="1236" y="1487" type="line"/>
      <point x="1350" y="1487" type="line"/>
      <point x="1350" y="1051" type="line"/>
      <point x="1220" y="1051" type="line"/>
      <point x="1186" y="1203" type="line" smooth="yes"/>
      <point x="1165" y="1289"/>
      <point x="941" y="1386"/>
      <point x="770" y="1386" type="qcurve" smooth="yes"/>
      <point x="604" y="1386"/>
      <point x="405" y="1270"/>
      <point x="405" y="1173" type="qcurve" smooth="yes"/>
      <point x="405" y="1081"/>
      <point x="608" y="951"/>
      <point x="911" y="874" type="qcurve" smooth="yes"/>
      <point x="1158" y="812"/>
      <point x="1482" y="601"/>
      <point x="1482" y="419" type="qcurve" smooth="yes"/>
      <point x="1482" y="225"/>
      <point x="1160" y="-20"/>
      <point x="889" y="-20" type="qcurve" smooth="yes"/>
      <point x="701" y="-20"/>
      <point x="415" y="52"/>
      <point x="327" y="113" type="qcurve"/>
      <point x="258" y="0" type="line"/>
    </contour>
  </outline>
</glyph>
<glyph name="T" format="2">
  <advance width="1960"/>
  <unicode hex="0054"/>
  <anchor x="980" y="0" name="bottom"/>
  <anchor x="980" y="750" name="center"/>
  <anchor x="980" y="1500" name="top"/>
  <outline>
    <contour>
      <point x="123" y="1052" type="line"/>
      <point x="123" y="1500" type="line"/>
      <point x="1837" y="1500" type="line"/>
      <point x="1837" y="1051" type="line"/>
      <point x="1711" y="1051" type="line"/>
      <point x="1676" y="1382" type="line"/>
      <point x="1091" y="1382" type="line"/>
      <point x="1072" y="1362" type="line"/>
      <point x="1070" y="754" type="line"/>
      <point x="1072" y="136" type="line"/>
      <point x="1329" y="100" type="line"/>
      <point x="1329" y="0" type="line"/>
      <point x="629" y="0" type="line"/>
      <point x="629" y="100" type="line"/>
      <point x="888" y="136" type="line"/>
      <point x="890" y="754" type="line"/>
      <point x="888" y="1362" type="line"/>
      <point x="879" y="1382" type="line"/>
      <point x="284" y="1382" type="line"/>
      <point x="249" y="1052" type="line"/>
    </contour>
  </outline>
</glyph>
<glyph name="U" format="2">
  <advance width="2166"/>
  <unicode hex="0055"/>
  <anchor x="1116" y="0" name="bottom"/>
  <anchor x="1381" y="0" name="ogonek"/>
  <anchor x="1116" y="1500" name="top"/>
  <anchor x="2104" y="1500" name="topright"/>
  <outline>
    <contour>
      <point x="112" y="1386" type="line"/>
      <point x="112" y="1500" type="line"/>
      <point x="782" y="1500" type="line"/>
      <point x="782" y="1386" type="line"/>
      <point x="535" y="1352" type="line"/>
      <point x="528" y="794" type="line"/>
      <point x="534" y="474" type="line" smooth="yes"/>
      <point x="536" y="282"/>
      <point x="869" y="114"/>
      <point x="1134" y="114" type="qcurve" smooth="yes"/>
      <point x="1373" y="114"/>
      <point x="1715" y="297"/>
      <point x="1716" y="494" type="qcurve" smooth="yes"/>
      <point x="1719" y="794" type="line"/>
      <point x="1716" y="1352" type="line"/>
      <point x="1458" y="1386" type="line"/>
      <point x="1458" y="1500" type="line"/>
      <point x="2104" y="1500" type="line"/>
      <point x="2104" y="1386" type="line"/>
      <point x="1856" y="1352" type="line"/>
      <point x="1854" y="794" type="line"/>
      <point x="1857" y="493" type="line" smooth="yes"/>
      <point x="1860" y="233"/>
      <point x="1437" y="-31"/>
      <point x="1109" y="-31" type="qcurve" smooth="yes"/>
      <point x="769" y="-31"/>
      <point x="348" y="242"/>
      <point x="350" y="481" type="qcurve" smooth="yes"/>
      <point x="352" y="794" type="line"/>
      <point x="350" y="1352" type="line"/>
    </contour>
  </outline>
</glyph>
<glyph name="V" format="2">
  <advance width="1999"/>
  <unicode hex="0056"/>
  <anchor x="999" y="0" name="bottom"/>
  <anchor x="1016" y="1500" name="top"/>
  <outline>
    <contour>
      <point x="18" y="1386" type="line"/>
      <point x="18" y="1500" type="line"/>
      <point x="636" y="1500" type="line"/>
      <point x="636" y="1386" type="line"/>
      <point x="428" y="1345" type="line"/>
      <point x="696" y="820" type="line"/>
      <point x="986" y="258" type="line"/>
      <point x="1027" y="174" type="line"/>
      <point x="1037" y="174" type="line"/>
      <point x="1079" y="258" type="line"/>
      <point x="1376" y="833" type="line"/>
      <point x="1642" y="1352" type="line"/>
      <point x="1415" y="1386" type="line"/>
      <point x="1415" y="1500" type="line"/>
      <point x="2001" y="1503" type="line"/>
      <point x="2001" y="1389" type="line"/>
      <point x="1783" y="1347" type="line"/>
      <point x="1479" y="778" type="line"/>
      <point x="1061" y="-8" type="line"/>
      <point x="935" y="-8" type="line"/>
      <point x="547" y="733" type="line"/>
      <point x="226" y="1347" type="line"/>
    </contour>
  </outline>
</glyph>
<glyph name="W" format="2">
  <advance width="2900"/>
  <unicode hex="0057"/>
  <anchor x="1406" y="0" name="bottom"/>
  <anchor x="1406" y="1500" name="top"/>
  <outline>
    <contour>
      <point x="879" y="-8" type="line"/>
      <point x="575" y="623" type="line"/>
      <point x="226" y="1347" type="line"/>
      <point x="18" y="1386" type="line"/>
      <point x="18" y="1500" type="line"/>
      <point x="656" y="1500" type="line"/>
      <point x="656" y="1386" type="line"/>
      <point x="428" y="1345" type="line"/>
      <point x="738" y="684" type="line"/>
      <point x="930" y="313" type="line"/>
      <point x="979" y="199" type="line"/>
      <point x="991" y="199" type="line"/>
      <point x="1033" y="313" type="line"/>
      <point x="1190" y="688" type="line"/>
      <point x="1359" y="1080" type="line"/>
      <point x="1241" y="1355" type="line"/>
      <point x="1033" y="1394" type="line"/>
      <point x="1033" y="1500" type="line"/>
      <point x="1651" y="1500" type="line"/>
      <point x="1651" y="1394" type="line"/>
      <point x="1443" y="1353" type="line"/>
      <point x="1659" y="842" type="line"/>
      <point x="1877" y="313" type="line" smooth="yes"/>
      <point x="1918" y="199" type="line"/>
      <point x="1932" y="199" type="line"/>
      <point x="1982" y="313" type="line" smooth="yes"/>
      <point x="2236" y="803" type="line"/>
      <point x="2523" y="1352" type="line"/>
      <point x="2286" y="1386" type="line"/>
      <point x="2286" y="1500" type="line"/>
      <point x="2902" y="1500" type="line"/>
      <point x="2902" y="1386" type="line"/>
      <point x="2674" y="1347" type="line"/>
      <point x="2352" y="760" type="line"/>
      <point x="1936" y="-8" type="line"/>
      <point x="1811" y="-8" type="line"/>
      <point x="1471" y="812" type="line"/>
      <point x="1426" y="928" type="line"/>
      <point x="1416" y="928" type="line"/>
      <point x="1369" y="812" type="line"/>
      <point x="998" y="-8" type="line"/>
    </contour>
  </outline>
</glyph>
<glyph name="X" format="2">
  <advance width="1871"/>
  <unicode hex="0058"/>
  <anchor x="923" y="0" name="bottom"/>
  <anchor x="935" y="1500" name="top"/>
  <outline>
    <contour>
      <point x="28" y="0" type="line"/>
      <point x="28" y="100" type="line"/>
      <point x="236" y="135" type="line"/>
      <point x="835" y="768" type="line"/>
      <point x="276" y="1355" type="line"/>
      <point x="78" y="1386" type="line"/>
      <point x="78" y="1500" type="line"/>
      <point x="698" y="1500" type="line"/>
      <point x="698" y="1386" type="line"/>
      <point x="485" y="1353" type="line"/>
      <point x="836" y="979" type="line"/>
      <point x="942" y="865" type="line"/>
      <point x="952" y="865" type="line"/>
      <point x="1051" y="979" type="line"/>
      <point x="1394" y="1360" type="line"/>
      <point x="1177" y="1386" type="line"/>
      <point x="1177" y="1500" type="line"/>
      <point x="1763" y="1500" type="line"/>
      <point x="1763" y="1386" type="line"/>
      <point x="1545" y="1355" type="line"/>
      <point x="1020" y="793" type="line"/>
      <point x="1655" y="135" type="line"/>
      <point x="1863" y="100" type="line"/>
      <point x="1863" y="0" type="line"/>
      <point x="1233" y="0" type="line"/>
      <point x="1233" y="100" type="line"/>
      <point x="1446" y="135" type="line"/>
      <point x="1017" y="583" type="line"/>
      <point x="913" y="697" type="line"/>
      <point x="903" y="697" type="line"/>
      <point x="803" y="583" type="line"/>
      <point x="387" y="130" type="line"/>
      <point x="604" y="100" type="line"/>
      <point x="604" y="0" type="line"/>
    </contour>
  </outline>
</glyph>
<glyph name="Y" format="2">
  <advance width="1671"/>
  <unicode hex="0059"/>
  <anchor x="837" y="0" name="bottom"/>
  <anchor x="839" y="1502" name="top"/>
  <anchor x="-52" y="1500" name="tonos"/>
  <outline>
    <contour>
      <point x="483" y="0" type="line"/>
      <point x="483" y="100" type="line"/>
      <point x="744" y="135" type="line"/>
      <point x="746" y="647" type="line"/>
      <point x="507" y="982" type="line"/>
      <point x="220" y="1360" type="line"/>
      <point x="18" y="1386" type="line"/>
      <point x="18" y="1500" type="line"/>
      <point x="629" y="1500" type="line"/>
      <point x="629" y="1386" type="line"/>
      <point x="432" y="1351" type="line"/>
      <point x="650" y="1061" type="line"/>
      <point x="862" y="783" type="line"/>
      <point x="872" y="783" type="line"/>
      <point x="1090" y="1078" type="line"/>
      <point x="1291" y="1358" type="line"/>
      <point x="1064" y="1386" type="line"/>
      <point x="1064" y="1500" type="line"/>
      <point x="1653" y="1500" type="line"/>
      <point x="1653" y="1386" type="line"/>
      <point x="1445" y="1359" type="line"/>
      <point x="1186" y="1011" type="line"/>
      <point x="926" y="652" type="line"/>
      <point x="928" y="135" type="line"/>
      <point x="1186" y="100" type="line"/>
      <point x="1186" y="0" type="line"/>
    </contour>
  </outline>
</glyph>
<glyph name="Z" format="2">
  <advance width="1556"/>
  <unicode hex="005A"/>
  <anchor x="779" y="0" name="bottom"/>
  <anchor x="779" y="1500" name="top"/>
  <outline>
    <contour>
      <point x="158" y="0" type="line"/>
      <point x="128" y="92" type="line"/>
      <point x="1168" y="1374" type="line"/>
      <point x="1159" y="1382" type="line"/>
      <point x="357" y="1382" type="line"/>
      <point x="321" y="1058" type="line"/>
      <point x="183" y="1058" type="line"/>
      <point x="183" y="1500" type="line"/>
      <point x="1403" y="1500" type="line"/>
      <point x="1403" y="1409" type="line"/>
      <point x="354" y="114" type="line"/>
      <point x="362" y="108" type="line"/>
      <point x="1252" y="108" type="line"/>
      <point x="1328" y="378" type="line"/>
      <point x="1454" y="378" type="line"/>
      <point x="1414" y="0" type="line"/>
    </contour>
  </outline>
</glyph>
<glyph name="bracketleft" format="2">
  <advance width="1112"/>
  <unicode hex="005B"/>
  <outline>
    <contour>
      <point x="233" y="508" type="line"/>
      <point x="221" y="1362" type="line"/>
      <point x="202" y="1382" type="line"/>
      <point x="202" y="1500" type="line"/>
      <point x="960" y="1500" type="line"/>
      <point x="960" y="1381" type="line"/>
      <point x="404" y="1362" type="line"/>
      <point x="392" y="508" type="line"/>
      <point x="404" y="-342" type="line"/>
      <point x="960" y="-361" type="line"/>
      <point x="960" y="-480" type="line"/>
      <point x="202" y="-480" type="line"/>
      <point x="202" y="-362" type="line"/>
      <point x="221" y="-342" type="line"/>
    </contour>
  </outline>
</glyph>
<glyph name="backslash" format="2">
  <advance width="1241"/>
  <unicode hex="005C"/>
  <outline>
    <contour>
      <point x="42" y="1482" type="line"/>
      <point x="172" y="1555" type="line"/>
      <point x="1208" y="-88" type="line"/>
      <point x="1077" y="-161" type="line"/>
    </contour>
  </outline>
</glyph>
<glyph name="asciicircum" format="2">
  <advance width="2734"/>
  <unicode hex="005E"/>
  <outline>
    <contour>
      <point x="210" y="926" type="line"/>
      <point x="327" y="988"/>
      <point x="1272" y="1501"/>
      <point x="1321" y="1524" type="qcurve"/>
      <point x="1362" y="1501"/>
      <point x="2406" y="989"/>
      <point x="2524" y="927" type="qcurve"/>
      <point x="2434" y="829" type="line"/>
      <point x="2136" y="943"/>
      <point x="1356" y="1253"/>
      <point x="1320" y="1265" type="qcurve"/>
      <point x="1276" y="1246"/>
      <point x="616" y="952"/>
      <point x="299" y="831" type="qcurve"/>
    </contour>
  </outline>
</glyph>
<glyph name="a" format="2">
  <advance width="1669"/>
  <unicode hex="0061"/>
  <anchor x="763" y="0" name="bottom"/>
  <anchor x="1557" y="0" name="ogonek"/>
  <anchor x="782" y="998" name="top"/>
  <outline>
    <contour>
      <point x="168" y="246" type="qcurve" smooth="yes"/>
      <point x="168" y="383"/>
      <point x="710" y="582"/>
      <point x="1300" y="629" type="qcurve"/>
      <point x="1300" y="547" type="line"/>
      <point x="842" y="511"/>
      <point x="352" y="390"/>
      <point x="352" y="256" type="qcurve" smooth="yes"/>
      <point x="352" y="182"/>
      <point x="527" y="106"/>
      <point x="668" y="106" type="qcurve" smooth="yes"/>
      <point x="811" y="106"/>
      <point x="1130" y="198"/>
      <point x="1193" y="251" type="qcurve"/>
      <point x="1196" y="616" type="line" smooth="yes"/>
      <point x="1199" y="792"/>
      <point x="967" y="906"/>
      <point x="788" y="906" type="qcurve" smooth="yes"/>
      <point x="626" y="906"/>
      <point x="424" y="856"/>
      <point x="367" y="830" type="qcurve"/>
      <point x="388" y="809"/>
      <point x="412" y="765"/>
      <point x="416" y="745" type="qcurve" smooth="yes"/>
      <point x="423" y="705"/>
      <point x="377" y="650"/>
      <point x="335" y="650" type="qcurve" smooth="yes"/>
      <point x="286" y="650"/>
      <point x="230" y="719"/>
      <point x="230" y="779" type="qcurve" smooth="yes"/>
      <point x="230" y="876"/>
      <point x="542" y="1021"/>
      <point x="799" y="1021" type="qcurve" smooth="yes"/>
      <point x="1073" y="1021"/>
      <point x="1362" y="847"/>
      <point x="1362" y="661" type="qcurve" smooth="yes"/>
      <point x="1362" y="119" type="line"/>
      <point x="1565" y="84" type="line"/>
      <point x="1565" y="0" type="line"/>
      <point x="1263" y="0" type="line"/>
      <point x="1210" y="60" type="line"/>
      <point x="1191" y="149" type="line"/>
      <point x="1125" y="85"/>
      <point x="805" y="-13"/>
      <point x="613" y="-13" type="qcurve" smooth="yes"/>
      <point x="418" y="-13"/>
      <point x="168" y="138"/>
    </contour>
  </outline>
</glyph>
<glyph name="b" format="2">
  <advance width="1598"/>
  <unicode hex="0062"/>
  <anchor x="802" y="0" name="bottom"/>
  <anchor x="802" y="1533" name="top"/>
  <outline>
    <contour>
      <point x="243" y="0" type="line"/>
      <point x="254" y="427" type="line"/>
      <point x="243" y="1372" type="line"/>
      <point x="26" y="1402" type="line"/>
      <point x="26" y="1500" type="line"/>
      <point x="358" y="1534" type="line"/>
      <point x="389" y="1534" type="line"/>
      <point x="417" y="1502" type="line"/>
      <point x="415" y="860" type="line"/>
      <point x="484" y="930"/>
      <point x="715" y="1018"/>
      <point x="876" y="1018" type="qcurve" smooth="yes"/>
      <point x="1123" y="1018"/>
      <point x="1446" y="752"/>
      <point x="1446" y="529" type="qcurve" smooth="yes"/>
      <point x="1446" y="285"/>
      <point x="1109" y="-12"/>
      <point x="810" y="-12" type="qcurve" smooth="yes"/>
      <point x="686" y="-12"/>
      <point x="478" y="48"/>
      <point x="416" y="88" type="qcurve"/>
      <point x="330" y="0" type="line"/>
    </contour>
    <contour>
      <point x="405" y="497" type="line"/>
      <point x="415" y="236" type="line"/>
      <point x="466" y="177"/>
      <point x="684" y="91"/>
      <point x="830" y="91" type="qcurve" smooth="yes"/>
      <point x="1030" y="91"/>
      <point x="1258" y="312"/>
      <point x="1258" y="504" type="qcurve" smooth="yes"/>
      <point x="1258" y="686"/>
      <point x="1031" y="892"/>
      <point x="837" y="892" type="qcurve" smooth="yes"/>
      <point x="688" y="892"/>
      <point x="477" y="808"/>
      <point x="415" y="742" type="qcurve"/>
    </contour>
  </outline>
</glyph>
<glyph name="c" format="2">
  <advance width="1463"/>
  <unicode hex="0063"/>
  <anchor x="772" y="0" name="bottom"/>
  <anchor x="772" y="998" name="top"/>
  <outline>
    <contour>
      <point x="152" y="488" type="qcurve" smooth="yes"/>
      <point x="152" y="713"/>
      <point x="509" y="1020"/>
      <point x="796" y="1020" type="qcurve" smooth="yes"/>
      <point x="917" y="1020"/>
      <point x="1090" y="980"/>
      <point x="1133" y="954" type="qcurve"/>
      <point x="1157" y="1004" type="line"/>
      <point x="1256" y="1004" type="line"/>
      <point x="1257" y="652" type="line"/>
      <point x="1158" y="652" type="line"/>
      <point x="1141" y="713" type="line" smooth="yes"/>
      <point x="1115" y="805"/>
      <point x="944" y="909"/>
      <point x="795" y="909" type="qcurve" smooth="yes"/>
      <point x="588" y="909"/>
      <point x="336" y="710"/>
      <point x="336" y="506" type="qcurve" smooth="yes"/>
      <point x="336" y="314"/>
      <point x="605" y="108"/>
      <point x="826" y="108" type="qcurve" smooth="yes"/>
      <point x="978" y="108"/>
      <point x="1196" y="177"/>
      <point x="1271" y="228" type="qcurve"/>
      <point x="1321" y="168" type="line"/>
      <point x="1250" y="85"/>
      <point x="999" y="-22"/>
      <point x="797" y="-22" type="qcurve" smooth="yes"/>
      <point x="526" y="-22"/>
      <point x="152" y="255"/>
    </contour>
  </outline>
</glyph>
<glyph name="d" format="2">
  <advance width="1691"/>
  <unicode hex="0064"/>
  <anchor x="767" y="0" name="bottom"/>
  <anchor x="1271" y="1202" name="center"/>
  <anchor x="767" y="1534" name="top"/>
  <anchor x="1357" y="1000" name="topright"/>
  <outline>
    <contour>
      <point x="156" y="477" type="qcurve" smooth="yes"/>
      <point x="156" y="721"/>
      <point x="531" y="1018"/>
      <point x="836" y="1018" type="qcurve" smooth="yes"/>
      <point x="948" y="1018"/>
      <point x="1166" y="973"/>
      <point x="1232" y="937" type="qcurve"/>
      <point x="1224" y="1372" type="line"/>
      <point x="1007" y="1402" type="line"/>
      <point x="1007" y="1500" type="line"/>
      <point x="1339" y="1534" type="line"/>
      <point x="1370" y="1534" type="line"/>
      <point x="1398" y="1502" type="line"/>
      <point x="1395" y="538" type="line"/>
      <point x="1404" y="119" type="line"/>
      <point x="1603" y="84" type="line"/>
      <point x="1603" y="0" type="line"/>
      <point x="1304" y="0" type="line"/>
      <point x="1253" y="60" type="line"/>
      <point x="1236" y="149" type="line"/>
      <point x="1169" y="86"/>
      <point x="942" y="-9"/>
      <point x="773" y="-9" type="qcurve" smooth="yes"/>
      <point x="497" y="-9"/>
      <point x="156" y="254"/>
    </contour>
    <contour>
      <point x="344" y="502" type="qcurve" smooth="yes"/>
      <point x="344" y="319"/>
      <point x="591" y="117"/>
      <point x="809" y="117" type="qcurve" smooth="yes"/>
      <point x="968" y="117"/>
      <point x="1173" y="202"/>
      <point x="1234" y="262" type="qcurve"/>
      <point x="1240" y="523" type="line"/>
      <point x="1240" y="793" type="line"/>
      <point x="1181" y="848"/>
      <point x="981" y="915"/>
      <point x="840" y="915" type="qcurve" smooth="yes"/>
      <point x="613" y="915"/>
      <point x="344" y="677"/>
    </contour>
  </outline>
</glyph>
<glyph name="e" format="2">
  <advance width="1503"/>
  <unicode hex="0065"/>
  <anchor x="772" y="0" name="bottom"/>
  <anchor x="993" y="0" name="ogonek"/>
  <anchor x="770" y="998" name="top"/>
  <outline>
    <contour>
      <point x="151" y="499" type="qcurve" smooth="yes"/>
      <point x="151" y="716"/>
      <point x="497" y="1020"/>
      <point x="775" y="1020" type="qcurve" smooth="yes"/>
      <point x="1028" y="1020"/>
      <point x="1313" y="790"/>
      <point x="1342" y="587" type="qcurve"/>
      <point x="1342" y="527" type="line"/>
      <point x="220" y="527" type="line"/>
      <point x="220" y="623" type="line"/>
      <point x="1172" y="623" type="line"/>
      <point x="1144" y="761"/>
      <point x="929" y="906"/>
      <point x="763" y="906" type="qcurve" smooth="yes"/>
      <point x="559" y="906"/>
      <point x="334" y="699"/>
      <point x="336" y="519" type="qcurve" smooth="yes"/>
      <point x="338" y="310"/>
      <point x="622" y="108"/>
      <point x="836" y="108" type="qcurve" smooth="yes"/>
      <point x="961" y="108"/>
      <point x="1164" y="165"/>
      <point x="1255" y="235" type="qcurve"/>
      <point x="1306" y="175" type="line"/>
      <point x="1222" y="78"/>
      <point x="974" y="-22"/>
      <point x="817" y="-22" type="qcurve" smooth="yes"/>
      <point x="507" y="-22"/>
      <point x="151" y="249"/>
    </contour>
  </outline>
</glyph>
<glyph name="f" format="2">
  <advance width="1165"/>
  <unicode hex="0066"/>
  <anchor x="388" y="0" name="bottom"/>
  <anchor x="388" y="1536" name="top"/>
  <outline>
    <contour>
      <point x="253" y="0" type="line"/>
      <point x="253" y="84" type="line"/>
      <point x="471" y="119" type="line"/>
      <point x="473" y="527" type="line"/>
      <point x="470" y="866" type="line"/>
      <point x="135" y="871" type="line"/>
      <point x="135" y="964" type="line"/>
      <point x="472" y="982" type="line"/>
      <point x="476" y="1142" type="line" smooth="yes"/>
      <point x="477" y="1319"/>
      <point x="677" y="1537"/>
      <point x="828" y="1537" type="qcurve" smooth="yes"/>
      <point x="891" y="1537"/>
      <point x="1014" y="1517"/>
      <point x="1040" y="1506" type="qcurve" smooth="yes"/>
      <point x="1068" y="1496" type="line"/>
      <point x="1045" y="1409" type="line"/>
      <point x="1010" y="1416" type="line" smooth="yes"/>
      <point x="987" y="1421"/>
      <point x="934" y="1425"/>
      <point x="899" y="1425" type="qcurve" smooth="yes"/>
      <point x="771" y="1425"/>
      <point x="633" y="1262"/>
      <point x="634" y="1134" type="qcurve" smooth="yes"/>
      <point x="638" y="983" type="line"/>
      <point x="1032" y="983" type="line"/>
      <point x="1032" y="872" type="line"/>
      <point x="638" y="872" type="line"/>
      <point x="640" y="527" type="line"/>
      <point x="647" y="119" type="line"/>
      <point x="887" y="84" type="line"/>
      <point x="887" y="0" type="line"/>
    </contour>
  </outline>
</glyph>
<glyph name="g" format="2">
  <advance width="1552"/>
  <unicode hex="0067"/>
  <anchor x="771" y="-416" name="bottom"/>
  <anchor x="731" y="998" name="top"/>
  <outline>
    <contour>
      <point x="102" y="-265" type="qcurve" smooth="yes"/>
      <point x="102" y="-169"/>
      <point x="271" y="-44"/>
      <point x="402" y="-1" type="qcurve"/>
      <point x="523" y="-34" type="line"/>
      <point x="397" y="-80"/>
      <point x="277" y="-169"/>
      <point x="277" y="-245" type="qcurve" smooth="yes"/>
      <point x="277" y="-321"/>
      <point x="511" y="-413"/>
      <point x="817" y="-413" type="qcurve" smooth="yes"/>
      <point x="1037" y="-413"/>
      <point x="1309" y="-326"/>
      <point x="1309" y="-241" type="qcurve" smooth="yes"/>
      <point x="1309" y="-164"/>
      <point x="1081" y="-121"/>
      <point x="781" y="-110" type="qcurve" smooth="yes"/>
      <point x="475" y="-99"/>
      <point x="172" y="-20"/>
      <point x="172" y="105" type="qcurve" smooth="yes"/>
      <point x="172" y="193"/>
      <point x="315" y="308"/>
      <point x="428" y="344" type="qcurve"/>
      <point x="487" y="282" type="line"/>
      <point x="415" y="259"/>
      <point x="306" y="195"/>
      <point x="306" y="144" type="qcurve" smooth="yes"/>
      <point x="306" y="88"/>
      <point x="509" y="47"/>
      <point x="789" y="38" type="qcurve" smooth="yes"/>
      <point x="1171" y="26"/>
      <point x="1468" y="-71"/>
      <point x="1468" y="-189" type="qcurve" smooth="yes"/>
      <point x="1468" y="-330"/>
      <point x="1109" y="-518"/>
      <point x="717" y="-518" type="qcurve" smooth="yes"/>
      <point x="351" y="-518"/>
      <point x="102" y="-378"/>
    </contour>
    <contour>
      <point x="208" y="620" type="qcurve" smooth="yes"/>
      <point x="208" y="794"/>
      <point x="498" y="1020"/>
      <point x="733" y="1020" type="qcurve" smooth="yes"/>
      <point x="969" y="1020"/>
      <point x="1262" y="811"/>
      <point x="1262" y="625" type="qcurve" smooth="yes"/>
      <point x="1262" y="457"/>
      <point x="981" y="215"/>
      <point x="740" y="215" type="qcurve" smooth="yes"/>
      <point x="504" y="215"/>
      <point x="208" y="438"/>
    </contour>
    <contour>
      <point x="387" y="630" type="qcurve" smooth="yes"/>
      <point x="387" y="479"/>
      <point x="578" y="317"/>
      <point x="746" y="317" type="qcurve" smooth="yes"/>
      <point x="900" y="317"/>
      <point x="1081" y="466"/>
      <point x="1081" y="619" type="qcurve" smooth="yes"/>
      <point x="1081" y="752"/>
      <point x="892" y="906"/>
      <point x="725" y="906" type="qcurve" smooth="yes"/>
      <point x="570" y="906"/>
      <point x="387" y="768"/>
    </contour>
    <contour>
      <point x="723" y="923" type="line"/>
      <point x="723" y="998" type="line"/>
      <point x="1448" y="998" type="line"/>
      <point x="1448" y="863" type="line"/>
    </contour>
  </outline>
</glyph>
<glyph name="h" format="2">
  <advance width="1742"/>
  <unicode hex="0068"/>
  <anchor x="845" y="0" name="bottom"/>
  <anchor x="436" y="1202" name="center"/>
  <anchor x="396" y="1534" name="top"/>
  <outline>
    <contour>
      <point x="114" y="0" type="line"/>
      <point x="114" y="84" type="line"/>
      <point x="306" y="119" type="line"/>
      <point x="308" y="525" type="line"/>
      <point x="306" y="1372" type="line"/>
      <point x="90" y="1402" type="line"/>
      <point x="90" y="1500" type="line"/>
      <point x="420" y="1534" type="line"/>
      <point x="452" y="1534" type="line"/>
      <point x="480" y="1502" type="line"/>
      <point x="479" y="851" type="line"/>
      <point x="579" y="937"/>
      <point x="832" y="1020"/>
      <point x="970" y="1020" type="qcurve" smooth="yes"/>
      <point x="1196" y="1020"/>
      <point x="1440" y="871"/>
      <point x="1440" y="697" type="qcurve" smooth="yes"/>
      <point x="1440" y="667"/>
      <point x="1435" y="525"/>
      <point x="1435" y="525" type="qcurve"/>
      <point x="1440" y="119" type="line"/>
      <point x="1638" y="84" type="line"/>
      <point x="1638" y="0" type="line"/>
      <point x="1058" y="0" type="line"/>
      <point x="1058" y="84" type="line"/>
      <point x="1266" y="119" type="line"/>
      <point x="1268" y="525" type="line"/>
      <point x="1268" y="657" type="line" smooth="yes"/>
      <point x="1268" y="794"/>
      <point x="1074" y="876"/>
      <point x="912" y="876" type="qcurve" smooth="yes"/>
      <point x="800" y="876"/>
      <point x="574" y="807"/>
      <point x="478" y="723" type="qcurve"/>
      <point x="478" y="525" type="line"/>
      <point x="480" y="119" type="line"/>
      <point x="668" y="84" type="line"/>
      <point x="668" y="0" type="line"/>
    </contour>
  </outline>
</glyph>
<glyph name="k" format="2">
  <advance width="1623"/>
  <unicode hex="006B"/>
  <anchor x="700" y="0" name="bottom"/>
  <anchor x="670" y="1534" name="top"/>
  <outline>
    <contour>
      <point x="114" y="0" type="line"/>
      <point x="114" y="84" type="line"/>
      <point x="306" y="119" type="line"/>
      <point x="308" y="527" type="line"/>
      <point x="306" y="1372" type="line"/>
      <point x="90" y="1402" type="line"/>
      <point x="90" y="1500" type="line"/>
      <point x="420" y="1534" type="line"/>
      <point x="452" y="1534" type="line"/>
      <point x="480" y="1502" type="line"/>
      <point x="478" y="507" type="line"/>
      <point x="480" y="119" type="line"/>
      <point x="668" y="84" type="line"/>
      <point x="668" y="0" type="line"/>
    </contour>
    <contour>
      <point x="396" y="391" type="line"/>
      <point x="396" y="493" type="line"/>
      <point x="1113" y="876" type="line"/>
      <point x="918" y="906" type="line"/>
      <point x="918" y="998" type="line"/>
      <point x="1464" y="998" type="line"/>
      <point x="1464" y="906" type="line"/>
      <point x="1254" y="871" type="line"/>
    </contour>
    <contour>
      <point x="647" y="577" type="line"/>
      <point x="782" y="658" type="line"/>
      <point x="1390" y="119" type="line"/>
      <point x="1561" y="84" type="line"/>
      <point x="1561" y="0" type="line"/>
      <point x="1113" y="0" type="line"/>
      <point x="1108" y="83" type="line"/>
      <point x="1167" y="115" type="line"/>
    </contour>
  </outline>
</glyph>
<glyph name="l" format="2">
  <advance width="812"/>
  <unicode hex="006C"/>
  <anchor x="406" y="0" name="bottom"/>
  <anchor x="406" y="750" name="center"/>
  <anchor x="406" y="1534" name="top"/>
  <anchor x="459" y="1000" name="topright"/>
  <anchor x="838" y="680" name="centerright"/>
  <outline>
    <contour>
      <point x="114" y="0" type="line"/>
      <point x="114" y="84" type="line"/>
      <point x="326" y="119" type="line"/>
      <point x="328" y="527" type="line"/>
      <point x="326" y="1372" type="line"/>
      <point x="90" y="1402" type="line"/>
      <point x="90" y="1500" type="line"/>
      <point x="440" y="1534" type="line"/>
      <point x="472" y="1534" type="line"/>
      <point x="500" y="1502" type="line"/>
      <point x="498" y="527" type="line"/>
      <point x="500" y="119" type="line"/>
      <point x="708" y="84" type="line"/>
      <point x="708" y="0" type="line"/>
    </contour>
  </outline>
</glyph>
<glyph name="m" format="2">
  <advance width="2563"/>
  <unicode hex="006D"/>
  <anchor x="1286" y="0" name="bottom"/>
  <anchor x="1286" y="998" name="top"/>
  <outline>
    <contour>
      <point x="114" y="0" type="line"/>
      <point x="114" y="84" type="line"/>
      <point x="312" y="119" type="line"/>
      <point x="314" y="525" type="line"/>
      <point x="312" y="836" type="line"/>
      <point x="114" y="866" type="line"/>
      <point x="114" y="964" type="line"/>
      <point x="427" y="998" type="line"/>
      <point x="462" y="971" type="line"/>
      <point x="487" y="852" type="line"/>
      <point x="566" y="928"/>
      <point x="821" y="1019"/>
      <point x="955" y="1019" type="qcurve" smooth="yes"/>
      <point x="1120" y="1019"/>
      <point x="1291" y="924"/>
      <point x="1337" y="838" type="qcurve"/>
      <point x="1443" y="918"/>
      <point x="1705" y="1019"/>
      <point x="1848" y="1019" type="qcurve" smooth="yes"/>
      <point x="2053" y="1019"/>
      <point x="2261" y="870"/>
      <point x="2261" y="740" type="qcurve" smooth="yes"/>
      <point x="2261" y="672"/>
      <point x="2256" y="553"/>
      <point x="2256" y="525" type="qcurve" smooth="yes"/>
      <point x="2261" y="119" type="line"/>
      <point x="2459" y="84" type="line"/>
      <point x="2459" y="0" type="line"/>
      <point x="1879" y="0" type="line"/>
      <point x="1879" y="84" type="line"/>
      <point x="2087" y="119" type="line"/>
      <point x="2089" y="525" type="line"/>
      <point x="2089" y="700" type="line" smooth="yes"/>
      <point x="2089" y="778"/>
      <point x="1937" y="875"/>
      <point x="1805" y="875" type="qcurve" smooth="yes"/>
      <point x="1672" y="875"/>
      <point x="1444" y="798"/>
      <point x="1374" y="729" type="qcurve"/>
      <point x="1370" y="674"/>
      <point x="1369" y="542"/>
      <point x="1369" y="525" type="qcurve" smooth="yes"/>
      <point x="1374" y="119" type="line"/>
      <point x="1572" y="84" type="line"/>
      <point x="1572" y="0" type="line"/>
      <point x="992" y="0" type="line"/>
      <point x="992" y="84" type="line"/>
      <point x="1200" y="119" type="line"/>
      <point x="1202" y="525" type="line"/>
      <point x="1202" y="700" type="line" smooth="yes"/>
      <point x="1202" y="778"/>
      <point x="1036" y="875"/>
      <point x="912" y="875" type="qcurve" smooth="yes"/>
      <point x="782" y="875"/>
      <point x="556" y="793"/>
      <point x="486" y="723" type="qcurve"/>
      <point x="485" y="525" type="line"/>
      <point x="487" y="119" type="line"/>
      <point x="673" y="84" type="line"/>
      <point x="673" y="0" type="line"/>
    </contour>
  </outline>
</glyph>
<glyph name="n" format="2">
  <advance width="1748"/>
  <unicode hex="006E"/>
  <anchor x="848" y="-2" name="bottom"/>
  <anchor x="883" y="998" name="top"/>
  <outline>
    <contour>
      <point x="114" y="0" type="line"/>
      <point x="114" y="84" type="line"/>
      <point x="312" y="119" type="line"/>
      <point x="314" y="525" type="line"/>
      <point x="312" y="836" type="line"/>
      <point x="114" y="866" type="line"/>
      <point x="114" y="964" type="line"/>
      <point x="426" y="998" type="line"/>
      <point x="461" y="971" type="line"/>
      <point x="486" y="852" type="line"/>
      <point x="589" y="940"/>
      <point x="834" y="1019"/>
      <point x="976" y="1019" type="qcurve" smooth="yes"/>
      <point x="1210" y="1019"/>
      <point x="1446" y="870"/>
      <point x="1446" y="698" type="qcurve" smooth="yes"/>
      <point x="1446" y="675"/>
      <point x="1439" y="547"/>
      <point x="1441" y="525" type="qcurve" smooth="yes"/>
      <point x="1446" y="119" type="line"/>
      <point x="1644" y="84" type="line"/>
      <point x="1644" y="0" type="line"/>
      <point x="1064" y="0" type="line"/>
      <point x="1064" y="84" type="line"/>
      <point x="1272" y="119" type="line"/>
      <point x="1274" y="525" type="line"/>
      <point x="1274" y="658" type="line" smooth="yes"/>
      <point x="1274" y="783"/>
      <point x="1080" y="875"/>
      <point x="918" y="875" type="qcurve" smooth="yes"/>
      <point x="787" y="875"/>
      <point x="574" y="803"/>
      <point x="485" y="723" type="qcurve"/>
      <point x="484" y="525" type="line"/>
      <point x="486" y="119" type="line"/>
      <point x="674" y="84" type="line"/>
      <point x="674" y="0" type="line"/>
    </contour>
  </outline>
</glyph>
<glyph name="o" format="2">
  <advance width="1599"/>
  <unicode hex="006F"/>
  <anchor x="800" y="0" name="bottom"/>
  <anchor x="800" y="499" name="center"/>
  <anchor x="1016" y="0" name="ogonek"/>
  <anchor x="800" y="998" name="top"/>
  <anchor x="1021" y="998" name="topright"/>
  <anchor x="800" y="998" name="GRKtop"/>
  <outline>
    <contour>
      <point x="152" y="499" type="qcurve" smooth="yes"/>
      <point x="152" y="716"/>
      <point x="507" y="1020"/>
      <point x="798" y="1020" type="qcurve" smooth="yes"/>
      <point x="1089" y="1020"/>
      <point x="1447" y="736"/>
      <point x="1447" y="505" type="qcurve" smooth="yes"/>
      <point x="1447" y="289"/>
      <point x="1094" y="-22"/>
      <point x="804" y="-22" type="qcurve" smooth="yes"/>
      <point x="514" y="-22"/>
      <point x="152" y="266"/>
    </contour>
    <contour>
      <point x="341" y="519" type="qcurve" smooth="yes"/>
      <point x="342" y="338"/>
      <point x="593" y="88"/>
      <point x="801" y="88" type="qcurve" smooth="yes"/>
      <point x="1021" y="88"/>
      <point x="1263" y="316"/>
      <point x="1263" y="505" type="qcurve" smooth="yes"/>
      <point x="1263" y="679"/>
      <point x="1010" y="904"/>
      <point x="803" y="904" type="qcurve" smooth="yes"/>
      <point x="579" y="904"/>
      <point x="340" y="699"/>
    </contour>
  </outline>
</glyph>
<glyph name="p" format="2">
  <advance width="1656"/>
  <unicode hex="0070"/>
  <anchor x="874" y="0" name="bottom"/>
  <anchor x="874" y="998" name="top"/>
  <outline>
    <contour>
      <point x="99" y="-480" type="line"/>
      <point x="99" y="-396" type="line"/>
      <point x="292" y="-361" type="line"/>
      <point x="294" y="426" type="line"/>
      <point x="292" y="836" type="line"/>
      <point x="94" y="866" type="line"/>
      <point x="94" y="964" type="line"/>
      <point x="416" y="998" type="line"/>
      <point x="451" y="971" type="line"/>
      <point x="468" y="860" type="line"/>
      <point x="535" y="930"/>
      <point x="766" y="1018"/>
      <point x="928" y="1018" type="qcurve" smooth="yes"/>
      <point x="1175" y="1018"/>
      <point x="1500" y="752"/>
      <point x="1500" y="529" type="qcurve" smooth="yes"/>
      <point x="1500" y="285"/>
      <point x="1164" y="-12"/>
      <point x="881" y="-12" type="qcurve" smooth="yes"/>
      <point x="742" y="-12"/>
      <point x="525" y="48"/>
      <point x="464" y="89" type="qcurve"/>
      <point x="466" y="-361" type="line"/>
      <point x="668" y="-396" type="line"/>
      <point x="668" y="-480" type="line"/>
    </contour>
    <contour>
      <point x="464" y="239" type="line"/>
      <point x="516" y="179"/>
      <point x="733" y="91"/>
      <point x="880" y="91" type="qcurve" smooth="yes"/>
      <point x="1082" y="91"/>
      <point x="1313" y="312"/>
      <point x="1313" y="504" type="qcurve" smooth="yes"/>
      <point x="1313" y="686"/>
      <point x="1084" y="892"/>
      <point x="889" y="892" type="qcurve" smooth="yes"/>
      <point x="742" y="892"/>
      <point x="529" y="807"/>
      <point x="467" y="741" type="qcurve"/>
      <point x="462" y="426" type="line"/>
    </contour>
  </outline>
</glyph>
<glyph name="q" format="2">
  <advance width="1646"/>
  <unicode hex="0071"/>
  <anchor x="751" y="0" name="bottom"/>
  <anchor x="797" y="998" name="top"/>
  <outline>
    <contour>
      <point x="156" y="477" type="qcurve" smooth="yes"/>
      <point x="156" y="721"/>
      <point x="522" y="1018"/>
      <point x="822" y="1018" type="qcurve" smooth="yes"/>
      <point x="936" y="1018"/>
      <point x="1152" y="969"/>
      <point x="1219" y="931" type="qcurve"/>
      <point x="1269" y="1008" type="line"/>
      <point x="1568" y="973" type="line"/>
      <point x="1568" y="876" type="line"/>
      <point x="1369" y="842" type="line"/>
      <point x="1362" y="427" type="line"/>
      <point x="1364" y="-361" type="line"/>
      <point x="1566" y="-396" type="line"/>
      <point x="1566" y="-480" type="line"/>
      <point x="962" y="-480" type="line"/>
      <point x="962" y="-396" type="line"/>
      <point x="1185" y="-361" type="line"/>
      <point x="1196" y="131" type="line"/>
      <point x="1122" y="68"/>
      <point x="891" y="-9"/>
      <point x="739" y="-9" type="qcurve" smooth="yes"/>
      <point x="489" y="-9"/>
      <point x="156" y="253"/>
    </contour>
    <contour>
      <point x="342" y="502" type="qcurve" smooth="yes"/>
      <point x="342" y="319"/>
      <point x="584" y="117"/>
      <point x="778" y="117" type="qcurve" smooth="yes"/>
      <point x="917" y="117"/>
      <point x="1132" y="188"/>
      <point x="1197" y="247" type="qcurve"/>
      <point x="1199" y="807" type="line"/>
      <point x="1147" y="857"/>
      <point x="956" y="915"/>
      <point x="815" y="915" type="qcurve" smooth="yes"/>
      <point x="606" y="915"/>
      <point x="342" y="677"/>
    </contour>
  </outline>
</glyph>
<glyph name="r" format="2">
  <advance width="1204"/>
  <unicode hex="0072"/>
  <anchor x="522" y="0" name="bottom"/>
  <anchor x="674" y="998" name="top"/>
  <outline>
    <contour>
      <point x="114" y="0" type="line"/>
      <point x="114" y="84" type="line"/>
      <point x="312" y="119" type="line"/>
      <point x="314" y="525" type="line"/>
      <point x="312" y="836" type="line"/>
      <point x="114" y="866" type="line"/>
      <point x="114" y="964" type="line"/>
      <point x="426" y="998" type="line"/>
      <point x="461" y="971" type="line"/>
      <point x="486" y="858" type="line"/>
      <point x="574" y="935"/>
      <point x="875" y="998"/>
      <point x="992" y="998" type="qcurve" smooth="yes"/>
      <point x="1091" y="998" type="line"/>
      <point x="1091" y="718" type="line"/>
      <point x="979" y="718" type="line"/>
      <point x="945" y="859" type="line"/>
      <point x="850" y="860"/>
      <point x="548" y="800"/>
      <point x="484" y="723" type="qcurve"/>
      <point x="484" y="525" type="line"/>
      <point x="486" y="119" type="line"/>
      <point x="694" y="84" type="line"/>
      <point x="694" y="0" type="line"/>
    </contour>
  </outline>
</glyph>
<glyph name="s" format="2">
  <advance width="1259"/>
  <unicode hex="0073"/>
  <anchor x="650" y="0" name="bottom"/>
  <anchor x="599" y="998" name="top"/>
  <outline>
    <contour>
      <point x="139" y="0" type="line"/>
      <point x="139" y="339" type="line"/>
      <point x="250" y="339" type="line"/>
      <point x="267" y="280" type="line" smooth="yes"/>
      <point x="288" y="194"/>
      <point x="491" y="89"/>
      <point x="652" y="89" type="qcurve" smooth="yes"/>
      <point x="792" y="89"/>
      <point x="968" y="176"/>
      <point x="968" y="259" type="qcurve" smooth="yes"/>
      <point x="968" y="342"/>
      <point x="794" y="424"/>
      <point x="556" y="472" type="qcurve" smooth="yes"/>
      <point x="326" y="518"/>
      <point x="177" y="648"/>
      <point x="177" y="757" type="qcurve" smooth="yes"/>
      <point x="177" y="877"/>
      <point x="396" y="1020"/>
      <point x="595" y="1020" type="qcurve" smooth="yes"/>
      <point x="695" y="1020"/>
      <point x="867" y="987"/>
      <point x="929" y="957" type="qcurve"/>
      <point x="945" y="998" type="line"/>
      <point x="1040" y="998" type="line"/>
      <point x="1040" y="702" type="line"/>
      <point x="930" y="702" type="line"/>
      <point x="910" y="795" type="line" smooth="yes"/>
      <point x="901" y="839"/>
      <point x="726" y="909"/>
      <point x="611" y="909" type="qcurve" smooth="yes"/>
      <point x="458" y="909"/>
      <point x="333" y="847"/>
      <point x="333" y="789" type="qcurve" smooth="yes"/>
      <point x="333" y="724"/>
      <point x="452" y="656"/>
      <point x="696" y="606" type="qcurve" smooth="yes"/>
      <point x="921" y="561"/>
      <point x="1123" y="429"/>
      <point x="1123" y="287" type="qcurve" smooth="yes"/>
      <point x="1123" y="150"/>
      <point x="859" y="-21"/>
      <point x="659" y="-21" type="qcurve" smooth="yes"/>
      <point x="513" y="-21"/>
      <point x="341" y="23"/>
      <point x="273" y="73" type="qcurve"/>
      <point x="234" y="0" type="line"/>
    </contour>
  </outline>
</glyph>
<glyph name="t" format="2">
  <advance width="1162"/>
  <unicode hex="0074"/>
  <anchor x="670" y="0" name="bottom"/>
  <anchor x="501" y="622" name="center"/>
  <anchor x="532" y="1179" name="top"/>
  <anchor x="908" y="1000" name="topright"/>
  <outline>
    <contour>
      <point x="114" y="870" type="line"/>
      <point x="114" y="944" type="line"/>
      <point x="233" y="972"/>
      <point x="520" y="1116"/>
      <point x="553" y="1180" type="qcurve"/>
      <point x="603" y="1180" type="line"/>
      <point x="636" y="1140" type="line"/>
      <point x="631" y="972" type="line"/>
      <point x="1011" y="972" type="line"/>
      <point x="1011" y="870" type="line"/>
      <point x="629" y="870" type="line"/>
      <point x="619" y="525" type="line"/>
      <point x="623" y="216" type="line" smooth="yes"/>
      <point x="624" y="151"/>
      <point x="727" y="109"/>
      <point x="879" y="109" type="qcurve" smooth="yes"/>
      <point x="1010" y="109" type="line"/>
      <point x="1010" y="29" type="line"/>
      <point x="654" y="-8" type="line"/>
      <point x="576" y="-8"/>
      <point x="447" y="108"/>
      <point x="447" y="198" type="qcurve" smooth="yes"/>
      <point x="447" y="525" type="line"/>
      <point x="447" y="858" type="line"/>
    </contour>
  </outline>
</glyph>
<glyph name="u" format="2">
  <advance width="1722"/>
  <unicode hex="0075"/>
  <anchor x="814" y="0" name="bottom"/>
  <anchor x="1490" y="20" name="ogonek"/>
  <anchor x="814" y="998" name="top"/>
  <anchor x="1395" y="998" name="topright"/>
  <outline>
    <contour>
      <point x="94" y="866" type="line"/>
      <point x="94" y="964" type="line"/>
      <point x="406" y="998" type="line"/>
      <point x="441" y="998" type="line"/>
      <point x="466" y="962" type="line"/>
      <point x="464" y="473" type="line"/>
      <point x="464" y="288" type="line" smooth="yes"/>
      <point x="464" y="222"/>
      <point x="628" y="113"/>
      <point x="779" y="113" type="qcurve" smooth="yes"/>
      <point x="905" y="113"/>
      <point x="1163" y="189"/>
      <point x="1247" y="265" type="qcurve"/>
      <point x="1248" y="473" type="line"/>
      <point x="1246" y="836" type="line"/>
      <point x="1058" y="866" type="line"/>
      <point x="1058" y="964" type="line"/>
      <point x="1360" y="998" type="line"/>
      <point x="1395" y="998" type="line"/>
      <point x="1420" y="962" type="line"/>
      <point x="1418" y="473" type="line"/>
      <point x="1420" y="151" type="line"/>
      <point x="1618" y="121" type="line"/>
      <point x="1618" y="34" type="line"/>
      <point x="1306" y="0" type="line"/>
      <point x="1271" y="27" type="line"/>
      <point x="1247" y="147" type="line"/>
      <point x="1154" y="72"/>
      <point x="852" y="-21"/>
      <point x="687" y="-21" type="qcurve" smooth="yes"/>
      <point x="491" y="-21"/>
      <point x="292" y="128"/>
      <point x="292" y="258" type="qcurve" smooth="yes"/>
      <point x="292" y="330"/>
      <point x="297" y="448"/>
      <point x="297" y="473" type="qcurve" smooth="yes"/>
      <point x="292" y="836" type="line"/>
    </contour>
  </outline>
</glyph>
<glyph name="v" format="2">
  <advance width="1532"/>
  <unicode hex="0076"/>
  <anchor x="763" y="0" name="bottom"/>
  <anchor x="764" y="998" name="top"/>
  <outline>
    <contour>
      <point x="28" y="904" type="line"/>
      <point x="28" y="998" type="line"/>
      <point x="556" y="998" type="line"/>
      <point x="556" y="904" type="line"/>
      <point x="374" y="867" type="line"/>
      <point x="562" y="538" type="line"/>
      <point x="709" y="299" type="line"/>
      <point x="773" y="187" type="line"/>
      <point x="783" y="187" type="line"/>
      <point x="848" y="299" type="line"/>
      <point x="995" y="541" type="line"/>
      <point x="1194" y="874" type="line"/>
      <point x="1008" y="904" type="line"/>
      <point x="1008" y="998" type="line"/>
      <point x="1524" y="998" type="line"/>
      <point x="1524" y="904" type="line"/>
      <point x="1325" y="869" type="line"/>
      <point x="1109" y="496" type="line"/>
      <point x="824" y="-8" type="line"/>
      <point x="699" y="-8" type="line"/>
      <point x="428" y="480" type="line"/>
      <point x="198" y="869" type="line"/>
    </contour>
  </outline>
</glyph>
<glyph name="w" format="2">
  <advance width="2479"/>
  <unicode hex="0077"/>
  <anchor x="703" y="0" name="bottom"/>
  <anchor x="1170" y="998" name="top"/>
  <outline>
    <contour>
      <point x="655" y="-8" type="line"/>
      <point x="411" y="450" type="line"/>
      <point x="198" y="869" type="line"/>
      <point x="28" y="904" type="line"/>
      <point x="28" y="998" type="line"/>
      <point x="556" y="998" type="line"/>
      <point x="556" y="904" type="line"/>
      <point x="374" y="867" type="line"/>
      <point x="570" y="513" type="line"/>
      <point x="682" y="294" type="line"/>
      <point x="734" y="180" type="line"/>
      <point x="750" y="180" type="line"/>
      <point x="813" y="294" type="line"/>
      <point x="960" y="538" type="line"/>
      <point x="1135" y="801" type="line"/>
      <point x="1085" y="869" type="line"/>
      <point x="916" y="904" type="line"/>
      <point x="916" y="998" type="line"/>
      <point x="1437" y="998" type="line"/>
      <point x="1437" y="904" type="line"/>
      <point x="1255" y="867" type="line"/>
      <point x="1508" y="517" type="line"/>
      <point x="1654" y="294" type="line"/>
      <point x="1724" y="180" type="line"/>
      <point x="1734" y="180" type="line"/>
      <point x="1797" y="294" type="line"/>
      <point x="1934" y="525" type="line"/>
      <point x="2152" y="874" type="line"/>
      <point x="1966" y="904" type="line"/>
      <point x="1966" y="998" type="line"/>
      <point x="2471" y="998" type="line"/>
      <point x="2471" y="904" type="line"/>
      <point x="2272" y="869" type="line"/>
      <point x="2030" y="425" type="line"/>
      <point x="1771" y="-8" type="line"/>
      <point x="1649" y="-8" type="line"/>
      <point x="1282" y="577" type="line"/>
      <point x="1215" y="691" type="line"/>
      <point x="1205" y="691" type="line"/>
      <point x="1140" y="577" type="line"/>
      <point x="777" y="-8" type="line"/>
    </contour>
  </outline>
</glyph>
<glyph name="x" format="2">
  <advance width="1528"/>
  <unicode hex="0078"/>
  <anchor x="789" y="0" name="bottom"/>
  <anchor x="789" y="998" name="top"/>
  <outline>
    <contour>
      <point x="54" y="0" type="line"/>
      <point x="54" y="84" type="line"/>
      <point x="265" y="119" type="line"/>
      <point x="672" y="484" type="line"/>
      <point x="229" y="869" type="line"/>
      <point x="58" y="904" type="line"/>
      <point x="58" y="998" type="line"/>
      <point x="627" y="998" type="line"/>
      <point x="627" y="904" type="line"/>
      <point x="456" y="868" type="line"/>
      <point x="673" y="675" type="line"/>
      <point x="780" y="576" type="line"/>
      <point x="790" y="576" type="line"/>
      <point x="897" y="675" type="line"/>
      <point x="1123" y="875" type="line"/>
      <point x="938" y="904" type="line"/>
      <point x="938" y="998" type="line"/>
      <point x="1449" y="998" type="line"/>
      <point x="1449" y="904" type="line"/>
      <point x="1248" y="869" type="line"/>
      <point x="858" y="514" type="line"/>
      <point x="1308" y="119" type="line"/>
      <point x="1490" y="84" type="line"/>
      <point x="1490" y="0" type="line"/>
      <point x="911" y="0" type="line"/>
      <point x="911" y="84" type="line"/>
      <point x="1081" y="120" type="line"/>
      <point x="854" y="324" type="line"/>
      <point x="749" y="421" type="line"/>
      <point x="739" y="421" type="line"/>
      <point x="635" y="324" type="line"/>
      <point x="395" y="113" type="line"/>
      <point x="570" y="84" type="line"/>
      <point x="570" y="0" type="line"/>
    </contour>
  </outline>
</glyph>
<glyph name="y" format="2">
  <advance width="1530"/>
  <unicode hex="0079"/>
  <anchor x="680" y="0" name="bottom"/>
  <anchor x="777" y="998" name="top"/>
  <outline>
    <contour>
      <point x="28" y="904" type="line"/>
      <point x="28" y="998" type="line"/>
      <point x="556" y="998" type="line"/>
      <point x="556" y="904" type="line"/>
      <point x="374" y="867" type="line"/>
      <point x="576" y="534" type="line"/>
      <point x="713" y="337" type="line"/>
      <point x="783" y="226" type="line"/>
      <point x="793" y="226" type="line"/>
      <point x="852" y="337" type="line"/>
      <point x="969" y="540" type="line"/>
      <point x="1179" y="874" type="line"/>
      <point x="885" y="904" type="line"/>
      <point x="885" y="998" type="line"/>
      <point x="1522" y="998" type="line"/>
      <point x="1522" y="904" type="line"/>
      <point x="1321" y="869" type="line"/>
      <point x="1073" y="488" type="line"/>
      <point x="592" y="-287" type="line" smooth="yes"/>
      <point x="525" y="-396"/>
      <point x="382" y="-492"/>
      <point x="248" y="-492" type="qcurve"/>
      <point x="113" y="-460" type="line"/>
      <point x="113" y="-370" type="line"/>
      <point x="195" y="-370" type="line" smooth="yes"/>
      <point x="278" y="-370"/>
      <point x="444" y="-304"/>
      <point x="512" y="-195" type="qcurve" smooth="yes"/>
      <point x="678" y="92" type="line"/>
      <point x="675" y="92" type="line"/>
      <point x="435" y="480" type="line"/>
      <point x="198" y="869" type="line"/>
    </contour>
  </outline>
</glyph>
<glyph name="z" format="2">
  <advance width="1313"/>
  <unicode hex="007A"/>
  <anchor x="655" y="0" name="bottom"/>
  <anchor x="655" y="998" name="top"/>
  <outline>
    <contour>
      <point x="120" y="0" type="line"/>
      <point x="120" y="90" type="line"/>
      <point x="921" y="882" type="line"/>
      <point x="287" y="882" type="line"/>
      <point x="260" y="738" type="line"/>
      <point x="148" y="738" type="line"/>
      <point x="148" y="998" type="line"/>
      <point x="1175" y="998" type="line"/>
      <point x="1175" y="909" type="line"/>
      <point x="360" y="116" type="line"/>
      <point x="1052" y="116" type="line"/>
      <point x="1079" y="260" type="line"/>
      <point x="1191" y="260" type="line"/>
      <point x="1191" y="0" type="line"/>
    </contour>
  </outline>
</glyph>
<glyph name="braceleft" format="2">
  <advance width="1080"/>
  <unicode hex="007B"/>
  <outline>
    <contour>
      <point x="148" y="481" type="line"/>
      <point x="148" y="589" type="line"/>
      <point x="279" y="599" type="line" smooth="yes"/>
      <point x="335" y="603"/>
      <point x="384" y="660"/>
      <point x="384" y="716" type="qcurve" smooth="yes"/>
      <point x="384" y="834"/>
      <point x="269" y="1066"/>
      <point x="269" y="1184" type="qcurve" smooth="yes"/>
      <point x="269" y="1343"/>
      <point x="446" y="1510"/>
      <point x="603" y="1510" type="qcurve" smooth="yes"/>
      <point x="675" y="1510"/>
      <point x="923" y="1503"/>
      <point x="982" y="1500" type="qcurve"/>
      <point x="982" y="1386" type="line"/>
      <point x="900" y="1388"/>
      <point x="830" y="1388"/>
      <point x="753" y="1388" type="qcurve" smooth="yes"/>
      <point x="622" y="1388"/>
      <point x="469" y="1294"/>
      <point x="469" y="1196" type="qcurve" smooth="yes"/>
      <point x="469" y="1094"/>
      <point x="543" y="883"/>
      <point x="543" y="792" type="qcurve" smooth="yes"/>
      <point x="543" y="697"/>
      <point x="478" y="571"/>
      <point x="427" y="550" type="qcurve"/>
      <point x="490" y="516"/>
      <point x="543" y="384"/>
      <point x="543" y="314" type="qcurve" smooth="yes"/>
      <point x="543" y="223"/>
      <point x="422" y="-78"/>
      <point x="422" y="-180" type="qcurve" smooth="yes"/>
      <point x="422" y="-278"/>
      <point x="583" y="-374"/>
      <point x="712" y="-374" type="qcurve" smooth="yes"/>
      <point x="791" y="-374"/>
      <point x="891" y="-374"/>
      <point x="973" y="-372" type="qcurve"/>
      <point x="973" y="-484" type="line"/>
      <point x="915" y="-487"/>
      <point x="783" y="-495"/>
      <point x="671" y="-495" type="qcurve" smooth="yes"/>
      <point x="509" y="-495"/>
      <point x="239" y="-327"/>
      <point x="239" y="-168" type="qcurve" smooth="yes"/>
      <point x="239" y="-50"/>
      <point x="383" y="246"/>
      <point x="383" y="364" type="qcurve"/>
      <point x="383" y="481" type="line"/>
    </contour>
  </outline>
</glyph>
<glyph name="bar" format="2">
  <advance width="780"/>
  <unicode hex="007C"/>
  <outline>
    <contour>
      <point x="312" y="-540" type="line"/>
      <point x="315" y="-58" type="line"/>
      <point x="321" y="250" type="line"/>
      <point x="319" y="830" type="line"/>
      <point x="312" y="1138" type="line"/>
      <point x="310" y="1480" type="line"/>
      <point x="474" y="1550" type="line"/>
      <point x="469" y="1138" type="line"/>
      <point x="459" y="830" type="line"/>
      <point x="461" y="250" type="line"/>
      <point x="470" y="-58" type="line"/>
      <point x="472" y="-470" type="line"/>
    </contour>
  </outline>
</glyph>
<glyph name="braceright" format="2">
  <advance width="1077"/>
  <unicode hex="007D"/>
  <outline>
    <contour>
      <point x="107" y="-484" type="qcurve"/>
      <point x="107" y="-372" type="line"/>
      <point x="189" y="-374"/>
      <point x="257" y="-374"/>
      <point x="336" y="-374" type="qcurve" smooth="yes"/>
      <point x="465" y="-374"/>
      <point x="620" y="-278"/>
      <point x="620" y="-180" type="qcurve" smooth="yes"/>
      <point x="620" y="-78"/>
      <point x="534" y="223"/>
      <point x="534" y="314" type="qcurve" smooth="yes"/>
      <point x="534" y="384"/>
      <point x="587" y="516"/>
      <point x="650" y="550" type="qcurve"/>
      <point x="599" y="571"/>
      <point x="534" y="697"/>
      <point x="534" y="792" type="qcurve" smooth="yes"/>
      <point x="534" y="883"/>
      <point x="635" y="1094"/>
      <point x="635" y="1196" type="qcurve" smooth="yes"/>
      <point x="635" y="1294"/>
      <point x="489" y="1388"/>
      <point x="359" y="1388" type="qcurve" smooth="yes"/>
      <point x="282" y="1388"/>
      <point x="180" y="1388"/>
      <point x="98" y="1386" type="qcurve"/>
      <point x="98" y="1500" type="line"/>
      <point x="156" y="1503"/>
      <point x="288" y="1510"/>
      <point x="402" y="1510" type="qcurve" smooth="yes"/>
      <point x="651" y="1510"/>
      <point x="823" y="1343"/>
      <point x="823" y="1184" type="qcurve" smooth="yes"/>
      <point x="823" y="1066"/>
      <point x="693" y="834"/>
      <point x="693" y="716" type="qcurve" smooth="yes"/>
      <point x="693" y="660"/>
      <point x="742" y="603"/>
      <point x="798" y="599" type="qcurve" smooth="yes"/>
      <point x="929" y="589" type="line"/>
      <point x="929" y="481" type="line"/>
      <point x="694" y="481" type="line"/>
      <point x="694" y="364" type="line"/>
      <point x="694" y="246"/>
      <point x="813" y="-50"/>
      <point x="813" y="-168" type="qcurve" smooth="yes"/>
      <point x="813" y="-327"/>
      <point x="627" y="-495"/>
      <point x="379" y="-495" type="qcurve" smooth="yes"/>
      <point x="264" y="-495"/>
      <point x="165" y="-487"/>
    </contour>
  </outline>
</glyph>
<glyph name="asciitilde" format="2">
  <advance width="1764"/>
  <unicode hex="007E"/>
  <outline>
    <contour>
      <point x="106" y="601" type="line"/>
      <point x="168" y="694"/>
      <point x="503" y="807"/>
      <point x="630" y="807" type="qcurve"/>
      <point x="1207" y="672" type="line"/>
      <point x="1267" y="672"/>
      <point x="1476" y="702"/>
      <point x="1568" y="813" type="qcurve"/>
      <point x="1658" y="761" type="line"/>
      <point x="1598" y="638"/>
      <point x="1287" y="515"/>
      <point x="1155" y="515" type="qcurve"/>
      <point x="601" y="642" type="line"/>
      <point x="497" y="644"/>
      <point x="231" y="589"/>
      <point x="174" y="537" type="qcurve"/>
    </contour>
  </outline>
</glyph>
<glyph name="exclamdown" format="2">
  <advance width="783"/>
  <unicode hex="00A1"/>
  <outline>
    <contour>
      <point x="536" y="1204" type="qcurve" smooth="yes"/>
      <point x="536" y="1145"/>
      <point x="455" y="1059"/>
      <point x="391" y="1059" type="qcurve" smooth="yes"/>
      <point x="328" y="1059"/>
      <point x="246" y="1145"/>
      <point x="246" y="1204" type="qcurve" smooth="yes"/>
      <point x="246" y="1261"/>
      <point x="328" y="1348"/>
      <point x="391" y="1348" type="qcurve" smooth="yes"/>
      <point x="455" y="1348"/>
      <point x="536" y="1261"/>
    </contour>
    <contour>
      <point x="487" y="-94" type="line" smooth="yes"/>
      <point x="490" y="-162"/>
      <point x="449" y="-250"/>
      <point x="393" y="-251" type="qcurve" smooth="yes"/>
      <point x="337" y="-252"/>
      <point x="292" y="-164"/>
      <point x="296" y="-95" type="qcurve" smooth="yes"/>
      <point x="310" y="218" type="line"/>
      <point x="332" y="526" type="line"/>
      <point x="345" y="890" type="line"/>
      <point x="439" y="890" type="line"/>
      <point x="453" y="526" type="line"/>
      <point x="473" y="218" type="line"/>
    </contour>
  </outline>
</glyph>
<glyph name="cent" format="2">
  <advance width="1455"/>
  <unicode hex="00A2"/>
  <outline>
    <contour>
      <point x="152" y="475" type="qcurve" smooth="yes"/>
      <point x="152" y="714"/>
      <point x="491" y="1022"/>
      <point x="788" y="1022" type="qcurve" smooth="yes"/>
      <point x="887" y="1022"/>
      <point x="1078" y="990"/>
      <point x="1124" y="965" type="qcurve"/>
      <point x="1156" y="1019" type="line"/>
      <point x="1244" y="990" type="line"/>
      <point x="1260" y="664" type="line"/>
      <point x="1162" y="647" type="line"/>
      <point x="1133" y="715" type="line" smooth="yes"/>
      <point x="1101" y="794"/>
      <point x="900" y="911"/>
      <point x="790" y="911" type="qcurve" smooth="yes"/>
      <point x="585" y="911"/>
      <point x="336" y="711"/>
      <point x="336" y="517" type="qcurve" smooth="yes"/>
      <point x="336" y="315"/>
      <point x="622" y="108"/>
      <point x="882" y="108" type="qcurve" smooth="yes"/>
      <point x="997" y="108"/>
      <point x="1202" y="177"/>
      <point x="1305" y="258" type="qcurve"/>
      <point x="1359" y="199" type="line"/>
      <point x="1268" y="97"/>
      <point x="988" y="-22"/>
      <point x="823" y="-22" type="qcurve" smooth="yes"/>
      <point x="518" y="-22"/>
      <point x="152" y="246"/>
    </contour>
    <contour>
      <point x="716" y="-210" type="line"/>
      <point x="716" y="52" type="line"/>
      <point x="743" y="52" type="line"/>
      <point x="743" y="520" type="line"/>
      <point x="847" y="478" type="line"/>
      <point x="847" y="52" type="line"/>
      <point x="875" y="52" type="line"/>
      <point x="875" y="-160" type="line"/>
    </contour>
    <contour>
      <point x="715" y="1170" type="line"/>
      <point x="873" y="1209" type="line"/>
      <point x="873" y="988" type="line"/>
      <point x="847" y="988" type="line"/>
      <point x="847" y="478" type="line"/>
      <point x="743" y="520" type="line"/>
      <point x="743" y="988" type="line"/>
      <point x="715" y="988" type="line"/>
    </contour>
  </outline>
</glyph>
<glyph name="sterling" format="2">
  <advance width="1540"/>
  <unicode hex="00A3"/>
  <outline>
    <contour>
      <point x="869" y="538" type="qcurve" smooth="yes"/>
      <point x="869" y="414"/>
      <point x="660" y="185"/>
      <point x="533" y="141" type="qcurve"/>
      <point x="541" y="108" type="line"/>
      <point x="1153" y="108" type="line"/>
      <point x="1287" y="372" type="line"/>
      <point x="1415" y="372" type="line"/>
      <point x="1316" y="0" type="line"/>
      <point x="158" y="0" type="line"/>
      <point x="98" y="100" type="line"/>
      <point x="125" y="125" type="line"/>
      <point x="402" y="114"/>
      <point x="689" y="346"/>
      <point x="689" y="455" type="qcurve" smooth="yes"/>
      <point x="689" y="524"/>
      <point x="580" y="676"/>
      <point x="506" y="747" type="qcurve" smooth="yes"/>
      <point x="407" y="842"/>
      <point x="217" y="1039"/>
      <point x="217" y="1146" type="qcurve" smooth="yes"/>
      <point x="217" y="1279"/>
      <point x="523" y="1501"/>
      <point x="757" y="1501" type="qcurve" smooth="yes"/>
      <point x="968" y="1501"/>
      <point x="1265" y="1403"/>
      <point x="1376" y="1328" type="qcurve"/>
      <point x="1282" y="1222" type="line"/>
      <point x="1195" y="1279"/>
      <point x="952" y="1371"/>
      <point x="781" y="1371" type="qcurve" smooth="yes"/>
      <point x="587" y="1371"/>
      <point x="390" y="1246"/>
      <point x="390" y="1163" type="qcurve" smooth="yes"/>
      <point x="390" y="1087"/>
      <point x="556" y="922"/>
      <point x="650" y="836" type="qcurve" smooth="yes"/>
      <point x="735" y="759"/>
      <point x="869" y="609"/>
    </contour>
    <contour>
      <point x="232" y="571" type="line"/>
      <point x="208" y="707" type="line"/>
      <point x="1275" y="707" type="line"/>
      <point x="1245" y="571" type="line"/>
    </contour>
  </outline>
</glyph>
<glyph name="currency" format="2">
  <advance width="1545"/>
  <unicode hex="00A4"/>
  <outline>
    <contour>
      <point x="241" y="760" type="qcurve" smooth="yes"/>
      <point x="241" y="977"/>
      <point x="527" y="1282"/>
      <point x="759" y="1282" type="qcurve" smooth="yes"/>
      <point x="992" y="1282"/>
      <point x="1281" y="997"/>
      <point x="1281" y="766" type="qcurve" smooth="yes"/>
      <point x="1281" y="550"/>
      <point x="997" y="238"/>
      <point x="765" y="238" type="qcurve" smooth="yes"/>
      <point x="532" y="238"/>
      <point x="241" y="527"/>
    </contour>
    <contour>
      <point x="393" y="779" type="qcurve" smooth="yes"/>
      <point x="394" y="609"/>
      <point x="593" y="374"/>
      <point x="757" y="374" type="qcurve" smooth="yes"/>
      <point x="933" y="374"/>
      <point x="1123" y="588"/>
      <point x="1123" y="765" type="qcurve" smooth="yes"/>
      <point x="1123" y="928"/>
      <point x="924" y="1140"/>
      <point x="759" y="1140" type="qcurve" smooth="yes"/>
      <point x="581" y="1140"/>
      <point x="392" y="947"/>
    </contour>
    <contour>
      <point x="395" y="1018" type="line"/>
      <point x="134" y="1279" type="line"/>
      <point x="250" y="1402" type="line"/>
      <point x="511" y="1141" type="line"/>
    </contour>
    <contour>
      <point x="1150" y="1018" type="line"/>
      <point x="1034" y="1141" type="line"/>
      <point x="1295" y="1402" type="line"/>
      <point x="1411" y="1279" type="line"/>
    </contour>
    <contour>
      <point x="395" y="482" type="line"/>
      <point x="511" y="359" type="line"/>
      <point x="250" y="98" type="line"/>
      <point x="134" y="221" type="line"/>
    </contour>
    <contour>
      <point x="1150" y="482" type="line"/>
      <point x="1411" y="221" type="line"/>
      <point x="1295" y="98" type="line"/>
      <point x="1034" y="359" type="line"/>
    </contour>
  </outline>
</glyph>
<glyph name="yen" format="2">
  <advance width="1792"/>
  <unicode hex="00A5"/>
  <outline>
    <contour>
      <point x="436" y="631" type="line"/>
      <point x="406" y="757" type="line"/>
      <point x="1384" y="757" type="line"/>
      <point x="1354" y="631" type="line"/>
    </contour>
    <contour>
      <point x="807" y="621" type="line"/>
      <point x="531" y="982" type="line"/>
      <point x="239" y="1360" type="line"/>
      <point x="38" y="1386" type="line"/>
      <point x="38" y="1500" type="line"/>
      <point x="648" y="1500" type="line"/>
      <point x="648" y="1386" type="line"/>
      <point x="451" y="1351" type="line"/>
      <point x="674" y="1061" type="line"/>
      <point x="928" y="738" type="line"/>
      <point x="1184" y="1078" type="line"/>
      <point x="1392" y="1358" type="line"/>
      <point x="1166" y="1386" type="line"/>
      <point x="1166" y="1500" type="line"/>
      <point x="1754" y="1500" type="line"/>
      <point x="1754" y="1386" type="line"/>
      <point x="1546" y="1359" type="line"/>
      <point x="1279" y="1011" type="line"/>
      <point x="987" y="626" type="line"/>
      <point x="989" y="135" type="line"/>
      <point x="1247" y="100" type="line"/>
      <point x="1247" y="0" type="line"/>
      <point x="544" y="0" type="line"/>
      <point x="544" y="100" type="line"/>
      <point x="805" y="135" type="line"/>
    </contour>
    <contour>
      <point x="496" y="331" type="line"/>
      <point x="466" y="457" type="line"/>
      <point x="1324" y="457" type="line"/>
      <point x="1294" y="331" type="line"/>
    </contour>
  </outline>
</glyph>
<glyph name="brokenbar" format="2">
  <advance width="710"/>
  <unicode hex="00A6"/>
  <outline>
    <contour>
      <point x="275" y="688" type="line"/>
      <point x="284" y="900" type="line"/>
      <point x="272" y="1208" type="line"/>
      <point x="260" y="1480" type="line"/>
      <point x="450" y="1550" type="line"/>
      <point x="438" y="1208" type="line"/>
      <point x="424" y="900" type="line"/>
      <point x="426" y="738" type="line"/>
    </contour>
    <contour>
      <point x="260" y="-540" type="line"/>
      <point x="272" y="-128" type="line"/>
      <point x="286" y="180" type="line"/>
      <point x="284" y="348" type="line"/>
      <point x="435" y="408" type="line"/>
      <point x="426" y="180" type="line"/>
      <point x="438" y="-128" type="line"/>
      <point x="450" y="-451" type="line"/>
    </contour>
  </outline>
</glyph>
<glyph name="section" format="2">
  <advance width="1483"/>
  <unicode hex="00A7"/>
  <outline>
    <contour>
      <point x="1292" y="137" type="qcurve" smooth="yes"/>
      <point x="1292" y="-35"/>
      <point x="1013" y="-253"/>
      <point x="780" y="-253" type="qcurve" smooth="yes"/>
      <point x="643" y="-253"/>
      <point x="453" y="-187"/>
      <point x="377" y="-135" type="qcurve"/>
      <point x="336" y="-235" type="line"/>
      <point x="240" y="-235" type="line"/>
      <point x="240" y="196" type="line"/>
      <point x="346" y="196" type="line"/>
      <point x="372" y="103" type="line" smooth="yes"/>
      <point x="408" y="-24"/>
      <point x="614" y="-134"/>
      <point x="760" y="-134" type="qcurve" smooth="yes"/>
      <point x="960" y="-134"/>
      <point x="1136" y="-9"/>
      <point x="1136" y="94" type="qcurve" smooth="yes"/>
      <point x="1136" y="219"/>
      <point x="897" y="333"/>
      <point x="643" y="400" type="qcurve" smooth="yes"/>
      <point x="436" y="455"/>
      <point x="216" y="633"/>
      <point x="216" y="774" type="qcurve" smooth="yes"/>
      <point x="216" y="853"/>
      <point x="305" y="987"/>
      <point x="384" y="1030" type="qcurve"/>
      <point x="329" y="1061"/>
      <point x="268" y="1155"/>
      <point x="268" y="1239" type="qcurve" smooth="yes"/>
      <point x="268" y="1349"/>
      <point x="498" y="1512"/>
      <point x="706" y="1512" type="qcurve" smooth="yes"/>
      <point x="821" y="1512"/>
      <point x="981" y="1472"/>
      <point x="1038" y="1449" type="qcurve"/>
      <point x="1052" y="1480" type="line"/>
      <point x="1143" y="1480" type="line"/>
      <point x="1143" y="1184" type="line"/>
      <point x="1037" y="1184" type="line"/>
      <point x="1007" y="1297" type="line" smooth="yes"/>
      <point x="994" y="1341"/>
      <point x="835" y="1401"/>
      <point x="713" y="1401" type="qcurve" smooth="yes"/>
      <point x="562" y="1401"/>
      <point x="424" y="1329"/>
      <point x="424" y="1270" type="qcurve" smooth="yes"/>
      <point x="424" y="1205"/>
      <point x="551" y="1127"/>
      <point x="786" y="1085" type="qcurve" smooth="yes"/>
      <point x="1003" y="1045"/>
      <point x="1261" y="909"/>
      <point x="1261" y="768" type="qcurve" smooth="yes"/>
      <point x="1261" y="666"/>
      <point x="1113" y="511"/>
      <point x="982" y="481" type="qcurve"/>
      <point x="1124" y="435"/>
      <point x="1292" y="267"/>
    </contour>
    <contour>
      <point x="360" y="810" type="qcurve" smooth="yes"/>
      <point x="360" y="729"/>
      <point x="519" y="603"/>
      <point x="756" y="540" type="qcurve"/>
      <point x="909" y="541"/>
      <point x="1113" y="653"/>
      <point x="1113" y="740" type="qcurve" smooth="yes"/>
      <point x="1113" y="824"/>
      <point x="906" y="902"/>
      <point x="658" y="948" type="qcurve" smooth="yes"/>
      <point x="617" y="956"/>
      <point x="530" y="980"/>
      <point x="499" y="989" type="qcurve"/>
      <point x="428" y="969"/>
      <point x="360" y="870"/>
    </contour>
  </outline>
</glyph>
<glyph name="ordfeminine" format="2">
  <advance width="1315"/>
  <unicode hex="00AA"/>
  <outline>
    <contour>
      <point x="157" y="882" type="qcurve" smooth="yes"/>
      <point x="157" y="1006"/>
      <point x="531" y="1185"/>
      <point x="935" y="1215" type="qcurve"/>
      <point x="948" y="1128" type="line"/>
      <point x="665" y="1104"/>
      <point x="318" y="1012"/>
      <point x="318" y="899" type="qcurve" smooth="yes"/>
      <point x="318" y="837"/>
      <point x="443" y="782"/>
      <point x="538" y="782" type="qcurve" smooth="yes"/>
      <point x="636" y="782"/>
      <point x="853" y="860"/>
      <point x="896" y="905" type="qcurve"/>
      <point x="899" y="1202" type="line" smooth="yes"/>
      <point x="900" y="1351"/>
      <point x="768" y="1439"/>
      <point x="647" y="1439" type="qcurve" smooth="yes"/>
      <point x="529" y="1439"/>
      <point x="381" y="1404"/>
      <point x="339" y="1383" type="qcurve"/>
      <point x="362" y="1367"/>
      <point x="387" y="1326"/>
      <point x="388" y="1310" type="qcurve" smooth="yes"/>
      <point x="394" y="1277"/>
      <point x="348" y="1231"/>
      <point x="310" y="1231" type="qcurve" smooth="yes"/>
      <point x="268" y="1231"/>
      <point x="218" y="1297"/>
      <point x="218" y="1339" type="qcurve" smooth="yes"/>
      <point x="218" y="1430"/>
      <point x="469" y="1543"/>
      <point x="661" y="1543" type="qcurve" smooth="yes"/>
      <point x="852" y="1543"/>
      <point x="1048" y="1386"/>
      <point x="1050" y="1194" type="qcurve" smooth="yes"/>
      <point x="1055" y="780" type="line"/>
      <point x="1185" y="751" type="line"/>
      <point x="1185" y="684" type="line"/>
      <point x="964" y="684" type="line"/>
      <point x="920" y="734" type="line"/>
      <point x="910" y="791" type="line"/>
      <point x="850" y="749"/>
      <point x="600" y="670"/>
      <point x="462" y="670" type="qcurve" smooth="yes"/>
      <point x="327" y="670"/>
      <point x="157" y="775"/>
    </contour>
  </outline>
</glyph>
<glyph name="guillemotleft" format="2">
  <advance width="1573"/>
  <unicode hex="00AB"/>
  <outline>
    <contour>
      <point x="25" y="624" type="line"/>
      <point x="138" y="677"/>
      <point x="800" y="987"/>
      <point x="897" y="1031" type="qcurve" smooth="yes"/>
      <point x="971" y="1066"/>
      <point x="1038" y="958"/>
      <point x="970" y="923" type="qcurve" smooth="yes"/>
      <point x="864" y="870"/>
      <point x="326" y="632"/>
      <point x="283" y="613" type="qcurve"/>
      <point x="325" y="590"/>
      <point x="866" y="334"/>
      <point x="965" y="282" type="qcurve" smooth="yes"/>
      <point x="1033" y="246"/>
      <point x="983" y="136"/>
      <point x="907" y="166" type="qcurve" smooth="yes"/>
      <point x="838" y="193"/>
      <point x="121" y="533"/>
      <point x="25" y="584" type="qcurve"/>
    </contour>
    <contour>
      <point x="557" y="624" type="line"/>
      <point x="670" y="677"/>
      <point x="1332" y="987"/>
      <point x="1429" y="1031" type="qcurve" smooth="yes"/>
      <point x="1503" y="1066"/>
      <point x="1570" y="958"/>
      <point x="1502" y="923" type="qcurve" smooth="yes"/>
      <point x="1397" y="870"/>
      <point x="858" y="632"/>
      <point x="815" y="613" type="qcurve"/>
      <point x="857" y="590"/>
      <point x="1399" y="334"/>
      <point x="1498" y="282" type="qcurve" smooth="yes"/>
      <point x="1565" y="246"/>
      <point x="1515" y="136"/>
      <point x="1439" y="166" type="qcurve" smooth="yes"/>
      <point x="1370" y="193"/>
      <point x="654" y="533"/>
      <point x="557" y="584" type="qcurve"/>
    </contour>
  </outline>
</glyph>
<glyph name="registered" format="2">
  <advance width="2154"/>
  <unicode hex="00AE"/>
  <outline>
    <contour>
      <point x="154" y="685" type="qcurve" smooth="yes"/>
      <point x="154" y="1061"/>
      <point x="675" y="1570"/>
      <point x="1079" y="1570" type="qcurve" smooth="yes"/>
      <point x="1481" y="1570"/>
      <point x="2000" y="1087"/>
      <point x="2000" y="706" type="qcurve" smooth="yes"/>
      <point x="2000" y="288"/>
      <point x="1488" y="-242"/>
      <point x="1091" y="-242" type="qcurve" smooth="yes"/>
      <point x="682" y="-242"/>
      <point x="154" y="276"/>
    </contour>
    <contour>
      <point x="319" y="681" type="qcurve" smooth="yes"/>
      <point x="319" y="335"/>
      <point x="776" y="-118"/>
      <point x="1107" y="-118" type="qcurve" smooth="yes"/>
      <point x="1428" y="-118"/>
      <point x="1835" y="360"/>
      <point x="1835" y="698" type="qcurve" smooth="yes"/>
      <point x="1835" y="1007"/>
      <point x="1405" y="1446"/>
      <point x="1059" y="1446" type="qcurve" smooth="yes"/>
      <point x="731" y="1446"/>
      <point x="319" y="998"/>
    </contour>
    <contour>
      <point x="648" y="176" type="line"/>
      <point x="638" y="266" type="line"/>
      <point x="755" y="290" type="line"/>
      <point x="766" y="723" type="line"/>
      <point x="755" y="1088" type="line"/>
      <point x="628" y="1111" type="line"/>
      <point x="628" y="1209" type="line"/>
      <point x="1101" y="1209" type="line" smooth="yes"/>
      <point x="1259" y="1209"/>
      <point x="1412" y="1082"/>
      <point x="1412" y="968" type="qcurve" smooth="yes"/>
      <point x="1412" y="841"/>
      <point x="1225" y="664"/>
      <point x="1099" y="664" type="qcurve" smooth="yes"/>
      <point x="1048" y="664"/>
      <point x="908" y="673"/>
      <point x="884" y="673" type="qcurve"/>
      <point x="884" y="758" type="line"/>
      <point x="1041" y="758" type="line" smooth="yes"/>
      <point x="1160" y="758"/>
      <point x="1244" y="868"/>
      <point x="1244" y="959" type="qcurve" smooth="yes"/>
      <point x="1244" y="1039"/>
      <point x="1152" y="1108"/>
      <point x="1049" y="1108" type="qcurve" smooth="yes"/>
      <point x="942" y="1108" type="line"/>
      <point x="921" y="1095" type="line"/>
      <point x="908" y="723" type="line"/>
      <point x="919" y="290" type="line"/>
      <point x="1051" y="266" type="line"/>
      <point x="1051" y="176" type="line"/>
    </contour>
    <contour>
      <point x="1002" y="710" type="line"/>
      <point x="1153" y="738" type="line"/>
      <point x="1403" y="393" type="line" smooth="yes"/>
      <point x="1474" y="295"/>
      <point x="1569" y="266"/>
      <point x="1611" y="266" type="qcurve"/>
      <point x="1611" y="176" type="line"/>
      <point x="1420" y="176" type="line"/>
      <point x="1378" y="190" type="line"/>
    </contour>
  </outline>
</glyph>
<glyph name="plusminus" format="2">
  <advance width="1658"/>
  <unicode hex="00B1"/>
  <outline>
    <contour>
      <point x="168" y="688" type="line"/>
      <point x="168" y="841" type="line"/>
      <point x="1490" y="841" type="line"/>
      <point x="1490" y="688" type="line"/>
    </contour>
    <contour>
      <point x="748" y="238" type="line"/>
      <point x="748" y="1294" type="line"/>
      <point x="910" y="1294" type="line"/>
      <point x="910" y="238" type="line"/>
    </contour>
    <contour>
      <point x="168" y="25" type="line"/>
      <point x="168" y="171" type="line"/>
      <point x="1490" y="171" type="line"/>
      <point x="1490" y="25" type="line"/>
    </contour>
  </outline>
</glyph>
<glyph name="twosuperior" format="2">
  <advance width="1191"/>
  <unicode hex="00B2"/>
  <outline>
    <contour>
      <point x="171" y="671" type="line"/>
      <point x="168" y="778" type="line"/>
      <point x="191" y="852"/>
      <point x="358" y="1008"/>
      <point x="571" y="1083" type="qcurve" smooth="yes"/>
      <point x="745" y="1145"/>
      <point x="839" y="1233"/>
      <point x="835" y="1298" type="qcurve" smooth="yes"/>
      <point x="831" y="1355"/>
      <point x="701" y="1409"/>
      <point x="617" y="1409" type="qcurve" smooth="yes"/>
      <point x="487" y="1409"/>
      <point x="321" y="1365"/>
      <point x="234" y="1315" type="qcurve"/>
      <point x="160" y="1398" type="line"/>
      <point x="227" y="1449"/>
      <point x="441" y="1520"/>
      <point x="603" y="1520" type="qcurve" smooth="yes"/>
      <point x="774" y="1520"/>
      <point x="998" y="1413"/>
      <point x="998" y="1306" type="qcurve" smooth="yes"/>
      <point x="998" y="1185"/>
      <point x="790" y="1049"/>
      <point x="658" y="1004" type="qcurve" smooth="yes"/>
      <point x="478" y="942"/>
      <point x="324" y="861"/>
      <point x="305" y="827" type="qcurve"/>
      <point x="305" y="801" type="line"/>
      <point x="1027" y="801" type="line"/>
      <point x="1027" y="671" type="line"/>
    </contour>
  </outline>
</glyph>
<glyph name="threesuperior" format="2">
  <advance width="853"/>
  <unicode hex="00B3"/>
  <outline>
    <contour>
      <point x="95" y="739" type="qcurve"/>
      <point x="146" y="832" type="line"/>
      <point x="205" y="789"/>
      <point x="314" y="755"/>
      <point x="395" y="755" type="qcurve" smooth="yes"/>
      <point x="474" y="755"/>
      <point x="567" y="825"/>
      <point x="567" y="908" type="qcurve" smooth="yes"/>
      <point x="567" y="989"/>
      <point x="432" y="1059"/>
      <point x="301" y="1059" type="qcurve" smooth="yes"/>
      <point x="270" y="1059" type="line"/>
      <point x="254" y="1154" type="line"/>
      <point x="317" y="1157" type="line" smooth="yes"/>
      <point x="437" y="1163"/>
      <point x="542" y="1240"/>
      <point x="542" y="1310" type="qcurve" smooth="yes"/>
      <point x="542" y="1364"/>
      <point x="478" y="1416"/>
      <point x="410" y="1416" type="qcurve" smooth="yes"/>
      <point x="337" y="1416"/>
      <point x="236" y="1381"/>
      <point x="180" y="1347" type="qcurve"/>
      <point x="139" y="1422" type="line"/>
      <point x="194" y="1468"/>
      <point x="333" y="1520"/>
      <point x="430" y="1520" type="qcurve" smooth="yes"/>
      <point x="558" y="1520"/>
      <point x="697" y="1418"/>
      <point x="697" y="1337" type="qcurve" smooth="yes"/>
      <point x="697" y="1252"/>
      <point x="581" y="1142"/>
      <point x="467" y="1118" type="qcurve"/>
      <point x="467" y="1114" type="line"/>
      <point x="586" y="1111"/>
      <point x="722" y="1001"/>
      <point x="722" y="905" type="qcurve" smooth="yes"/>
      <point x="722" y="783"/>
      <point x="546" y="649"/>
      <point x="396" y="649" type="qcurve" smooth="yes"/>
      <point x="310" y="649"/>
      <point x="147" y="697"/>
    </contour>
  </outline>
</glyph>
<glyph name="micro" format="2">
  <advance width="1610"/>
  <unicode hex="00B5"/>
  <outline>
    <contour>
      <point x="73" y="-317" type="line"/>
      <point x="109" y="-295" type="line"/>
      <point x="148" y="-137"/>
      <point x="209" y="112"/>
      <point x="221" y="181" type="qcurve" smooth="yes"/>
      <point x="333" y="822" type="line"/>
      <point x="191" y="819" type="line"/>
      <point x="193" y="915" type="line"/>
      <point x="426" y="1002" type="line"/>
      <point x="471" y="1002" type="line"/>
      <point x="513" y="923" type="line"/>
      <point x="396" y="312" type="line" smooth="yes"/>
      <point x="379" y="225"/>
      <point x="450" y="167"/>
      <point x="564" y="167" type="qcurve" smooth="yes"/>
      <point x="702" y="167"/>
      <point x="1012" y="285"/>
      <point x="1102" y="352" type="qcurve"/>
      <point x="1216" y="976" type="line"/>
      <point x="1207" y="1000" type="line"/>
      <point x="1340" y="1021" type="line"/>
      <point x="1382" y="942" type="line"/>
      <point x="1265" y="362" type="line"/>
      <point x="1239" y="134" type="line"/>
      <point x="1375" y="134" type="line"/>
      <point x="1377" y="47" type="line"/>
      <point x="1119" y="-15" type="line"/>
      <point x="1077" y="76" type="line"/>
      <point x="1085" y="215" type="line"/>
      <point x="974" y="136"/>
      <point x="640" y="23"/>
      <point x="497" y="23" type="qcurve" smooth="yes"/>
      <point x="450" y="23"/>
      <point x="380" y="35"/>
      <point x="342" y="48" type="qcurve"/>
      <point x="285" y="-274" type="line"/>
      <point x="431" y="-282" type="line"/>
      <point x="423" y="-371" type="line"/>
      <point x="96" y="-399" type="line"/>
    </contour>
  </outline>
</glyph>
<glyph name="guillemotright" format="2">
  <advance width="1296"/>
  <unicode hex="00BB"/>
  <outline>
    <contour>
      <point x="1264" y="580" type="line"/>
      <point x="1180" y="532"/>
      <point x="683" y="225"/>
      <point x="611" y="180" type="qcurve" smooth="yes"/>
      <point x="541" y="136"/>
      <point x="459" y="233"/>
      <point x="525" y="279" type="qcurve" smooth="yes"/>
      <point x="615" y="343"/>
      <point x="977" y="574"/>
      <point x="1007" y="591" type="qcurve"/>
      <point x="977" y="614"/>
      <point x="613" y="857"/>
      <point x="521" y="921" type="qcurve" smooth="yes"/>
      <point x="456" y="965"/>
      <point x="519" y="1068"/>
      <point x="592" y="1030" type="qcurve" smooth="yes"/>
      <point x="658" y="996"/>
      <point x="1189" y="668"/>
      <point x="1264" y="620" type="qcurve"/>
    </contour>
    <contour>
      <point x="803" y="580" type="line"/>
      <point x="719" y="532"/>
      <point x="222" y="225"/>
      <point x="150" y="180" type="qcurve" smooth="yes"/>
      <point x="80" y="136"/>
      <point x="-2" y="233"/>
      <point x="64" y="279" type="qcurve" smooth="yes"/>
      <point x="155" y="343"/>
      <point x="516" y="574"/>
      <point x="546" y="591" type="qcurve"/>
      <point x="516" y="614"/>
      <point x="152" y="857"/>
      <point x="60" y="921" type="qcurve" smooth="yes"/>
      <point x="-5" y="965"/>
      <point x="58" y="1068"/>
      <point x="131" y="1030" type="qcurve" smooth="yes"/>
      <point x="197" y="996"/>
      <point x="728" y="668"/>
      <point x="803" y="620" type="qcurve"/>
    </contour>
  </outline>
</glyph>
<glyph name="questiondown" format="2">
  <advance width="1114"/>
  <unicode hex="00BF"/>
  <outline>
    <contour>
      <point x="795" y="1204" type="qcurve" smooth="yes"/>
      <point x="795" y="1145"/>
      <point x="713" y="1059"/>
      <point x="650" y="1059" type="qcurve" smooth="yes"/>
      <point x="586" y="1059"/>
      <point x="505" y="1145"/>
      <point x="505" y="1204" type="qcurve" smooth="yes"/>
      <point x="505" y="1261"/>
      <point x="586" y="1348"/>
      <point x="650" y="1348" type="qcurve" smooth="yes"/>
      <point x="713" y="1348"/>
      <point x="795" y="1261"/>
    </contour>
    <contour>
      <point x="993" y="93" type="qcurve" smooth="yes"/>
      <point x="993" y="-50"/>
      <point x="760" y="-214"/>
      <point x="555" y="-214" type="qcurve" smooth="yes"/>
      <point x="356" y="-214"/>
      <point x="108" y="-22"/>
      <point x="108" y="163" type="qcurve" smooth="yes"/>
      <point x="108" y="356"/>
      <point x="344" y="555"/>
      <point x="429" y="589" type="qcurve" smooth="yes"/>
      <point x="505" y="619"/>
      <point x="613" y="720"/>
      <point x="613" y="803" type="qcurve" smooth="yes"/>
      <point x="613" y="890" type="line"/>
      <point x="713" y="890" type="line"/>
      <point x="728" y="806" type="line" smooth="yes"/>
      <point x="741" y="731"/>
      <point x="642" y="570"/>
      <point x="530" y="506" type="qcurve" smooth="yes"/>
      <point x="440" y="454"/>
      <point x="299" y="326"/>
      <point x="299" y="185" type="qcurve" smooth="yes"/>
      <point x="299" y="50"/>
      <point x="458" y="-103"/>
      <point x="588" y="-103" type="qcurve" smooth="yes"/>
      <point x="710" y="-103"/>
      <point x="848" y="-16"/>
      <point x="848" y="37" type="qcurve" smooth="yes"/>
      <point x="848" y="66"/>
      <point x="726" y="122"/>
      <point x="724" y="172" type="qcurve" smooth="yes"/>
      <point x="721" y="212"/>
      <point x="783" y="276"/>
      <point x="843" y="276" type="qcurve" smooth="yes"/>
      <point x="910" y="276"/>
      <point x="993" y="183"/>
    </contour>
  </outline>
</glyph>
<glyph name="AE" format="2">
  <advance width="2142"/>
  <unicode hex="00C6"/>
  <anchor x="1146" y="1500" name="top"/>
  <outline>
    <contour>
      <point x="7" y="0" type="line"/>
      <point x="7" y="100" type="line"/>
      <point x="235" y="135" type="line"/>
      <point x="481" y="540" type="line"/>
      <point x="961" y="1367" type="line"/>
      <point x="804" y="1386" type="line"/>
      <point x="804" y="1500" type="line"/>
      <point x="1902" y="1500" type="line"/>
      <point x="1902" y="1152" type="line"/>
      <point x="1792" y="1152" type="line"/>
      <point x="1757" y="1382" type="line"/>
      <point x="1264" y="1382" type="line"/>
      <point x="1235" y="1362" type="line"/>
      <point x="1233" y="783" type="line"/>
      <point x="1235" y="132" type="line"/>
      <point x="1265" y="108" type="line"/>
      <point x="1820" y="108" type="line"/>
      <point x="1896" y="378" type="line"/>
      <point x="2006" y="378" type="line"/>
      <point x="1966" y="0" type="line"/>
      <point x="804" y="0" type="line"/>
      <point x="804" y="100" type="line"/>
      <point x="1052" y="137" type="line"/>
      <point x="1054" y="783" type="line"/>
      <point x="1052" y="1266" type="line"/>
      <point x="1028" y="1292" type="line"/>
      <point x="586" y="503" type="line"/>
      <point x="385" y="130" type="line"/>
      <point x="603" y="100" type="line"/>
      <point x="603" y="0" type="line"/>
    </contour>
    <contour>
      <point x="485" y="448" type="line"/>
      <point x="551" y="567" type="line"/>
      <point x="813" y="552" type="line"/>
      <point x="813" y="448" type="line"/>
    </contour>
    <contour>
      <point x="813" y="552" type="line"/>
      <point x="1157" y="568" type="line"/>
      <point x="1157" y="448" type="line"/>
      <point x="813" y="448" type="line"/>
    </contour>
    <contour>
      <point x="1147" y="738" type="line"/>
      <point x="1147" y="834" type="line"/>
      <point x="1611" y="844" type="line"/>
      <point x="1646" y="1004" type="line"/>
      <point x="1756" y="1004" type="line"/>
      <point x="1756" y="568" type="line"/>
      <point x="1646" y="568" type="line"/>
      <point x="1611" y="728" type="line"/>
    </contour>
  </outline>
</glyph>
<glyph name="multiply" format="2">
  <advance width="1552"/>
  <unicode hex="00D7"/>
  <outline>
    <contour>
      <point x="378" y="133" type="line"/>
      <point x="277" y="234" type="line"/>
      <point x="1174" y="1131" type="line"/>
      <point x="1275" y="1030" type="line"/>
    </contour>
    <contour>
      <point x="1169" y="128" type="line"/>
      <point x="272" y="1025" type="line"/>
      <point x="383" y="1136" type="line"/>
      <point x="1280" y="239" type="line"/>
    </contour>
  </outline>
</glyph>
<glyph name="Thorn" format="2">
  <advance width="1444"/>
  <unicode hex="00DE"/>
  <outline>
    <contour>
      <point x="130" y="0" type="line"/>
      <point x="130" y="100" type="line"/>
      <point x="378" y="137" type="line"/>
      <point x="380" y="754" type="line"/>
      <point x="378" y="1352" type="line"/>
      <point x="130" y="1386" type="line"/>
      <point x="130" y="1500" type="line"/>
      <point x="826" y="1500" type="line"/>
      <point x="826" y="1400" type="line"/>
      <point x="559" y="1360" type="line"/>
      <point x="557" y="1260" type="line"/>
      <point x="817" y="1260" type="line" smooth="yes"/>
      <point x="1056" y="1260"/>
      <point x="1306" y="1044"/>
      <point x="1306" y="832" type="qcurve" smooth="yes"/>
      <point x="1306" y="626"/>
      <point x="1041" y="359"/>
      <point x="801" y="359" type="qcurve" smooth="yes"/>
      <point x="692" y="359"/>
      <point x="523" y="380"/>
      <point x="476" y="388" type="qcurve"/>
      <point x="485" y="494" type="line"/>
      <point x="544" y="481"/>
      <point x="659" y="472"/>
      <point x="761" y="472" type="qcurve" smooth="yes"/>
      <point x="932" y="472"/>
      <point x="1111" y="663"/>
      <point x="1111" y="832" type="qcurve" smooth="yes"/>
      <point x="1111" y="987"/>
      <point x="941" y="1142"/>
      <point x="781" y="1142" type="qcurve" smooth="yes"/>
      <point x="558" y="1142" type="line"/>
      <point x="556" y="764" type="line"/>
      <point x="558" y="132" type="line"/>
      <point x="826" y="100" type="line"/>
      <point x="826" y="0" type="line"/>
    </contour>
  </outline>
</glyph>
<glyph name="germandbls" format="2">
  <advance width="1516"/>
  <unicode hex="00DF"/>
  <outline>
    <contour>
      <point x="1163" y="1222" type="qcurve" smooth="yes"/>
      <point x="1163" y="1080"/>
      <point x="1029" y="958"/>
      <point x="930" y="922" type="qcurve" smooth="yes"/>
      <point x="882" y="905"/>
      <point x="815" y="850"/>
      <point x="815" y="791" type="qcurve" smooth="yes"/>
      <point x="815" y="729"/>
      <point x="925" y="652"/>
      <point x="1032" y="623" type="qcurve" smooth="yes"/>
      <point x="1196" y="579"/>
      <point x="1380" y="433"/>
      <point x="1380" y="288" type="qcurve" smooth="yes"/>
      <point x="1380" y="160"/>
      <point x="1185" y="-23"/>
      <point x="1044" y="-23" type="qcurve" smooth="yes"/>
      <point x="948" y="-23"/>
      <point x="822" y="31"/>
      <point x="767" y="73" type="qcurve"/>
      <point x="728" y="0" type="line"/>
      <point x="633" y="0" type="line"/>
      <point x="633" y="343" type="line"/>
      <point x="744" y="343" type="line"/>
      <point x="755" y="280" type="line" smooth="yes"/>
      <point x="771" y="194"/>
      <point x="921" y="88"/>
      <point x="1018" y="88" type="qcurve" smooth="yes"/>
      <point x="1098" y="88"/>
      <point x="1222" y="177"/>
      <point x="1222" y="260" type="qcurve" smooth="yes"/>
      <point x="1222" y="344"/>
      <point x="1094" y="426"/>
      <point x="961" y="469" type="qcurve" smooth="yes"/>
      <point x="788" y="526"/>
      <point x="661" y="650"/>
      <point x="661" y="759" type="qcurve" smooth="yes"/>
      <point x="661" y="869"/>
      <point x="785" y="982"/>
      <point x="876" y="1019" type="qcurve" smooth="yes"/>
      <point x="958" y="1052"/>
      <point x="1028" y="1138"/>
      <point x="1028" y="1213" type="qcurve" smooth="yes"/>
      <point x="1028" y="1296"/>
      <point x="917" y="1405"/>
      <point x="793" y="1405" type="qcurve" smooth="yes"/>
      <point x="643" y="1405"/>
      <point x="473" y="1244"/>
      <point x="475" y="1069" type="qcurve"/>
      <point x="479" y="527" type="line"/>
      <point x="492" y="45" type="line"/>
      <point x="463" y="0" type="line"/>
      <point x="142" y="0" type="line"/>
      <point x="142" y="84" type="line"/>
      <point x="310" y="119" type="line"/>
      <point x="312" y="527" type="line"/>
      <point x="315" y="1104" type="line" smooth="yes"/>
      <point x="316" y="1287"/>
      <point x="599" y="1518"/>
      <point x="797" y="1518" type="qcurve" smooth="yes"/>
      <point x="973" y="1518"/>
      <point x="1163" y="1355"/>
    </contour>
  </outline>
</glyph>
<glyph name="ae" format="2">
  <advance width="1877"/>
  <unicode hex="00E6"/>
  <anchor x="933" y="1000" name="top"/>
  <outline>
    <contour>
      <point x="170" y="247" type="qcurve" smooth="yes"/>
      <point x="170" y="384"/>
      <point x="477" y="573"/>
      <point x="829" y="621" type="qcurve"/>
      <point x="838" y="534" type="line"/>
      <point x="610" y="505"/>
      <point x="354" y="391"/>
      <point x="354" y="256" type="qcurve" smooth="yes"/>
      <point x="354" y="182"/>
      <point x="437" y="98"/>
      <point x="523" y="98" type="qcurve" smooth="yes"/>
      <point x="616" y="98"/>
      <point x="804" y="195"/>
      <point x="851" y="258" type="qcurve"/>
      <point x="836" y="287"/>
      <point x="810" y="426"/>
      <point x="810" y="486" type="qcurve" smooth="yes"/>
      <point x="810" y="617" type="line" smooth="yes"/>
      <point x="810" y="793"/>
      <point x="701" y="906"/>
      <point x="606" y="906" type="qcurve" smooth="yes"/>
      <point x="516" y="906"/>
      <point x="401" y="862"/>
      <point x="369" y="832" type="qcurve"/>
      <point x="390" y="811"/>
      <point x="414" y="767"/>
      <point x="417" y="747" type="qcurve" smooth="yes"/>
      <point x="424" y="708"/>
      <point x="379" y="652"/>
      <point x="336" y="652" type="qcurve" smooth="yes"/>
      <point x="293" y="652"/>
      <point x="240" y="729"/>
      <point x="240" y="794" type="qcurve" smooth="yes"/>
      <point x="240" y="888"/>
      <point x="459" y="1023"/>
      <point x="616" y="1023" type="qcurve" smooth="yes"/>
      <point x="751" y="1023"/>
      <point x="895" y="925"/>
      <point x="922" y="854" type="qcurve"/>
      <point x="928" y="854" type="line"/>
      <point x="963" y="913"/>
      <point x="1155" y="1022"/>
      <point x="1284" y="1022" type="qcurve" smooth="yes"/>
      <point x="1480" y="1022"/>
      <point x="1696" y="793"/>
      <point x="1716" y="588" type="qcurve"/>
      <point x="1716" y="528" type="line"/>
      <point x="951" y="528" type="line"/>
      <point x="951" y="624" type="line"/>
      <point x="1545" y="624" type="line"/>
      <point x="1527" y="763"/>
      <point x="1380" y="908"/>
      <point x="1268" y="908" type="qcurve" smooth="yes"/>
      <point x="1130" y="908"/>
      <point x="975" y="700"/>
      <point x="976" y="520" type="qcurve" smooth="yes"/>
      <point x="977" y="319"/>
      <point x="1178" y="108"/>
      <point x="1343" y="108" type="qcurve" smooth="yes"/>
      <point x="1446" y="108"/>
      <point x="1582" y="151"/>
      <point x="1628" y="189" type="qcurve"/>
      <point x="1679" y="129" type="line"/>
      <point x="1632" y="65"/>
      <point x="1454" y="-22"/>
      <point x="1322" y="-22" type="qcurve" smooth="yes"/>
      <point x="1147" y="-22"/>
      <point x="946" y="100"/>
      <point x="908" y="172" type="qcurve"/>
      <point x="855" y="110"/>
      <point x="617" y="-16"/>
      <point x="466" y="-16" type="qcurve" smooth="yes"/>
      <point x="314" y="-16"/>
      <point x="170" y="142"/>
    </contour>
  </outline>
</glyph>
<glyph name="eth" format="2">
  <advance width="1356"/>
  <unicode hex="00F0"/>
  <outline>
    <contour>
      <point x="152" y="490" type="qcurve" smooth="yes"/>
      <point x="152" y="707"/>
      <point x="440" y="1004"/>
      <point x="674" y="1004" type="qcurve" smooth="yes"/>
      <point x="909" y="1004"/>
      <point x="1128" y="721"/>
      <point x="1139" y="496" type="qcurve"/>
      <point x="1017" y="496" type="line"/>
      <point x="1037" y="661"/>
      <point x="851" y="888"/>
      <point x="674" y="888" type="qcurve" smooth="yes"/>
      <point x="510" y="888"/>
      <point x="335" y="690"/>
      <point x="336" y="510" type="qcurve" smooth="yes"/>
      <point x="337" y="329"/>
      <point x="521" y="87"/>
      <point x="672" y="88" type="qcurve" smooth="yes"/>
      <point x="845" y="89"/>
      <point x="1023" y="363"/>
      <point x="1023" y="621" type="qcurve" smooth="yes"/>
      <point x="1023" y="981"/>
      <point x="668" y="1387"/>
      <point x="370" y="1486" type="qcurve"/>
      <point x="406" y="1584" type="line"/>
      <point x="794" y="1474"/>
      <point x="1206" y="952"/>
      <point x="1206" y="624" type="qcurve" smooth="yes"/>
      <point x="1206" y="325"/>
      <point x="931" y="-22"/>
      <point x="679" y="-22" type="qcurve" smooth="yes"/>
      <point x="444" y="-22"/>
      <point x="152" y="257"/>
    </contour>
    <contour>
      <point x="514" y="1214" type="line"/>
      <point x="981" y="1535" type="line"/>
      <point x="1048" y="1446" type="line"/>
      <point x="581" y="1125" type="line"/>
    </contour>
  </outline>
</glyph>
<glyph name="divide" format="2">
  <advance width="1552"/>
  <unicode hex="00F7"/>
  <outline>
    <contour>
      <point x="168" y="556" type="line"/>
      <point x="168" y="708" type="line"/>
      <point x="1384" y="708" type="line"/>
      <point x="1384" y="556" type="line"/>
    </contour>
    <contour>
      <point x="645" y="235" type="qcurve" smooth="yes"/>
      <point x="645" y="287"/>
      <point x="719" y="366"/>
      <point x="776" y="366" type="qcurve" smooth="yes"/>
      <point x="833" y="366"/>
      <point x="907" y="287"/>
      <point x="907" y="235" type="qcurve" smooth="yes"/>
      <point x="907" y="184"/>
      <point x="833" y="105"/>
      <point x="776" y="105" type="qcurve" smooth="yes"/>
      <point x="719" y="105"/>
      <point x="645" y="184"/>
    </contour>
    <contour>
      <point x="645" y="1030" type="qcurve" smooth="yes"/>
      <point x="645" y="1082"/>
      <point x="719" y="1161"/>
      <point x="776" y="1161" type="qcurve" smooth="yes"/>
      <point x="833" y="1161"/>
      <point x="907" y="1082"/>
      <point x="907" y="1030" type="qcurve" smooth="yes"/>
      <point x="907" y="979"/>
      <point x="833" y="900"/>
      <point x="776" y="900" type="qcurve" smooth="yes"/>
      <point x="719" y="900"/>
      <point x="645" y="979"/>
    </contour>
  </outline>
</glyph>
<glyph name="thorn" format="2">
  <advance width="1340"/>
  <unicode hex="00FE"/>
  <outline>
    <contour>
      <point x="107" y="-480" type="line"/>
      <point x="107" y="-396" type="line"/>
      <point x="250" y="-361" type="line"/>
      <point x="252" y="427" type="line"/>
      <point x="251" y="1372" type="line"/>
      <point x="85" y="1402" type="line"/>
      <point x="85" y="1500" type="line"/>
      <point x="365" y="1534" type="line"/>
      <point x="397" y="1534" type="line"/>
      <point x="425" y="1502" type="line"/>
      <point x="424" y="862" type="line"/>
      <point x="474" y="932"/>
      <point x="644" y="1020"/>
      <point x="762" y="1020" type="qcurve" smooth="yes"/>
      <point x="945" y="1020"/>
      <point x="1184" y="754"/>
      <point x="1184" y="530" type="qcurve" smooth="yes"/>
      <point x="1184" y="286"/>
      <point x="936" y="-12"/>
      <point x="728" y="-12" type="qcurve" smooth="yes"/>
      <point x="626" y="-12"/>
      <point x="467" y="48"/>
      <point x="422" y="89" type="qcurve"/>
      <point x="424" y="-361" type="line"/>
      <point x="576" y="-396" type="line"/>
      <point x="576" y="-480" type="line"/>
    </contour>
    <contour>
      <point x="422" y="239" type="line"/>
      <point x="456" y="179"/>
      <point x="604" y="91"/>
      <point x="704" y="91" type="qcurve" smooth="yes"/>
      <point x="840" y="91"/>
      <point x="996" y="313"/>
      <point x="996" y="505" type="qcurve" smooth="yes"/>
      <point x="996" y="688"/>
      <point x="841" y="894"/>
      <point x="709" y="894" type="qcurve" smooth="yes"/>
      <point x="610" y="894"/>
      <point x="466" y="809"/>
      <point x="423" y="743" type="qcurve"/>
      <point x="420" y="427" type="line"/>
    </contour>
  </outline>
</glyph>
<glyph name="idotless" format="2">
  <advance width="819"/>
  <unicode hex="0131"/>
  <anchor x="410" y="0" name="bottom"/>
  <anchor x="410" y="998" name="top"/>
  <anchor x="604" y="0" name="ogonek"/>
  <outline>
    <contour>
      <point x="115" y="0" type="line"/>
      <point x="115" y="84" type="line"/>
      <point x="333" y="119" type="line"/>
      <point x="335" y="527" type="line"/>
      <point x="328" y="836" type="line"/>
      <point x="110" y="866" type="line"/>
      <point x="110" y="964" type="line"/>
      <point x="442" y="998" type="line"/>
      <point x="489" y="998" type="line"/>
      <point x="512" y="959" type="line"/>
      <point x="505" y="527" type="line"/>
      <point x="507" y="119" type="line"/>
      <point x="725" y="84" type="line"/>
      <point x="725" y="0" type="line"/>
    </contour>
  </outline>
</glyph>
<glyph name="kgreenlandic" format="2">
  <advance width="1578"/>
  <unicode hex="0138"/>
  <outline>
    <contour>
      <point x="163" y="0" type="line"/>
      <point x="163" y="84" type="line"/>
      <point x="302" y="119" type="line"/>
      <point x="304" y="526" type="line"/>
      <point x="302" y="879" type="line"/>
      <point x="163" y="914" type="line"/>
      <point x="163" y="998" type="line"/>
      <point x="614" y="998" type="line"/>
      <point x="614" y="914" type="line"/>
      <point x="476" y="879" type="line"/>
      <point x="474" y="506" type="line"/>
      <point x="476" y="119" type="line"/>
      <point x="614" y="84" type="line"/>
      <point x="614" y="0" type="line"/>
    </contour>
    <contour>
      <point x="525" y="503" type="line"/>
      <point x="525" y="610" type="line"/>
      <point x="1070" y="874" type="line"/>
      <point x="927" y="905" type="line"/>
      <point x="928" y="998" type="line"/>
      <point x="1372" y="998" type="line"/>
      <point x="1372" y="905" type="line"/>
      <point x="1211" y="869" type="line"/>
    </contour>
    <contour>
      <point x="619" y="592" type="line"/>
      <point x="777" y="645" type="line"/>
      <point x="1345" y="119" type="line"/>
      <point x="1466" y="84" type="line"/>
      <point x="1466" y="0" type="line"/>
      <point x="1077" y="0" type="line"/>
      <point x="1063" y="83" type="line"/>
      <point x="1125" y="115" type="line"/>
    </contour>
  </outline>
</glyph>
<glyph name="OE" format="2">
  <advance width="2242"/>
  <unicode hex="0152"/>
  <outline>
    <contour>
      <point x="168" y="737" type="qcurve" smooth="yes"/>
      <point x="168" y="1068"/>
      <point x="565" y="1518"/>
      <point x="904" y="1518" type="qcurve" smooth="yes"/>
      <point x="965" y="1518"/>
      <point x="1242" y="1500"/>
      <point x="1302" y="1500" type="qcurve" smooth="yes"/>
      <point x="2002" y="1500" type="line"/>
      <point x="2002" y="1152" type="line"/>
      <point x="1892" y="1152" type="line"/>
      <point x="1857" y="1382" type="line"/>
      <point x="1394" y="1382" type="line"/>
      <point x="1365" y="1362" type="line"/>
      <point x="1363" y="783" type="line"/>
      <point x="1365" y="132" type="line"/>
      <point x="1395" y="108" type="line"/>
      <point x="1920" y="108" type="line"/>
      <point x="1996" y="378" type="line"/>
      <point x="2106" y="378" type="line"/>
      <point x="2066" y="0" type="line"/>
      <point x="1362" y="0" type="line" smooth="yes"/>
      <point x="1299" y="0"/>
      <point x="993" y="-26"/>
      <point x="908" y="-26" type="qcurve" smooth="yes"/>
      <point x="577" y="-26"/>
      <point x="168" y="396"/>
    </contour>
    <contour>
      <point x="363" y="771" type="qcurve" smooth="yes"/>
      <point x="363" y="478"/>
      <point x="656" y="97"/>
      <point x="906" y="97" type="qcurve" smooth="yes"/>
      <point x="984" y="97"/>
      <point x="1124" y="112"/>
      <point x="1182" y="127" type="qcurve"/>
      <point x="1184" y="783" type="line"/>
      <point x="1182" y="1360" type="line"/>
      <point x="1144" y="1366"/>
      <point x="981" y="1388"/>
      <point x="906" y="1388" type="qcurve" smooth="yes"/>
      <point x="633" y="1388"/>
      <point x="363" y="1053"/>
    </contour>
    <contour>
      <point x="1277" y="738" type="line"/>
      <point x="1277" y="834" type="line"/>
      <point x="1711" y="844" type="line"/>
      <point x="1746" y="1004" type="line"/>
      <point x="1856" y="1004" type="line"/>
      <point x="1856" y="568" type="line"/>
      <point x="1746" y="568" type="line"/>
      <point x="1711" y="728" type="line"/>
    </contour>
  </outline>
</glyph>
<glyph name="oe" format="2">
  <advance width="2078"/>
  <unicode hex="0153"/>
  <outline>
    <contour>
      <point x="152" y="500" type="qcurve" smooth="yes"/>
      <point x="152" y="717"/>
      <point x="440" y="1022"/>
      <point x="673" y="1022" type="qcurve" smooth="yes"/>
      <point x="843" y="1022"/>
      <point x="1065" y="881"/>
      <point x="1105" y="806" type="qcurve"/>
      <point x="1117" y="806" type="line"/>
      <point x="1145" y="884"/>
      <point x="1332" y="1022"/>
      <point x="1478" y="1022" type="qcurve" smooth="yes"/>
      <point x="1674" y="1022"/>
      <point x="1897" y="793"/>
      <point x="1917" y="588" type="qcurve"/>
      <point x="1917" y="528" type="line"/>
      <point x="1151" y="528" type="line"/>
      <point x="1151" y="624" type="line"/>
      <point x="1746" y="624" type="line"/>
      <point x="1728" y="763"/>
      <point x="1581" y="908"/>
      <point x="1469" y="908" type="qcurve" smooth="yes"/>
      <point x="1331" y="908"/>
      <point x="1179" y="700"/>
      <point x="1180" y="520" type="qcurve" smooth="yes"/>
      <point x="1181" y="319"/>
      <point x="1379" y="108"/>
      <point x="1544" y="108" type="qcurve" smooth="yes"/>
      <point x="1647" y="108"/>
      <point x="1783" y="151"/>
      <point x="1829" y="189" type="qcurve"/>
      <point x="1880" y="129" type="line"/>
      <point x="1833" y="65"/>
      <point x="1655" y="-22"/>
      <point x="1509" y="-22" type="qcurve" smooth="yes"/>
      <point x="1367" y="-22"/>
      <point x="1127" y="115"/>
      <point x="1085" y="206" type="qcurve"/>
      <point x="1081" y="206" type="line"/>
      <point x="1058" y="123"/>
      <point x="835" y="-22"/>
      <point x="679" y="-22" type="qcurve" smooth="yes"/>
      <point x="445" y="-22"/>
      <point x="152" y="267"/>
    </contour>
    <contour>
      <point x="336" y="520" type="qcurve" smooth="yes"/>
      <point x="337" y="339"/>
      <point x="521" y="88"/>
      <point x="672" y="88" type="qcurve" smooth="yes"/>
      <point x="834" y="88"/>
      <point x="1010" y="317"/>
      <point x="1010" y="506" type="qcurve" smooth="yes"/>
      <point x="1010" y="680"/>
      <point x="826" y="906"/>
      <point x="674" y="906" type="qcurve" smooth="yes"/>
      <point x="510" y="906"/>
      <point x="335" y="700"/>
    </contour>
  </outline>
</glyph>
<glyph name="Schwa" format="2">
  <advance width="1552"/>
  <unicode hex="018F"/>
  <outline>
    <contour>
      <point x="117" y="1199" type="line"/>
      <point x="215" y="1356"/>
      <point x="505" y="1519"/>
      <point x="722" y="1519" type="qcurve" smooth="yes"/>
      <point x="1055" y="1519"/>
      <point x="1419" y="1094"/>
      <point x="1419" y="789" type="qcurve" smooth="yes"/>
      <point x="1419" y="445"/>
      <point x="1035" y="-30"/>
      <point x="745" y="-30" type="qcurve" smooth="yes"/>
      <point x="469" y="-30"/>
      <point x="155" y="281"/>
      <point x="155" y="578" type="qcurve" smooth="yes"/>
      <point x="155" y="686" type="line"/>
      <point x="1281" y="686" type="line"/>
      <point x="1281" y="554" type="line"/>
      <point x="718" y="562" type="line"/>
      <point x="351" y="556" type="line"/>
      <point x="351" y="481" type="line" smooth="yes"/>
      <point x="351" y="315"/>
      <point x="556" y="97"/>
      <point x="755" y="97" type="qcurve" smooth="yes"/>
      <point x="965" y="97"/>
      <point x="1230" y="462"/>
      <point x="1228" y="749" type="qcurve" smooth="yes"/>
      <point x="1226" y="1047"/>
      <point x="913" y="1375"/>
      <point x="704" y="1375" type="qcurve" smooth="yes"/>
      <point x="522" y="1375"/>
      <point x="271" y="1234"/>
      <point x="210" y="1126" type="qcurve"/>
    </contour>
  </outline>
</glyph>
<glyph name="florin" format="2">
  <advance width="1040"/>
  <unicode hex="0192"/>
  <outline>
    <contour>
      <point x="607" y="-8" type="line" smooth="yes"/>
      <point x="609" y="-136"/>
      <point x="431" y="-309"/>
      <point x="299" y="-309" type="qcurve" smooth="yes"/>
      <point x="258" y="-309"/>
      <point x="164" y="-301"/>
      <point x="129" y="-291" type="qcurve" smooth="yes"/>
      <point x="101" y="-284" type="line"/>
      <point x="128" y="-173" type="line"/>
      <point x="165" y="-183" type="line" smooth="yes"/>
      <point x="184" y="-188"/>
      <point x="233" y="-193"/>
      <point x="263" y="-193" type="qcurve" smooth="yes"/>
      <point x="356" y="-193"/>
      <point x="457" y="-85"/>
      <point x="454" y="34" type="qcurve" smooth="yes"/>
      <point x="435" y="860" type="line"/>
      <point x="139" y="872" type="line"/>
      <point x="129" y="966" type="line"/>
      <point x="427" y="984" type="line"/>
      <point x="422" y="1248" type="line" smooth="yes"/>
      <point x="419" y="1378"/>
      <point x="592" y="1518"/>
      <point x="721" y="1518" type="qcurve" smooth="yes"/>
      <point x="767" y="1518"/>
      <point x="860" y="1506"/>
      <point x="897" y="1497" type="qcurve" smooth="yes"/>
      <point x="923" y="1490" type="line"/>
      <point x="901" y="1385" type="line"/>
      <point x="873" y="1393" type="line" smooth="yes"/>
      <point x="856" y="1397"/>
      <point x="802" y="1406"/>
      <point x="771" y="1406" type="qcurve" smooth="yes"/>
      <point x="685" y="1406"/>
      <point x="577" y="1317"/>
      <point x="582" y="1213" type="qcurve" smooth="yes"/>
      <point x="593" y="985" type="line"/>
      <point x="913" y="985" type="line"/>
      <point x="913" y="883" type="line"/>
      <point x="593" y="872" type="line"/>
    </contour>
  </outline>
</glyph>
<glyph name="schwa" format="2">
  <advance width="1234"/>
  <unicode hex="0259"/>
  <outline>
    <contour>
      <point x="1082" y="500" type="qcurve" smooth="yes"/>
      <point x="1082" y="283"/>
      <point x="816" y="-22"/>
      <point x="601" y="-22" type="qcurve" smooth="yes"/>
      <point x="404" y="-22"/>
      <point x="180" y="207"/>
      <point x="160" y="412" type="qcurve"/>
      <point x="160" y="472" type="line"/>
      <point x="752" y="472" type="line"/>
      <point x="766" y="376" type="line"/>
      <point x="331" y="376" type="line"/>
      <point x="349" y="237"/>
      <point x="496" y="92"/>
      <point x="608" y="92" type="qcurve" smooth="yes"/>
      <point x="746" y="92"/>
      <point x="898" y="300"/>
      <point x="897" y="480" type="qcurve" smooth="yes"/>
      <point x="896" y="681"/>
      <point x="698" y="892"/>
      <point x="533" y="892" type="qcurve" smooth="yes"/>
      <point x="430" y="892"/>
      <point x="294" y="849"/>
      <point x="248" y="811" type="qcurve"/>
      <point x="197" y="871" type="line"/>
      <point x="244" y="935"/>
      <point x="433" y="1022"/>
      <point x="587" y="1022" type="qcurve" smooth="yes"/>
      <point x="800" y="1022"/>
      <point x="1082" y="751"/>
    </contour>
  </outline>
</glyph>
<glyph name="doubleprimemod" format="2">
  <advance width="894"/>
  <unicode hex="02BA"/>
  <outline>
    <contour>
      <point x="277" y="1502" type="line"/>
      <point x="466" y="1502" type="line"/>
      <point x="348" y="1004" type="line"/>
      <point x="226" y="1009" type="line"/>
    </contour>
    <contour>
      <point x="577" y="1502" type="line"/>
      <point x="766" y="1502" type="line"/>
      <point x="648" y="1004" type="line"/>
      <point x="526" y="1009" type="line"/>
    </contour>
  </outline>
</glyph>
<glyph name="apostrophemod" format="2">
  <advance width="776"/>
  <unicode hex="02BC"/>
  <outline>
    <contour>
      <point x="243" y="1062" type="line"/>
      <point x="283" y="1092"/>
      <point x="387" y="1210"/>
      <point x="402" y="1277" type="qcurve"/>
      <point x="331" y="1277"/>
      <point x="251" y="1352"/>
      <point x="251" y="1411" type="qcurve" smooth="yes"/>
      <point x="251" y="1469"/>
      <point x="332" y="1546"/>
      <point x="395" y="1546" type="qcurve" smooth="yes"/>
      <point x="454" y="1546"/>
      <point x="550" y="1450"/>
      <point x="550" y="1373" type="qcurve" smooth="yes"/>
      <point x="550" y="1251"/>
      <point x="391" y="1063"/>
      <point x="286" y="1013" type="qcurve"/>
    </contour>
  </outline>
</glyph>
<glyph name="gravecomb" format="2">
  <advance width="649"/>
  <unicode hex="0300"/>
  <anchor x="324" y="1000" name="_top"/>
  <anchor x="324" y="1497" name="top"/>
  <outline>
    <contour>
      <point x="3" y="1436" type="qcurve" smooth="yes"/>
      <point x="-2" y="1471"/>
      <point x="54" y="1522"/>
      <point x="88" y="1526" type="qcurve" smooth="yes"/>
      <point x="125" y="1531"/>
      <point x="214" y="1477"/>
      <point x="253" y="1448" type="qcurve" smooth="yes"/>
      <point x="557" y="1234" type="line"/>
      <point x="494" y="1149" type="line"/>
      <point x="102" y="1330" type="line" smooth="yes"/>
      <point x="56" y="1351"/>
      <point x="10" y="1388"/>
    </contour>
  </outline>
</glyph>
<glyph name="acutecomb" format="2">
  <advance width="1077"/>
  <unicode hex="0301"/>
  <anchor x="538" y="1000" name="_top"/>
  <anchor x="538" y="1524" name="top"/>
  <outline>
    <contour>
      <point x="923" y="1433" type="qcurve" smooth="yes"/>
      <point x="911" y="1385"/>
      <point x="862" y="1354"/>
      <point x="813" y="1336" type="qcurve" smooth="yes"/>
      <point x="325" y="1148" type="line"/>
      <point x="271" y="1240" type="line"/>
      <point x="674" y="1471" type="line" smooth="yes"/>
      <point x="715" y="1493"/>
      <point x="811" y="1542"/>
      <point x="847" y="1533" type="qcurve" smooth="yes"/>
      <point x="882" y="1526"/>
      <point x="932" y="1468"/>
    </contour>
  </outline>
</glyph>
<glyph name="circumflexcomb" format="2">
  <advance width="1077"/>
  <unicode hex="0302"/>
  <anchor x="538" y="1000" name="_top"/>
  <anchor x="538" y="1539" name="top"/>
  <outline>
    <contour>
      <point x="538" y="1539" type="qcurve" smooth="yes"/>
      <point x="590" y="1539"/>
      <point x="659" y="1508"/>
      <point x="706" y="1466" type="qcurve" smooth="yes"/>
      <point x="975" y="1223" type="line"/>
      <point x="897" y="1150" type="line"/>
      <point x="538" y="1383" type="line"/>
      <point x="179" y="1150" type="line"/>
      <point x="101" y="1223" type="line"/>
      <point x="371" y="1466" type="line" smooth="yes"/>
      <point x="420" y="1510"/>
      <point x="487" y="1539"/>
    </contour>
  </outline>
</glyph>
<glyph name="tildecomb" format="2">
  <advance width="649"/>
  <unicode hex="0303"/>
  <anchor x="327" y="1000" name="_top"/>
  <anchor x="327" y="1402" name="top"/>
  <outline>
    <contour>
      <point x="-60" y="1234" type="line"/>
      <point x="-25" y="1297"/>
      <point x="115" y="1402"/>
      <point x="186" y="1402" type="qcurve" smooth="yes"/>
      <point x="229" y="1402"/>
      <point x="304" y="1374"/>
      <point x="343" y="1348" type="qcurve" smooth="yes"/>
      <point x="371" y="1331"/>
      <point x="462" y="1279"/>
      <point x="505" y="1279" type="qcurve" smooth="yes"/>
      <point x="547" y="1279"/>
      <point x="626" y="1332"/>
      <point x="650" y="1369" type="qcurve"/>
      <point x="714" y="1290" type="line"/>
      <point x="675" y="1214"/>
      <point x="546" y="1132"/>
      <point x="488" y="1132" type="qcurve" smooth="yes"/>
      <point x="438" y="1132"/>
      <point x="339" y="1177"/>
      <point x="310" y="1197" type="qcurve" smooth="yes"/>
      <point x="276" y="1220"/>
      <point x="199" y="1255"/>
      <point x="169" y="1255" type="qcurve" smooth="yes"/>
      <point x="119" y="1255"/>
      <point x="29" y="1183"/>
      <point x="10" y="1155" type="qcurve"/>
    </contour>
  </outline>
</glyph>
<glyph name="dotaccentcomb" format="2">
  <advance width="1077"/>
  <unicode hex="0307"/>
  <anchor x="538" y="1000" name="_top"/>
  <anchor x="538" y="1373" name="top"/>
  <outline>
    <contour>
      <point x="416" y="1254" type="qcurve" smooth="yes"/>
      <point x="416" y="1312"/>
      <point x="479" y="1373"/>
      <point x="538" y="1373" type="qcurve" smooth="yes"/>
      <point x="594" y="1373"/>
      <point x="661" y="1308"/>
      <point x="661" y="1254" type="qcurve" smooth="yes"/>
      <point x="661" y="1196"/>
      <point x="598" y="1135"/>
      <point x="538" y="1135" type="qcurve" smooth="yes"/>
      <point x="483" y="1135"/>
      <point x="416" y="1200"/>
    </contour>
  </outline>
</glyph>
<glyph name="dieresiscomb" format="2">
  <advance width="1077"/>
  <unicode hex="0308"/>
  <anchor x="538" y="1000" name="_top"/>
  <anchor x="538" y="1327" name="top"/>
  <anchor x="538" y="1000" name="_GRKtop"/>
  <outline>
    <contour>
      <point x="652" y="1213" type="qcurve" smooth="yes"/>
      <point x="652" y="1268"/>
      <point x="712" y="1327"/>
      <point x="768" y="1327" type="qcurve" smooth="yes"/>
      <point x="821" y="1327"/>
      <point x="884" y="1264"/>
      <point x="884" y="1213" type="qcurve" smooth="yes"/>
      <point x="884" y="1159"/>
      <point x="825" y="1100"/>
      <point x="768" y="1100" type="qcurve" smooth="yes"/>
      <point x="715" y="1100"/>
      <point x="652" y="1162"/>
    </contour>
    <contour>
      <point x="192" y="1213" type="qcurve" smooth="yes"/>
      <point x="192" y="1268"/>
      <point x="252" y="1327"/>
      <point x="308" y="1327" type="qcurve" smooth="yes"/>
      <point x="361" y="1327"/>
      <point x="424" y="1264"/>
      <point x="424" y="1213" type="qcurve" smooth="yes"/>
      <point x="424" y="1159"/>
      <point x="365" y="1100"/>
      <point x="308" y="1100" type="qcurve" smooth="yes"/>
      <point x="255" y="1100"/>
      <point x="192" y="1162"/>
    </contour>
  </outline>
</glyph>
<glyph name="caroncomb" format="2">
  <advance width="1077"/>
  <unicode hex="030C"/>
  <anchor x="538" y="1000" name="_top"/>
  <anchor x="538" y="1511" name="top"/>
  <outline>
    <contour>
      <point x="538" y="1122" type="qcurve" smooth="yes"/>
      <point x="487" y="1122"/>
      <point x="418" y="1153"/>
      <point x="371" y="1195" type="qcurve" smooth="yes"/>
      <point x="101" y="1438" type="line"/>
      <point x="179" y="1511" type="line"/>
      <point x="538" y="1278" type="line"/>
      <point x="897" y="1511" type="line"/>
      <point x="975" y="1438" type="line"/>
      <point x="706" y="1195" type="line" smooth="yes"/>
      <point x="656" y="1151"/>
      <point x="590" y="1122"/>
    </contour>
  </outline>
</glyph>
<glyph name="breveinvertedcomb" format="2">
  <advance width="649"/>
  <unicode hex="030F"/>
  <anchor x="324" y="1000" name="_top"/>
  <anchor x="324" y="1470" name="top"/>
  <outline>
    <contour>
      <point x="50" y="1150" type="qcurve"/>
      <point x="-28" y="1203" type="line"/>
      <point x="-13" y="1296"/>
      <point x="198" y="1470"/>
      <point x="323" y="1470" type="qcurve"/>
      <point x="452" y="1470"/>
      <point x="663" y="1296"/>
      <point x="676" y="1203" type="qcurve"/>
      <point x="598" y="1150" type="line"/>
      <point x="571" y="1204"/>
      <point x="423" y="1314"/>
      <point x="324" y="1314" type="qcurve"/>
      <point x="227" y="1314"/>
      <point x="79" y="1204"/>
    </contour>
  </outline>
</glyph>
<glyph name="dblgravecomb" format="2">
  <advance width="1077"/>
  <unicode hex="0311"/>
  <anchor x="538" y="1000" name="_top"/>
  <anchor x="538" y="1585" name="top"/>
  <outline>
    <contour>
      <point x="19" y="1492" type="qcurve"/>
      <point x="19" y="1532"/>
      <point x="76" y="1577"/>
      <point x="112" y="1577" type="qcurve" smooth="yes"/>
      <point x="154" y="1577"/>
      <point x="211" y="1524"/>
      <point x="245" y="1478" type="qcurve" smooth="yes"/>
      <point x="426" y="1230" type="line"/>
      <point x="339" y="1151" type="line"/>
      <point x="112" y="1353" type="line" smooth="yes"/>
      <point x="79" y="1383"/>
      <point x="19" y="1454"/>
    </contour>
    <contour>
      <point x="416" y="1492" type="qcurve"/>
      <point x="416" y="1532"/>
      <point x="473" y="1577"/>
      <point x="509" y="1577" type="qcurve" smooth="yes"/>
      <point x="551" y="1577"/>
      <point x="609" y="1523"/>
      <point x="643" y="1477" type="qcurve" smooth="yes"/>
      <point x="823" y="1230" type="line"/>
      <point x="736" y="1151" type="line"/>
      <point x="509" y="1353" type="line" smooth="yes"/>
      <point x="476" y="1383"/>
      <point x="416" y="1454"/>
    </contour>
  </outline>
</glyph>
<glyph name="cedillacomb" format="2">
  <advance width="1077"/>
  <unicode hex="0327"/>
  <anchor x="554" y="0" name="_bottom"/>
  <anchor x="536" y="-541" name="bottom"/>
  <outline>
    <contour>
      <point x="597" y="0" type="line"/>
      <point x="530" y="-125" type="line"/>
      <point x="547" y="-119"/>
      <point x="605" y="-106"/>
      <point x="635" y="-106" type="qcurve" smooth="yes"/>
      <point x="711" y="-106"/>
      <point x="823" y="-196"/>
      <point x="823" y="-285" type="qcurve" smooth="yes"/>
      <point x="823" y="-380"/>
      <point x="680" y="-494"/>
      <point x="589" y="-494" type="qcurve" smooth="yes"/>
      <point x="500" y="-494"/>
      <point x="343" y="-450"/>
      <point x="291" y="-408" type="qcurve"/>
      <point x="343" y="-299" type="line"/>
      <point x="381" y="-331"/>
      <point x="490" y="-375"/>
      <point x="554" y="-375" type="qcurve" smooth="yes"/>
      <point x="598" y="-375"/>
      <point x="669" y="-328"/>
      <point x="669" y="-282" type="qcurve" smooth="yes"/>
      <point x="669" y="-239"/>
      <point x="610" y="-204"/>
      <point x="558" y="-204" type="qcurve" smooth="yes"/>
      <point x="527" y="-204"/>
      <point x="478" y="-212"/>
      <point x="461" y="-218" type="qcurve"/>
      <point x="402" y="-146" type="line"/>
      <point x="506" y="53" type="line"/>
    </contour>
  </outline>
</glyph>
<glyph name="brevebelowcomb" format="2">
  <advance width="1077"/>
  <unicode hex="032E"/>
  <anchor x="538" y="0" name="_bottom"/>
  <anchor x="538" y="-463" name="bottom"/>
  <outline>
    <contour>
      <point x="829" y="-127" type="qcurve"/>
      <point x="922" y="-197" type="line"/>
      <point x="883" y="-296"/>
      <point x="682" y="-463"/>
      <point x="538" y="-463" type="qcurve" smooth="yes"/>
      <point x="410" y="-463"/>
      <point x="203" y="-310"/>
      <point x="155" y="-196" type="qcurve"/>
      <point x="255" y="-127" type="line"/>
      <point x="298" y="-190"/>
      <point x="443" y="-294"/>
      <point x="538" y="-294" type="qcurve" smooth="yes"/>
      <point x="640" y="-294"/>
      <point x="786" y="-195"/>
    </contour>
  </outline>
</glyph>
<glyph name="Gamma" format="2">
  <advance width="1569"/>
  <unicode hex="0393"/>
  <anchor x="859" y="1500" name="top"/>
  <anchor x="517" y="760" name="center"/>
  <outline>
    <contour>
      <point x="170" y="0" type="line"/>
      <point x="170" y="100" type="line"/>
      <point x="378" y="137" type="line"/>
      <point x="380" y="760" type="line"/>
      <point x="378" y="1352" type="line"/>
      <point x="170" y="1386" type="line"/>
      <point x="170" y="1500" type="line"/>
      <point x="1436" y="1500" type="line"/>
      <point x="1436" y="1057" type="line"/>
      <point x="1299" y="1057" type="line"/>
      <point x="1263" y="1382" type="line"/>
      <point x="592" y="1382" type="line"/>
      <point x="562" y="1362" type="line"/>
      <point x="560" y="760" type="line"/>
      <point x="562" y="132" type="line"/>
      <point x="790" y="100" type="line"/>
      <point x="790" y="0" type="line"/>
    </contour>
  </outline>
</glyph>
<glyph name="Delta" format="2">
  <advance width="2072"/>
  <unicode hex="0394"/>
  <outline>
    <contour>
      <point x="225" y="0" type="line"/>
      <point x="225" y="99" type="line"/>
      <point x="461" y="535" type="line"/>
      <point x="988" y="1508" type="line"/>
      <point x="1108" y="1508" type="line"/>
      <point x="1626" y="535" type="line"/>
      <point x="1856" y="100" type="line"/>
      <point x="1856" y="0" type="line"/>
    </contour>
    <contour>
      <point x="399" y="108" type="line"/>
      <point x="1023" y="97" type="line"/>
      <point x="1635" y="108" type="line"/>
      <point x="1646" y="114" type="line"/>
      <point x="1421" y="536" type="line"/>
      <point x="1071" y="1191" type="line"/>
      <point x="1026" y="1275" type="line"/>
      <point x="1009" y="1275" type="line"/>
      <point x="962" y="1191" type="line"/>
      <point x="612" y="535" type="line"/>
      <point x="387" y="114" type="line"/>
    </contour>
  </outline>
</glyph>
<glyph name="Theta" format="2">
  <advance width="1848"/>
  <unicode hex="0398"/>
  <outline>
    <contour>
      <point x="928" y="-31" type="qcurve" smooth="yes"/>
      <point x="597" y="-31"/>
      <point x="168" y="396"/>
      <point x="168" y="737" type="qcurve" smooth="yes"/>
      <point x="168" y="1068"/>
      <point x="585" y="1520"/>
      <point x="924" y="1520" type="qcurve" smooth="yes"/>
      <point x="1263" y="1520"/>
      <point x="1680" y="1097"/>
      <point x="1680" y="752" type="qcurve" smooth="yes"/>
      <point x="1680" y="423"/>
      <point x="1267" y="-31"/>
    </contour>
    <contour>
      <point x="926" y="101" type="qcurve" smooth="yes"/>
      <point x="1199" y="101"/>
      <point x="1485" y="436"/>
      <point x="1485" y="745" type="qcurve" smooth="yes"/>
      <point x="1485" y="1020"/>
      <point x="1179" y="1380"/>
      <point x="926" y="1380" type="qcurve" smooth="yes"/>
      <point x="653" y="1380"/>
      <point x="363" y="1053"/>
      <point x="363" y="771" type="qcurve" smooth="yes"/>
      <point x="363" y="478"/>
      <point x="676" y="101"/>
    </contour>
    <contour>
      <point x="565" y="649" type="line"/>
      <point x="565" y="822" type="line"/>
      <point x="575" y="822" type="line"/>
      <point x="921" y="796" type="line"/>
      <point x="931" y="796" type="line"/>
      <point x="1275" y="822" type="line"/>
      <point x="1285" y="822" type="line"/>
      <point x="1285" y="649" type="line"/>
      <point x="1275" y="649" type="line"/>
      <point x="931" y="675" type="line"/>
      <point x="921" y="675" type="line"/>
      <point x="575" y="649" type="line"/>
    </contour>
  </outline>
</glyph>
<glyph name="Lambda" format="2">
  <advance width="2146"/>
  <unicode hex="039B"/>
  <outline>
    <contour>
      <point x="85" y="0" type="line"/>
      <point x="85" y="100" type="line"/>
      <point x="313" y="135" type="line"/>
      <point x="542" y="556" type="line"/>
      <point x="1056" y="1508" type="line"/>
      <point x="1176" y="1508" type="line"/>
      <point x="1677" y="562" type="line"/>
      <point x="1906" y="135" type="line"/>
      <point x="2123" y="100" type="line"/>
      <point x="2123" y="0" type="line"/>
      <point x="1485" y="0" type="line"/>
      <point x="1485" y="100" type="line"/>
      <point x="1705" y="131" type="line"/>
      <point x="1505" y="512" type="line"/>
      <point x="1153" y="1167" type="line"/>
      <point x="1094" y="1275" type="line"/>
      <point x="1077" y="1275" type="line"/>
      <point x="1016" y="1167" type="line"/>
      <point x="668" y="509" type="line"/>
      <point x="464" y="130" type="line"/>
      <point x="681" y="100" type="line"/>
      <point x="681" y="0" type="line"/>
    </contour>
  </outline>
</glyph>
<glyph name="Xi" format="2">
  <advance width="1934"/>
  <unicode hex="039E"/>
  <outline>
    <contour>
      <point x="182" y="0" type="line"/>
      <point x="131" y="418" type="line"/>
      <point x="269" y="418" type="line"/>
      <point x="353" y="128" type="line"/>
      <point x="964" y="115" type="line"/>
      <point x="1581" y="128" type="line"/>
      <point x="1666" y="418" type="line"/>
      <point x="1804" y="418" type="line"/>
      <point x="1753" y="0" type="line"/>
    </contour>
    <contour>
      <point x="378" y="518" type="line"/>
      <point x="378" y="954" type="line"/>
      <point x="494" y="954" type="line"/>
      <point x="529" y="808" type="line"/>
      <point x="965" y="789" type="line"/>
      <point x="1406" y="808" type="line"/>
      <point x="1441" y="954" type="line"/>
      <point x="1557" y="954" type="line"/>
      <point x="1557" y="518" type="line"/>
      <point x="1441" y="518" type="line"/>
      <point x="1406" y="664" type="line"/>
      <point x="965" y="683" type="line"/>
      <point x="529" y="664" type="line"/>
      <point x="494" y="518" type="line"/>
    </contour>
    <contour>
      <point x="177" y="1058" type="line"/>
      <point x="177" y="1500" type="line"/>
      <point x="1758" y="1500" type="line"/>
      <point x="1758" y="1058" type="line"/>
      <point x="1620" y="1058" type="line"/>
      <point x="1588" y="1362" type="line"/>
      <point x="964" y="1375" type="line"/>
      <point x="347" y="1362" type="line"/>
      <point x="315" y="1058" type="line"/>
    </contour>
  </outline>
</glyph>
<glyph name="Pi" format="2">
  <advance width="2277"/>
  <unicode hex="03A0"/>
  <outline>
    <contour>
      <point x="130" y="0" type="line"/>
      <point x="130" y="100" type="line"/>
      <point x="378" y="135" type="line"/>
      <point x="380" y="754" type="line"/>
      <point x="378" y="1352" type="line"/>
      <point x="130" y="1386" type="line"/>
      <point x="130" y="1500" type="line"/>
      <point x="2147" y="1500" type="line"/>
      <point x="2147" y="1386" type="line"/>
      <point x="1899" y="1352" type="line"/>
      <point x="1897" y="754" type="line"/>
      <point x="1899" y="135" type="line"/>
      <point x="2147" y="100" type="line"/>
      <point x="2147" y="0" type="line"/>
      <point x="1467" y="0" type="line"/>
      <point x="1467" y="100" type="line"/>
      <point x="1715" y="135" type="line"/>
      <point x="1717" y="754" type="line"/>
      <point x="1715" y="1345" type="line"/>
      <point x="1664" y="1382" type="line"/>
      <point x="613" y="1382" type="line"/>
      <point x="562" y="1345" type="line"/>
      <point x="560" y="754" type="line"/>
      <point x="562" y="135" type="line"/>
      <point x="810" y="100" type="line"/>
      <point x="810" y="0" type="line"/>
    </contour>
  </outline>
</glyph>
<glyph name="Sigma" format="2">
  <advance width="1756"/>
  <unicode hex="03A3"/>
  <outline>
    <contour>
      <point x="158" y="0" type="line"/>
      <point x="128" y="92" type="line"/>
      <point x="865" y="719" type="line"/>
      <point x="865" y="728" type="line"/>
      <point x="173" y="1410" type="line"/>
      <point x="173" y="1500" type="line"/>
      <point x="1601" y="1500" type="line"/>
      <point x="1601" y="1058" type="line"/>
      <point x="1463" y="1058" type="line"/>
      <point x="1427" y="1382" type="line"/>
      <point x="445" y="1382" type="line"/>
      <point x="436" y="1374" type="line"/>
      <point x="1028" y="792" type="line"/>
      <point x="1028" y="685" type="line"/>
      <point x="365" y="114" type="line"/>
      <point x="373" y="108" type="line"/>
      <point x="1429" y="108" type="line"/>
      <point x="1515" y="418" type="line"/>
      <point x="1653" y="418" type="line"/>
      <point x="1602" y="0" type="line"/>
    </contour>
  </outline>
</glyph>
<glyph name="Phi" format="2">
  <advance width="2185"/>
  <unicode hex="03A6"/>
  <outline>
    <contour>
      <point x="789" y="-24" type="line"/>
      <point x="789" y="76" type="line"/>
      <point x="1007" y="111" type="line"/>
      <point x="1010" y="270" type="line"/>
      <point x="1018" y="270" type="line"/>
      <point x="1020" y="745" type="line"/>
      <point x="1164" y="745" type="line"/>
      <point x="1166" y="270" type="line"/>
      <point x="1174" y="270" type="line"/>
      <point x="1177" y="111" type="line"/>
      <point x="1395" y="76" type="line"/>
      <point x="1395" y="-24" type="line"/>
    </contour>
    <contour>
      <point x="1020" y="745" type="line"/>
      <point x="1018" y="1236" type="line"/>
      <point x="1010" y="1236" type="line"/>
      <point x="1007" y="1372" type="line"/>
      <point x="789" y="1406" type="line"/>
      <point x="789" y="1520" type="line"/>
      <point x="1395" y="1520" type="line"/>
      <point x="1395" y="1406" type="line"/>
      <point x="1177" y="1372" type="line"/>
      <point x="1174" y="1236" type="line"/>
      <point x="1166" y="1236" type="line"/>
      <point x="1164" y="745" type="line"/>
    </contour>
    <contour>
      <point x="1092" y="215" type="qcurve" smooth="yes"/>
      <point x="534" y="215"/>
      <point x="60" y="490"/>
      <point x="60" y="696" type="qcurve"/>
      <point x="60" y="986"/>
      <point x="674" y="1293"/>
      <point x="1092" y="1293" type="qcurve" smooth="yes"/>
      <point x="1652" y="1293"/>
      <point x="2125" y="1018"/>
      <point x="2125" y="829" type="qcurve" smooth="yes"/>
      <point x="2125" y="522"/>
      <point x="1612" y="215"/>
    </contour>
    <contour>
      <point x="1092" y="327" type="qcurve"/>
      <point x="1640" y="327"/>
      <point x="1943" y="502"/>
      <point x="1943" y="771" type="qcurve" smooth="yes"/>
      <point x="1943" y="991"/>
      <point x="1590" y="1173"/>
      <point x="1089" y="1173" type="qcurve"/>
      <point x="643" y="1173"/>
      <point x="245" y="998"/>
      <point x="245" y="729" type="qcurve" smooth="yes"/>
      <point x="245" y="468"/>
      <point x="663" y="327"/>
    </contour>
  </outline>
</glyph>
<glyph name="Psi" format="2">
  <advance width="2325"/>
  <unicode hex="03A8"/>
  <outline>
    <contour>
      <point x="815" y="0" type="line"/>
      <point x="815" y="100" type="line"/>
      <point x="1073" y="135" type="line"/>
      <point x="1074" y="520" type="line"/>
      <point x="1079" y="520" type="line"/>
      <point x="1079" y="811" type="line"/>
      <point x="1073" y="1352" type="line"/>
      <point x="855" y="1386" type="line"/>
      <point x="855" y="1500" type="line"/>
      <point x="1471" y="1500" type="line"/>
      <point x="1471" y="1386" type="line"/>
      <point x="1253" y="1352" type="line"/>
      <point x="1247" y="811" type="line"/>
      <point x="1247" y="520" type="line"/>
      <point x="1252" y="520" type="line"/>
      <point x="1253" y="135" type="line"/>
      <point x="1511" y="100" type="line"/>
      <point x="1511" y="0" type="line"/>
    </contour>
    <contour>
      <point x="1163" y="462" type="qcurve"/>
      <point x="638" y="462"/>
      <point x="287" y="716"/>
      <point x="262" y="1007" type="qcurve" smooth="yes"/>
      <point x="232" y="1352" type="line"/>
      <point x="24" y="1386" type="line"/>
      <point x="24" y="1500" type="line"/>
      <point x="367" y="1500" type="line"/>
      <point x="400" y="1477" type="line"/>
      <point x="440" y="1013" type="line" smooth="yes"/>
      <point x="465" y="723"/>
      <point x="802" y="577"/>
      <point x="1163" y="577" type="qcurve"/>
      <point x="1523" y="577"/>
      <point x="1862" y="723"/>
      <point x="1885" y="1013" type="qcurve" smooth="yes"/>
      <point x="1925" y="1477" type="line"/>
      <point x="1958" y="1500" type="line"/>
      <point x="2301" y="1500" type="line"/>
      <point x="2301" y="1386" type="line"/>
      <point x="2093" y="1352" type="line"/>
      <point x="2063" y="1007" type="line" smooth="yes"/>
      <point x="2038" y="716"/>
      <point x="1687" y="462"/>
    </contour>
  </outline>
</glyph>
<glyph name="Omega" format="2">
  <advance width="1729"/>
  <unicode hex="03A9"/>
  <anchor x="221" y="1500" name="tonos"/>
  <outline>
    <contour>
      <point x="128" y="0" type="line"/>
      <point x="88" y="378" type="line"/>
      <point x="198" y="378" type="line"/>
      <point x="267" y="131" type="line"/>
      <point x="604" y="129" type="line"/>
      <point x="615" y="236" type="line"/>
      <point x="417" y="305"/>
      <point x="163" y="612"/>
      <point x="163" y="862" type="qcurve" smooth="yes"/>
      <point x="163" y="1155"/>
      <point x="552" y="1520"/>
      <point x="864" y="1520" type="qcurve" smooth="yes"/>
      <point x="1205" y="1520"/>
      <point x="1564" y="1168"/>
      <point x="1564" y="874" type="qcurve" smooth="yes"/>
      <point x="1564" y="635"/>
      <point x="1290" y="301"/>
      <point x="1108" y="240" type="qcurve"/>
      <point x="1123" y="129" type="line"/>
      <point x="1461" y="131" type="line"/>
      <point x="1531" y="378" type="line"/>
      <point x="1641" y="378" type="line"/>
      <point x="1601" y="0" type="line"/>
      <point x="989" y="0" type="line"/>
      <point x="959" y="310" type="line"/>
      <point x="1193" y="377"/>
      <point x="1373" y="667"/>
      <point x="1373" y="869" type="qcurve" smooth="yes"/>
      <point x="1373" y="1110"/>
      <point x="1103" y="1380"/>
      <point x="863" y="1380" type="qcurve" smooth="yes"/>
      <point x="622" y="1379"/>
      <point x="354" y="1110"/>
      <point x="354" y="852" type="qcurve" smooth="yes"/>
      <point x="354" y="646"/>
      <point x="561" y="373"/>
      <point x="768" y="310" type="qcurve"/>
      <point x="738" y="0" type="line"/>
    </contour>
  </outline>
</glyph>
